Benzinova-B1.ufo
<glyph name="dollar" format="1">
  <advance width="735.0"/>
  <unicode hex="0024"/>
  <outline>
    <contour>
      <point x="353" y="1156" type="line"/>
      <point x="353" y="1147"/>
      <point x="360" y="1140"/>
      <point x="369" y="1140" type="curve" smooth="yes"/>
      <point x="378" y="1140"/>
      <point x="385" y="1147"/>
      <point x="385" y="1156" type="curve" smooth="yes"/>
      <point x="385" y="1223" type="line" smooth="yes"/>
      <point x="385" y="1232"/>
      <point x="378" y="1239"/>
      <point x="369" y="1239" type="curve" smooth="yes"/>
      <point x="360" y="1239"/>
      <point x="353" y="1232"/>
      <point x="353" y="1223" type="curve" smooth="yes"/>
    </contour>
    <contour>
      <point x="353" y="-22" type="line"/>
      <point x="353" y="-31"/>
      <point x="360" y="-38"/>
      <point x="369" y="-38" type="curve" smooth="yes"/>
      <point x="378" y="-38"/>
      <point x="385" y="-31"/>
      <point x="385" y="-22" type="curve" smooth="yes"/>
      <point x="385" y="45" type="line" smooth="yes"/>
      <point x="385" y="54"/>
      <point x="378" y="61"/>
      <point x="369" y="61" type="curve" smooth="yes"/>
      <point x="360" y="61"/>
      <point x="353" y="54"/>
      <point x="353" y="45" type="curve" smooth="yes"/>
    </contour>
    <contour>
      <point x="604" y="929" type="curve" smooth="yes"/>
      <point x="604" y="920"/>
      <point x="611" y="913"/>
      <point x="620" y="913" type="curve" smooth="yes"/>
      <point x="629" y="913"/>
      <point x="636" y="920"/>
      <point x="636" y="929" type="curve" smooth="yes"/>
      <point x="636" y="1061"/>
      <point x="529" y="1168"/>
      <point x="396" y="1168" type="curve" smooth="yes"/>
      <point x="341" y="1168" type="line" smooth="yes"/>
      <point x="209" y="1168"/>
      <point x="101" y="1061"/>
      <point x="101" y="929" type="curve" smooth="yes"/>
      <point x="101" y="900" type="line" smooth="yes"/>
      <point x="101" y="768"/>
      <point x="209" y="661"/>
      <point x="341" y="661" type="curve" smooth="yes"/>
      <point x="402" y="661" type="line" smooth="yes"/>
      <point x="524" y="661"/>
      <point x="625" y="561"/>
      <point x="625" y="438" type="curve" smooth="yes"/>
      <point x="625" y="295" type="line" smooth="yes"/>
      <point x="625" y="172"/>
      <point x="524" y="72"/>
      <point x="402" y="72" type="curve" smooth="yes"/>
      <point x="335" y="72" type="line" smooth="yes"/>
      <point x="212" y="72"/>
      <point x="112" y="172"/>
      <point x="112" y="295" type="curve" smooth="yes"/>
      <point x="112" y="304"/>
      <point x="105" y="311"/>
      <point x="96" y="311" type="curve" smooth="yes"/>
      <point x="87" y="311"/>
      <point x="80" y="304"/>
      <point x="80" y="295" type="curve" smooth="yes"/>
      <point x="80" y="154"/>
      <point x="194" y="40"/>
      <point x="335" y="40" type="curve" smooth="yes"/>
      <point x="402" y="40" type="line" smooth="yes"/>
      <point x="542" y="40"/>
      <point x="657" y="154"/>
      <point x="657" y="295" type="curve" smooth="yes"/>
      <point x="657" y="438" type="line" smooth="yes"/>
      <point x="657" y="579"/>
      <point x="542" y="693"/>
      <point x="402" y="693" type="curve" smooth="yes"/>
      <point x="341" y="693" type="line" smooth="yes"/>
      <point x="227" y="693"/>
      <point x="133" y="786"/>
      <point x="133" y="900" type="curve" smooth="yes"/>
      <point x="133" y="929" type="line" smooth="yes"/>
      <point x="133" y="1043"/>
      <point x="227" y="1136"/>
      <point x="341" y="1136" type="curve" smooth="yes"/>
      <point x="396" y="1136" type="line" smooth="yes"/>
      <point x="511" y="1136"/>
      <point x="604" y="1043"/>
    </contour>
  </outline>
</glyph>
<glyph name="ampersand" format="1">
  <advance width="722.0"/>
  <unicode hex="0026"/>
  <outline>
    <contour>
      <point x="481" y="812" type="curve" smooth="yes"/>
      <point x="481" y="803"/>
      <point x="488" y="796"/>
      <point x="497" y="796" type="curve" smooth="yes"/>
      <point x="506" y="796"/>
      <point x="513" y="803"/>
      <point x="513" y="812" type="curve" smooth="yes"/>
      <point x="513" y="918"/>
      <point x="425" y="1006"/>
      <point x="318" y="1006" type="curve" smooth="yes"/>
      <point x="212" y="1006"/>
      <point x="124" y="918"/>
      <point x="124" y="812" type="curve" smooth="yes"/>
      <point x="124" y="726" type="line" smooth="yes"/>
      <point x="124" y="620"/>
      <point x="212" y="532"/>
      <point x="318" y="532" type="curve" smooth="yes"/>
      <point x="327" y="532"/>
      <point x="334" y="539"/>
      <point x="334" y="548" type="curve" smooth="yes"/>
      <point x="334" y="557"/>
      <point x="327" y="564"/>
      <point x="318" y="564" type="curve" smooth="yes"/>
      <point x="230" y="564"/>
      <point x="156" y="638"/>
      <point x="156" y="726" type="curve" smooth="yes"/>
      <point x="156" y="812" type="line" smooth="yes"/>
      <point x="156" y="900"/>
      <point x="230" y="974"/>
      <point x="318" y="974" type="curve" smooth="yes"/>
      <point x="407" y="974"/>
      <point x="481" y="900"/>
    </contour>
    <contour>
      <point x="650" y="-16" type="curve" smooth="yes"/>
      <point x="659" y="-16"/>
      <point x="666" y="-9"/>
      <point x="666" y="0" type="curve" smooth="yes"/>
      <point x="666" y="9"/>
      <point x="659" y="16"/>
      <point x="650" y="16" type="curve" smooth="yes"/>
      <point x="600" y="16"/>
      <point x="560" y="58"/>
      <point x="560" y="108" type="curve" smooth="yes"/>
      <point x="560" y="322" type="line" smooth="yes"/>
      <point x="560" y="456"/>
      <point x="452" y="564"/>
      <point x="318" y="564" type="curve" smooth="yes"/>
      <point x="185" y="564"/>
      <point x="77" y="456"/>
      <point x="77" y="322" type="curve" smooth="yes"/>
      <point x="77" y="210" type="line" smooth="yes"/>
      <point x="77" y="76"/>
      <point x="185" y="-32"/>
      <point x="318" y="-32" type="curve" smooth="yes"/>
      <point x="446" y="-32"/>
      <point x="562" y="20"/>
      <point x="646" y="104" type="curve" smooth="yes"/>
      <point x="652" y="110"/>
      <point x="652" y="120"/>
      <point x="646" y="126" type="curve" smooth="yes"/>
      <point x="640" y="132"/>
      <point x="630" y="132"/>
      <point x="624" y="126" type="curve" smooth="yes"/>
      <point x="546" y="48"/>
      <point x="438" y="0"/>
      <point x="318" y="0" type="curve" smooth="yes"/>
      <point x="203" y="0"/>
      <point x="109" y="94"/>
      <point x="109" y="210" type="curve" smooth="yes"/>
      <point x="109" y="322" type="line" smooth="yes"/>
      <point x="109" y="438"/>
      <point x="203" y="532"/>
      <point x="318" y="532" type="curve" smooth="yes"/>
      <point x="434" y="532"/>
      <point x="528" y="438"/>
      <point x="528" y="322" type="curve" smooth="yes"/>
      <point x="528" y="108" type="line" smooth="yes"/>
      <point x="528" y="40"/>
      <point x="582" y="-16"/>
    </contour>
  </outline>
</glyph>
<glyph name="asterisk" format="1">
  <advance width="366.0"/>
  <unicode hex="002A"/>
  <outline>
    <contour>
      <point x="198" y="1213" type="line"/>
      <point x="198" y="1222"/>
      <point x="191" y="1229"/>
      <point x="182" y="1229" type="curve" smooth="yes"/>
      <point x="173" y="1229"/>
      <point x="166" y="1222"/>
      <point x="166" y="1213" type="curve" smooth="yes"/>
      <point x="166" y="1005" type="line" smooth="yes"/>
      <point x="166" y="996"/>
      <point x="173" y="989"/>
      <point x="182" y="989" type="curve" smooth="yes"/>
      <point x="191" y="989"/>
      <point x="198" y="996"/>
      <point x="198" y="1005" type="curve" smooth="yes"/>
    </contour>
    <contour>
      <point x="100" y="1175" type="line"/>
      <point x="92" y="1179"/>
      <point x="82" y="1176"/>
      <point x="78" y="1169" type="curve" smooth="yes"/>
      <point x="74" y="1161"/>
      <point x="77" y="1151"/>
      <point x="84" y="1147" type="curve" smooth="yes"/>
      <point x="264" y="1043" type="line" smooth="yes"/>
      <point x="272" y="1039"/>
      <point x="282" y="1042"/>
      <point x="286" y="1049" type="curve" smooth="yes"/>
      <point x="290" y="1057"/>
      <point x="287" y="1067"/>
      <point x="280" y="1071" type="curve" smooth="yes"/>
    </contour>
    <contour>
      <point x="280" y="1147" type="line"/>
      <point x="287" y="1151"/>
      <point x="290" y="1161"/>
      <point x="286" y="1169" type="curve" smooth="yes"/>
      <point x="282" y="1176"/>
      <point x="272" y="1179"/>
      <point x="264" y="1175" type="curve" smooth="yes"/>
      <point x="84" y="1071" type="line" smooth="yes"/>
      <point x="77" y="1067"/>
      <point x="74" y="1057"/>
      <point x="78" y="1049" type="curve" smooth="yes"/>
      <point x="82" y="1042"/>
      <point x="92" y="1039"/>
      <point x="100" y="1043" type="curve" smooth="yes"/>
    </contour>
  </outline>
</glyph>
<glyph name="plus" format="1">
  <advance width="680.0"/>
  <unicode hex="002B"/>
  <outline>
    <contour>
      <point x="324" y="208" type="line"/>
      <point x="324" y="199"/>
      <point x="331" y="192"/>
      <point x="340" y="192" type="curve" smooth="yes"/>
      <point x="349" y="192"/>
      <point x="356" y="199"/>
      <point x="356" y="208" type="curve" smooth="yes"/>
      <point x="356" y="644" type="line" smooth="yes"/>
      <point x="356" y="653"/>
      <point x="349" y="660"/>
      <point x="340" y="660" type="curve" smooth="yes"/>
      <point x="331" y="660"/>
      <point x="324" y="653"/>
      <point x="324" y="644" type="curve" smooth="yes"/>
    </contour>
    <contour>
      <point x="558" y="410" type="line"/>
      <point x="567" y="410"/>
      <point x="574" y="417"/>
      <point x="574" y="426" type="curve" smooth="yes"/>
      <point x="574" y="435"/>
      <point x="567" y="442"/>
      <point x="558" y="442" type="curve" smooth="yes"/>
      <point x="122" y="442" type="line" smooth="yes"/>
      <point x="113" y="442"/>
      <point x="106" y="435"/>
      <point x="106" y="426" type="curve" smooth="yes"/>
      <point x="106" y="417"/>
      <point x="113" y="410"/>
      <point x="122" y="410" type="curve" smooth="yes"/>
    </contour>
  </outline>
</glyph>
<glyph name="hyphen" format="1">
  <advance width="418.0"/>
  <unicode hex="002D"/>
  <outline>
    <contour>
      <point x="322" y="415" type="line"/>
      <point x="330" y="415"/>
      <point x="338" y="423"/>
      <point x="338" y="431" type="curve" smooth="yes"/>
      <point x="338" y="441"/>
      <point x="330" y="447"/>
      <point x="322" y="447" type="curve" smooth="yes"/>
      <point x="96" y="447" type="line" smooth="yes"/>
      <point x="88" y="447"/>
      <point x="80" y="441"/>
      <point x="80" y="431" type="curve" smooth="yes"/>
      <point x="80" y="423"/>
      <point x="88" y="415"/>
      <point x="96" y="415" type="curve" smooth="yes"/>
    </contour>
  </outline>
</glyph>
<glyph name="zero" format="1">
  <advance width="683"/>
  <unicode hex="0030"/>
  <outline>
    <contour>
      <point x="603" y="967" type="line"/>
      <point x="603" y="1112"/>
      <point x="485" y="1229"/>
      <point x="342" y="1229" type="curve" smooth="yes"/>
      <point x="197" y="1229"/>
      <point x="80" y="1112"/>
      <point x="80" y="967" type="curve" smooth="yes"/>
      <point x="80" y="232" type="line" smooth="yes"/>
      <point x="80" y="89"/>
      <point x="197" y="-29"/>
      <point x="342" y="-29" type="curve" smooth="yes"/>
      <point x="485" y="-29"/>
      <point x="603" y="89"/>
      <point x="603" y="232" type="curve" smooth="yes"/>
    </contour>
    <contour>
      <point x="571" y="967" type="curve" smooth="yes"/>
      <point x="571" y="232" type="line" smooth="yes"/>
      <point x="571" y="107"/>
      <point x="467" y="3"/>
      <point x="342" y="3" type="curve" smooth="yes"/>
      <point x="215" y="3"/>
      <point x="112" y="107"/>
      <point x="112" y="232" type="curve" smooth="yes"/>
      <point x="112" y="967" type="line" smooth="yes"/>
      <point x="112" y="1094"/>
      <point x="215" y="1197"/>
      <point x="342" y="1197" type="curve" smooth="yes"/>
      <point x="467" y="1197"/>
      <point x="571" y="1094"/>
    </contour>
    <contour>
      <point x="86" y="252" type="line"/>
      <point x="82" y="244"/>
      <point x="83" y="234"/>
      <point x="90" y="230" type="curve" smooth="yes"/>
      <point x="97" y="225"/>
      <point x="107" y="227"/>
      <point x="112" y="233" type="curve" smooth="yes"/>
      <point x="597" y="941" type="line" smooth="yes"/>
      <point x="602" y="948"/>
      <point x="600" y="958"/>
      <point x="593" y="963" type="curve" smooth="yes"/>
      <point x="586" y="968"/>
      <point x="576" y="966"/>
      <point x="572" y="960" type="curve" smooth="yes"/>
    </contour>
  </outline>
</glyph>
<glyph name="one" format="1">
  <advance width="683"/>
  <unicode hex="0031"/>
  <outline>
    <contour>
      <point x="327" y="16" type="line"/>
      <point x="327" y="7"/>
      <point x="334" y="0"/>
      <point x="343" y="0" type="curve" smooth="yes"/>
      <point x="352" y="0"/>
      <point x="359" y="7"/>
      <point x="359" y="16" type="curve" smooth="yes"/>
      <point x="359" y="1202" type="line" smooth="yes"/>
      <point x="359" y="1223"/>
      <point x="347" y="1229"/>
      <point x="332" y="1213" type="curve" smooth="yes"/>
      <point x="84" y="963" type="line" smooth="yes"/>
      <point x="78" y="957"/>
      <point x="78" y="947"/>
      <point x="84" y="941" type="curve" smooth="yes"/>
      <point x="90" y="935"/>
      <point x="100" y="935"/>
      <point x="106" y="941" type="curve" smooth="yes"/>
      <point x="354" y="1191" type="line"/>
      <point x="327" y="1202" type="line"/>
    </contour>
    <contour>
      <point x="589" y="0" type="line"/>
      <point x="598" y="0"/>
      <point x="605" y="7"/>
      <point x="605" y="16" type="curve" smooth="yes"/>
      <point x="605" y="25"/>
      <point x="598" y="32"/>
      <point x="589" y="32" type="curve" smooth="yes"/>
      <point x="98" y="32" type="line" smooth="yes"/>
      <point x="89" y="32"/>
      <point x="82" y="25"/>
      <point x="82" y="16" type="curve" smooth="yes"/>
      <point x="82" y="7"/>
      <point x="89" y="0"/>
      <point x="98" y="0" type="curve" smooth="yes"/>
    </contour>
  </outline>
</glyph>
<glyph name="two" format="1">
  <advance width="683"/>
  <unicode hex="0032"/>
  <outline>
    <contour>
      <point x="587" y="0" type="line"/>
      <point x="596" y="0"/>
      <point x="603" y="7"/>
      <point x="603" y="16" type="curve" smooth="yes"/>
      <point x="603" y="25"/>
      <point x="596" y="32"/>
      <point x="587" y="32" type="curve" smooth="yes"/>
      <point x="96" y="32" type="line"/>
      <point x="112" y="16" type="line"/>
      <point x="112" y="239" type="line" smooth="yes"/>
      <point x="112" y="365"/>
      <point x="215" y="468"/>
      <point x="342" y="468" type="curve" smooth="yes"/>
      <point x="485" y="468"/>
      <point x="603" y="586"/>
      <point x="603" y="730" type="curve" smooth="yes"/>
      <point x="603" y="967" type="line" smooth="yes"/>
      <point x="603" y="1112"/>
      <point x="485" y="1229"/>
      <point x="342" y="1229" type="curve" smooth="yes"/>
      <point x="197" y="1229"/>
      <point x="80" y="1112"/>
      <point x="80" y="967" type="curve" smooth="yes"/>
      <point x="80" y="958"/>
      <point x="87" y="951"/>
      <point x="96" y="951" type="curve" smooth="yes"/>
      <point x="105" y="951"/>
      <point x="112" y="958"/>
      <point x="112" y="967" type="curve" smooth="yes"/>
      <point x="112" y="1094"/>
      <point x="215" y="1197"/>
      <point x="342" y="1197" type="curve" smooth="yes"/>
      <point x="467" y="1197"/>
      <point x="571" y="1094"/>
      <point x="571" y="967" type="curve" smooth="yes"/>
      <point x="571" y="730" type="line" smooth="yes"/>
      <point x="571" y="604"/>
      <point x="467" y="500"/>
      <point x="342" y="500" type="curve" smooth="yes"/>
      <point x="197" y="500"/>
      <point x="80" y="383"/>
      <point x="80" y="239" type="curve" smooth="yes"/>
      <point x="80" y="16" type="line" smooth="yes"/>
      <point x="80" y="7"/>
      <point x="87" y="0"/>
      <point x="96" y="0" type="curve" smooth="yes"/>
    </contour>
  </outline>
</glyph>
<glyph name="three" format="1">
  <advance width="683"/>
  <unicode hex="0033"/>
  <outline>
    <contour>
      <point x="386" y="701" type="curve" smooth="yes"/>
      <point x="377" y="700"/>
      <point x="371" y="691"/>
      <point x="372" y="683" type="curve" smooth="yes"/>
      <point x="373" y="674"/>
      <point x="382" y="668"/>
      <point x="390" y="669" type="curve" smooth="yes"/>
      <point x="508" y="685"/>
      <point x="600" y="788"/>
      <point x="600" y="910" type="curve" smooth="yes"/>
      <point x="600" y="985" type="line" smooth="yes"/>
      <point x="600" y="1120"/>
      <point x="490" y="1229"/>
      <point x="357" y="1229" type="curve" smooth="yes"/>
      <point x="327" y="1229" type="line" smooth="yes"/>
      <point x="192" y="1229"/>
      <point x="83" y="1120"/>
      <point x="83" y="985" type="curve" smooth="yes"/>
      <point x="83" y="976"/>
      <point x="90" y="969"/>
      <point x="99" y="969" type="curve" smooth="yes"/>
      <point x="108" y="969"/>
      <point x="115" y="976"/>
      <point x="115" y="985" type="curve" smooth="yes"/>
      <point x="115" y="1102"/>
      <point x="210" y="1197"/>
      <point x="327" y="1197" type="curve" smooth="yes"/>
      <point x="357" y="1197" type="line" smooth="yes"/>
      <point x="472" y="1197"/>
      <point x="568" y="1102"/>
      <point x="568" y="985" type="curve" smooth="yes"/>
      <point x="568" y="910" type="line" smooth="yes"/>
      <point x="568" y="804"/>
      <point x="488" y="715"/>
    </contour>
    <contour>
      <point x="111" y="219" type="curve" smooth="yes"/>
      <point x="111" y="228"/>
      <point x="104" y="235"/>
      <point x="95" y="235" type="curve" smooth="yes"/>
      <point x="86" y="235"/>
      <point x="79" y="228"/>
      <point x="79" y="219" type="curve" smooth="yes"/>
      <point x="79" y="83"/>
      <point x="190" y="-29"/>
      <point x="327" y="-29" type="curve" smooth="yes"/>
      <point x="357" y="-29" type="line" smooth="yes"/>
      <point x="492" y="-29"/>
      <point x="604" y="83"/>
      <point x="604" y="219" type="curve" smooth="yes"/>
      <point x="604" y="451" type="line" smooth="yes"/>
      <point x="604" y="585"/>
      <point x="496" y="694"/>
      <point x="364" y="698" type="curve" smooth="yes"/>
      <point x="355" y="698"/>
      <point x="348" y="691"/>
      <point x="348" y="682" type="curve" smooth="yes"/>
      <point x="348" y="673"/>
      <point x="355" y="666"/>
      <point x="363" y="666" type="curve" smooth="yes"/>
      <point x="478" y="663"/>
      <point x="572" y="567"/>
      <point x="572" y="451" type="curve" smooth="yes"/>
      <point x="572" y="219" type="line" smooth="yes"/>
      <point x="572" y="101"/>
      <point x="474" y="3"/>
      <point x="357" y="3" type="curve" smooth="yes"/>
      <point x="327" y="3" type="line" smooth="yes"/>
      <point x="208" y="3"/>
      <point x="111" y="101"/>
    </contour>
  </outline>
</glyph>
<glyph name="four" format="1">
  <advance width="683"/>
  <unicode hex="0034"/>
  <outline>
    <contour>
      <point x="577" y="268" type="line"/>
      <point x="586" y="268"/>
      <point x="593" y="275"/>
      <point x="593" y="284" type="curve" smooth="yes"/>
      <point x="593" y="293"/>
      <point x="586" y="300"/>
      <point x="577" y="300" type="curve" smooth="yes"/>
      <point x="96" y="300" type="line"/>
      <point x="112" y="280" type="line"/>
      <point x="357" y="1180" type="line"/>
      <point x="342" y="1168" type="line"/>
      <point x="587" y="1168" type="line"/>
      <point x="571" y="1184" type="line"/>
      <point x="571" y="16" type="line" smooth="yes"/>
      <point x="571" y="7"/>
      <point x="578" y="0"/>
      <point x="587" y="0" type="curve" smooth="yes"/>
      <point x="596" y="0"/>
      <point x="603" y="7"/>
      <point x="603" y="16" type="curve" smooth="yes"/>
      <point x="603" y="1184" type="line" smooth="yes"/>
      <point x="603" y="1193"/>
      <point x="596" y="1200"/>
      <point x="587" y="1200" type="curve" smooth="yes"/>
      <point x="342" y="1200" type="line" smooth="yes"/>
      <point x="335" y="1200"/>
      <point x="328" y="1194"/>
      <point x="326" y="1188" type="curve" smooth="yes"/>
      <point x="80" y="288" type="line" smooth="yes"/>
      <point x="78" y="277"/>
      <point x="85" y="268"/>
      <point x="96" y="268" type="curve" smooth="yes"/>
    </contour>
  </outline>
</glyph>
<glyph name="five" format="1">
  <advance width="683"/>
  <unicode hex="0035"/>
  <outline>
    <contour>
      <point x="112" y="236" type="curve" smooth="yes"/>
      <point x="112" y="245"/>
      <point x="105" y="252"/>
      <point x="96" y="252" type="curve" smooth="yes"/>
      <point x="87" y="252"/>
      <point x="80" y="245"/>
      <point x="80" y="236" type="curve" smooth="yes"/>
      <point x="80" y="92"/>
      <point x="197" y="-26"/>
      <point x="342" y="-26" type="curve" smooth="yes"/>
      <point x="485" y="-26"/>
      <point x="603" y="92"/>
      <point x="603" y="236" type="curve" smooth="yes"/>
      <point x="603" y="473" type="line" smooth="yes"/>
      <point x="603" y="618"/>
      <point x="485" y="735"/>
      <point x="342" y="735" type="curve" smooth="yes"/>
      <point x="97" y="735" type="line"/>
      <point x="113" y="719" type="line"/>
      <point x="112" y="1187" type="line"/>
      <point x="96" y="1171" type="line"/>
      <point x="588" y="1171" type="line" smooth="yes"/>
      <point x="597" y="1171"/>
      <point x="604" y="1178"/>
      <point x="604" y="1187" type="curve" smooth="yes"/>
      <point x="604" y="1196"/>
      <point x="597" y="1203"/>
      <point x="588" y="1203" type="curve" smooth="yes"/>
      <point x="96" y="1203" type="line" smooth="yes"/>
      <point x="87" y="1203"/>
      <point x="80" y="1196"/>
      <point x="80" y="1187" type="curve" smooth="yes"/>
      <point x="81" y="719" type="line" smooth="yes"/>
      <point x="81" y="710"/>
      <point x="88" y="703"/>
      <point x="97" y="703" type="curve" smooth="yes"/>
      <point x="342" y="703" type="line" smooth="yes"/>
      <point x="467" y="703"/>
      <point x="571" y="600"/>
      <point x="571" y="473" type="curve" smooth="yes"/>
      <point x="571" y="236" type="line" smooth="yes"/>
      <point x="571" y="110"/>
      <point x="467" y="6"/>
      <point x="342" y="6" type="curve" smooth="yes"/>
      <point x="215" y="6"/>
      <point x="112" y="110"/>
    </contour>
  </outline>
</glyph>
<glyph name="six" format="1">
  <advance width="683"/>
  <unicode hex="0036"/>
  <outline>
    <contour>
      <point x="571" y="967" type="curve" smooth="yes"/>
      <point x="571" y="958"/>
      <point x="578" y="951"/>
      <point x="587" y="951" type="curve" smooth="yes"/>
      <point x="596" y="951"/>
      <point x="603" y="958"/>
      <point x="603" y="967" type="curve" smooth="yes"/>
      <point x="603" y="1112"/>
      <point x="485" y="1229"/>
      <point x="342" y="1229" type="curve" smooth="yes"/>
      <point x="197" y="1229"/>
      <point x="80" y="1112"/>
      <point x="80" y="967" type="curve" smooth="yes"/>
      <point x="80" y="232" type="line" smooth="yes"/>
      <point x="80" y="89"/>
      <point x="197" y="-29"/>
      <point x="342" y="-29" type="curve" smooth="yes"/>
      <point x="485" y="-29"/>
      <point x="603" y="89"/>
      <point x="603" y="232" type="curve" smooth="yes"/>
      <point x="603" y="503" type="line" smooth="yes"/>
      <point x="603" y="647"/>
      <point x="485" y="764"/>
      <point x="342" y="764" type="curve" smooth="yes"/>
      <point x="212" y="764"/>
      <point x="105" y="669"/>
      <point x="84" y="546" type="curve" smooth="yes"/>
      <point x="83" y="538"/>
      <point x="88" y="529"/>
      <point x="97" y="527" type="curve" smooth="yes"/>
      <point x="105" y="526"/>
      <point x="114" y="531"/>
      <point x="116" y="540" type="curve" smooth="yes"/>
      <point x="133" y="649"/>
      <point x="228" y="732"/>
      <point x="342" y="732" type="curve" smooth="yes"/>
      <point x="467" y="732"/>
      <point x="571" y="629"/>
      <point x="571" y="503" type="curve" smooth="yes"/>
      <point x="571" y="232" type="line" smooth="yes"/>
      <point x="571" y="107"/>
      <point x="467" y="3"/>
      <point x="342" y="3" type="curve" smooth="yes"/>
      <point x="215" y="3"/>
      <point x="112" y="107"/>
      <point x="112" y="232" type="curve" smooth="yes"/>
      <point x="112" y="967" type="line" smooth="yes"/>
      <point x="112" y="1094"/>
      <point x="215" y="1197"/>
      <point x="342" y="1197" type="curve" smooth="yes"/>
      <point x="467" y="1197"/>
      <point x="571" y="1094"/>
    </contour>
  </outline>
</glyph>
<glyph name="seven" format="1">
  <advance width="683"/>
  <unicode hex="0037"/>
  <outline>
    <contour>
      <point x="96" y="1200" type="line"/>
      <point x="87" y="1200"/>
      <point x="80" y="1193"/>
      <point x="80" y="1184" type="curve" smooth="yes"/>
      <point x="80" y="1175"/>
      <point x="87" y="1168"/>
      <point x="96" y="1168" type="curve" smooth="yes"/>
      <point x="587" y="1168" type="line"/>
      <point x="571" y="1187" type="line"/>
      <point x="322" y="19" type="line" smooth="yes"/>
      <point x="320" y="11"/>
      <point x="326" y="2"/>
      <point x="334" y="0" type="curve" smooth="yes"/>
      <point x="343" y="-1"/>
      <point x="351" y="5"/>
      <point x="353" y="13" type="curve" smooth="yes"/>
      <point x="603" y="1181" type="line" smooth="yes"/>
      <point x="605" y="1192"/>
      <point x="598" y="1200"/>
      <point x="587" y="1200" type="curve" smooth="yes"/>
    </contour>
  </outline>
</glyph>
<glyph name="eight" format="1">
  <advance width="683"/>
  <unicode hex="0038"/>
  <outline>
    <contour>
      <point x="381" y="692" type="curve" smooth="yes"/>
      <point x="373" y="691"/>
      <point x="366" y="683"/>
      <point x="367" y="674" type="curve" smooth="yes"/>
      <point x="369" y="666"/>
      <point x="377" y="659"/>
      <point x="386" y="660" type="curve" smooth="yes"/>
      <point x="506" y="674"/>
      <point x="601" y="777"/>
      <point x="601" y="902" type="curve" smooth="yes"/>
      <point x="601" y="985" type="line" smooth="yes"/>
      <point x="601" y="1120"/>
      <point x="491" y="1229"/>
      <point x="357" y="1229" type="curve" smooth="yes"/>
      <point x="327" y="1229" type="line" smooth="yes"/>
      <point x="193" y="1229"/>
      <point x="84" y="1120"/>
      <point x="84" y="985" type="curve" smooth="yes"/>
      <point x="84" y="902" type="line" smooth="yes"/>
      <point x="84" y="767"/>
      <point x="193" y="658"/>
      <point x="327" y="658" type="curve" smooth="yes"/>
      <point x="357" y="658" type="line" smooth="yes"/>
      <point x="475" y="658"/>
      <point x="573" y="562"/>
      <point x="573" y="443" type="curve" smooth="yes"/>
      <point x="573" y="219" type="line" smooth="yes"/>
      <point x="573" y="101"/>
      <point x="475" y="3"/>
      <point x="357" y="3" type="curve" smooth="yes"/>
      <point x="327" y="3" type="line" smooth="yes"/>
      <point x="209" y="3"/>
      <point x="112" y="101"/>
      <point x="112" y="219" type="curve" smooth="yes"/>
      <point x="112" y="443" type="line" smooth="yes"/>
      <point x="112" y="555"/>
      <point x="197" y="647"/>
      <point x="305" y="657" type="curve" smooth="yes"/>
      <point x="314" y="658"/>
      <point x="321" y="666"/>
      <point x="320" y="674" type="curve" smooth="yes"/>
      <point x="319" y="683"/>
      <point x="311" y="690"/>
      <point x="303" y="689" type="curve" smooth="yes"/>
      <point x="177" y="677"/>
      <point x="80" y="571"/>
      <point x="80" y="443" type="curve" smooth="yes"/>
      <point x="80" y="219" type="line" smooth="yes"/>
      <point x="80" y="83"/>
      <point x="191" y="-29"/>
      <point x="327" y="-29" type="curve" smooth="yes"/>
      <point x="357" y="-29" type="line" smooth="yes"/>
      <point x="493" y="-29"/>
      <point x="605" y="83"/>
      <point x="605" y="219" type="curve" smooth="yes"/>
      <point x="605" y="443" type="line" smooth="yes"/>
      <point x="605" y="580"/>
      <point x="493" y="690"/>
      <point x="357" y="690" type="curve" smooth="yes"/>
      <point x="327" y="690" type="line" smooth="yes"/>
      <point x="211" y="690"/>
      <point x="116" y="785"/>
      <point x="116" y="902" type="curve" smooth="yes"/>
      <point x="116" y="985" type="line" smooth="yes"/>
      <point x="116" y="1102"/>
      <point x="211" y="1197"/>
      <point x="327" y="1197" type="curve" smooth="yes"/>
      <point x="357" y="1197" type="line" smooth="yes"/>
      <point x="473" y="1197"/>
      <point x="569" y="1102"/>
      <point x="569" y="985" type="curve" smooth="yes"/>
      <point x="569" y="902" type="line" smooth="yes"/>
      <point x="569" y="793"/>
      <point x="486" y="704"/>
    </contour>
  </outline>
</glyph>
<glyph name="nine" format="1">
  <advance width="683"/>
  <unicode hex="0039"/>
  <outline>
    <contour>
      <point x="112" y="233" type="curve" smooth="yes"/>
      <point x="112" y="242"/>
      <point x="105" y="249"/>
      <point x="96" y="249" type="curve" smooth="yes"/>
      <point x="87" y="249"/>
      <point x="80" y="242"/>
      <point x="80" y="233" type="curve" smooth="yes"/>
      <point x="80" y="88"/>
      <point x="198" y="-29"/>
      <point x="342" y="-29" type="curve" smooth="yes"/>
      <point x="486" y="-29"/>
      <point x="603" y="88"/>
      <point x="603" y="233" type="curve" smooth="yes"/>
      <point x="603" y="968" type="line" smooth="yes"/>
      <point x="603" y="1111"/>
      <point x="486" y="1229"/>
      <point x="342" y="1229" type="curve" smooth="yes"/>
      <point x="198" y="1229"/>
      <point x="80" y="1111"/>
      <point x="80" y="968" type="curve" smooth="yes"/>
      <point x="80" y="697" type="line" smooth="yes"/>
      <point x="80" y="553"/>
      <point x="198" y="436"/>
      <point x="342" y="436" type="curve" smooth="yes"/>
      <point x="471" y="436"/>
      <point x="578" y="531"/>
      <point x="600" y="654" type="curve" smooth="yes"/>
      <point x="601" y="662"/>
      <point x="595" y="671"/>
      <point x="586" y="673" type="curve" smooth="yes"/>
      <point x="578" y="674"/>
      <point x="569" y="669"/>
      <point x="568" y="660" type="curve" smooth="yes"/>
      <point x="550" y="551"/>
      <point x="455" y="468"/>
      <point x="342" y="468" type="curve" smooth="yes"/>
      <point x="216" y="468"/>
      <point x="112" y="571"/>
      <point x="112" y="697" type="curve" smooth="yes"/>
      <point x="112" y="968" type="line" smooth="yes"/>
      <point x="112" y="1093"/>
      <point x="216" y="1197"/>
      <point x="342" y="1197" type="curve" smooth="yes"/>
      <point x="468" y="1197"/>
      <point x="571" y="1093"/>
      <point x="571" y="968" type="curve" smooth="yes"/>
      <point x="571" y="233" type="line" smooth="yes"/>
      <point x="571" y="106"/>
      <point x="468" y="3"/>
      <point x="342" y="3" type="curve" smooth="yes"/>
      <point x="216" y="3"/>
      <point x="112" y="106"/>
    </contour>
  </outline>
</glyph>
<glyph name="less" format="1">
  <advance width="651.0"/>
  <unicode hex="003C"/>
  <outline>
    <contour>
      <point x="544" y="-9" type="line"/>
      <point x="550" y="-15"/>
      <point x="560" y="-15"/>
      <point x="566" y="-9" type="curve" smooth="yes"/>
      <point x="571" y="-2"/>
      <point x="571" y="8"/>
      <point x="565" y="13" type="curve" smooth="yes"/>
      <point x="103" y="437" type="line"/>
      <point x="103" y="415" type="line"/>
      <point x="563" y="837" type="line" smooth="yes"/>
      <point x="569" y="842"/>
      <point x="569" y="852"/>
      <point x="564" y="859" type="curve" smooth="yes"/>
      <point x="558" y="865"/>
      <point x="548" y="865"/>
      <point x="542" y="859" type="curve" smooth="yes"/>
      <point x="82" y="437" type="line" smooth="yes"/>
      <point x="74" y="431"/>
      <point x="74" y="421"/>
      <point x="82" y="415" type="curve" smooth="yes"/>
    </contour>
  </outline>
</glyph>
<glyph name="equal" format="1">
  <advance width="683"/>
  <unicode hex="003D"/>
  <outline>
    <contour>
      <point x="561" y="286" type="line"/>
      <point x="569" y="286"/>
      <point x="577" y="294"/>
      <point x="577" y="302" type="curve" smooth="yes"/>
      <point x="577" y="310"/>
      <point x="569" y="318"/>
      <point x="561" y="318" type="curve" smooth="yes"/>
      <point x="122" y="318" type="line" smooth="yes"/>
      <point x="114" y="318"/>
      <point x="106" y="310"/>
      <point x="106" y="302" type="curve" smooth="yes"/>
      <point x="106" y="294"/>
      <point x="114" y="286"/>
      <point x="122" y="286" type="curve" smooth="yes"/>
    </contour>
    <contour>
      <point x="561" y="526" type="line"/>
      <point x="569" y="526"/>
      <point x="577" y="534"/>
      <point x="577" y="542" type="curve" smooth="yes"/>
      <point x="577" y="550"/>
      <point x="569" y="558"/>
      <point x="561" y="558" type="curve" smooth="yes"/>
      <point x="122" y="558" type="line" smooth="yes"/>
      <point x="114" y="558"/>
      <point x="106" y="550"/>
      <point x="106" y="542" type="curve" smooth="yes"/>
      <point x="106" y="534"/>
      <point x="114" y="526"/>
      <point x="122" y="526" type="curve" smooth="yes"/>
    </contour>
  </outline>
</glyph>
<glyph name="greater" format="1">
  <advance width="651"/>
  <unicode hex="003E"/>
  <outline>
    <contour>
      <point x="109" y="859" type="line"/>
      <point x="103" y="865"/>
      <point x="93" y="865"/>
      <point x="87" y="859" type="curve" smooth="yes"/>
      <point x="82" y="852"/>
      <point x="82" y="842"/>
      <point x="88" y="837" type="curve" smooth="yes"/>
      <point x="548" y="415" type="line"/>
      <point x="548" y="437" type="line"/>
      <point x="86" y="13" type="line" smooth="yes"/>
      <point x="80" y="8"/>
      <point x="80" y="-2"/>
      <point x="85" y="-9" type="curve" smooth="yes"/>
      <point x="91" y="-15"/>
      <point x="101" y="-15"/>
      <point x="107" y="-9" type="curve" smooth="yes"/>
      <point x="569" y="415" type="line" smooth="yes"/>
      <point x="577" y="421"/>
      <point x="577" y="431"/>
      <point x="569" y="437" type="curve" smooth="yes"/>
    </contour>
  </outline>
</glyph>
<glyph name="question" format="1">
  <advance width="712"/>
  <unicode hex="003F"/>
  <outline>
    <contour>
      <point x="356" y="-4" type="curve" smooth="yes"/>
      <point x="368" y="-4"/>
      <point x="380" y="8"/>
      <point x="380" y="20" type="curve" smooth="yes"/>
      <point x="380" y="32"/>
      <point x="368" y="44"/>
      <point x="356" y="44" type="curve" smooth="yes"/>
      <point x="344" y="44"/>
      <point x="332" y="32"/>
      <point x="332" y="20" type="curve" smooth="yes"/>
      <point x="332" y="8"/>
      <point x="344" y="-4"/>
    </contour>
    <contour>
      <point x="340" y="263" type="line"/>
      <point x="340" y="254"/>
      <point x="347" y="247"/>
      <point x="356" y="247" type="curve" smooth="yes"/>
      <point x="365" y="247"/>
      <point x="372" y="254"/>
      <point x="372" y="263" type="curve" smooth="yes"/>
      <point x="372" y="570" type="line"/>
      <point x="356" y="554" type="line"/>
      <point x="508" y="554"/>
      <point x="632" y="678"/>
      <point x="632" y="830" type="curve" smooth="yes"/>
      <point x="632" y="956" type="line" smooth="yes"/>
      <point x="632" y="1108"/>
      <point x="508" y="1232"/>
      <point x="356" y="1232" type="curve" smooth="yes"/>
      <point x="204" y="1232"/>
      <point x="80" y="1108"/>
      <point x="80" y="956" type="curve" smooth="yes"/>
      <point x="80" y="947"/>
      <point x="87" y="940"/>
      <point x="96" y="940" type="curve" smooth="yes"/>
      <point x="105" y="940"/>
      <point x="112" y="947"/>
      <point x="112" y="956" type="curve" smooth="yes"/>
      <point x="112" y="1090"/>
      <point x="222" y="1200"/>
      <point x="356" y="1200" type="curve" smooth="yes"/>
      <point x="490" y="1200"/>
      <point x="600" y="1090"/>
      <point x="600" y="956" type="curve" smooth="yes"/>
      <point x="600" y="830" type="line" smooth="yes"/>
      <point x="600" y="696"/>
      <point x="490" y="586"/>
      <point x="356" y="586" type="curve" smooth="yes"/>
      <point x="347" y="586"/>
      <point x="340" y="579"/>
      <point x="340" y="570" type="curve" smooth="yes"/>
    </contour>
  </outline>
</glyph>
<glyph name="at" format="1">
  <advance width="755.0"/>
  <unicode hex="0040"/>
  <outline>
    <contour>
      <point x="579" y="479" type="curve" smooth="yes"/>
      <point x="579" y="488"/>
      <point x="572" y="495"/>
      <point x="563" y="495" type="curve" smooth="yes"/>
      <point x="554" y="495"/>
      <point x="547" y="488"/>
      <point x="547" y="479" type="curve" smooth="yes"/>
      <point x="547" y="389"/>
      <point x="472" y="313"/>
      <point x="381" y="313" type="curve" smooth="yes"/>
      <point x="290" y="313"/>
      <point x="215" y="389"/>
      <point x="215" y="479" type="curve" smooth="yes"/>
      <point x="215" y="598" type="line" smooth="yes"/>
      <point x="215" y="689"/>
      <point x="290" y="764"/>
      <point x="381" y="764" type="curve" smooth="yes"/>
      <point x="472" y="764"/>
      <point x="547" y="691"/>
      <point x="547" y="600" type="curve" smooth="yes"/>
      <point x="548" y="356" type="line"/>
      <point x="548" y="319"/>
      <point x="578" y="289"/>
      <point x="615" y="289" type="curve" smooth="yes"/>
      <point x="652" y="289"/>
      <point x="682" y="319"/>
      <point x="682" y="356" type="curve" smooth="yes"/>
      <point x="682" y="800" type="line" smooth="yes"/>
      <point x="682" y="966"/>
      <point x="547" y="1101"/>
      <point x="381" y="1101" type="curve" smooth="yes"/>
      <point x="215" y="1101"/>
      <point x="80" y="966"/>
      <point x="80" y="800" type="curve" smooth="yes"/>
      <point x="80" y="269" type="line" smooth="yes"/>
      <point x="80" y="103"/>
      <point x="215" y="-32"/>
      <point x="381" y="-32" type="curve" smooth="yes"/>
      <point x="481" y="-32"/>
      <point x="564" y="19"/>
      <point x="616" y="96" type="curve" smooth="yes"/>
      <point x="621" y="103"/>
      <point x="618" y="113"/>
      <point x="611" y="117" type="curve" smooth="yes"/>
      <point x="604" y="122"/>
      <point x="594" y="120"/>
      <point x="590" y="112" type="curve" smooth="yes"/>
      <point x="543" y="46"/>
      <point x="470" y="0"/>
      <point x="381" y="0" type="curve" smooth="yes"/>
      <point x="233" y="0"/>
      <point x="112" y="121"/>
      <point x="112" y="269" type="curve" smooth="yes"/>
      <point x="112" y="800" type="line" smooth="yes"/>
      <point x="112" y="948"/>
      <point x="233" y="1069"/>
      <point x="381" y="1069" type="curve" smooth="yes"/>
      <point x="529" y="1069"/>
      <point x="650" y="948"/>
      <point x="650" y="800" type="curve" smooth="yes"/>
      <point x="650" y="356" type="line" smooth="yes"/>
      <point x="650" y="337"/>
      <point x="634" y="321"/>
      <point x="615" y="321" type="curve" smooth="yes"/>
      <point x="596" y="321"/>
      <point x="580" y="337"/>
      <point x="580" y="356" type="curve" smooth="yes"/>
      <point x="579" y="600" type="line" smooth="yes"/>
      <point x="579" y="709"/>
      <point x="490" y="796"/>
      <point x="381" y="796" type="curve" smooth="yes"/>
      <point x="272" y="796"/>
      <point x="183" y="707"/>
      <point x="183" y="598" type="curve" smooth="yes"/>
      <point x="183" y="479" type="line" smooth="yes"/>
      <point x="183" y="371"/>
      <point x="272" y="281"/>
      <point x="381" y="281" type="curve" smooth="yes"/>
      <point x="490" y="281"/>
      <point x="579" y="371"/>
    </contour>
  </outline>
</glyph>
<glyph name="A" format="1">
  <advance width="740"/>
  <unicode hex="0041"/>
  <outline>
    <contour>
      <point x="144" y="300" type="line"/>
      <point x="135" y="300"/>
      <point x="128" y="293"/>
      <point x="128" y="284" type="curve" smooth="yes"/>
      <point x="128" y="275"/>
      <point x="135" y="268"/>
      <point x="144" y="268" type="curve" smooth="yes"/>
      <point x="596" y="268" type="line" smooth="yes"/>
      <point x="605" y="268"/>
      <point x="612" y="275"/>
      <point x="612" y="284" type="curve" smooth="yes"/>
      <point x="612" y="293"/>
      <point x="605" y="300"/>
      <point x="596" y="300" type="curve" smooth="yes"/>
    </contour>
    <contour>
      <point x="636" y="13" type="line"/>
      <point x="638" y="5"/>
      <point x="647" y="-1"/>
      <point x="655" y="0" type="curve" smooth="yes"/>
      <point x="664" y="2"/>
      <point x="669" y="10"/>
      <point x="668" y="19" type="curve" smooth="yes"/>
      <point x="435" y="1203" type="line" smooth="yes"/>
      <point x="433" y="1210"/>
      <point x="426" y="1216"/>
      <point x="419" y="1216" type="curve" smooth="yes"/>
      <point x="321" y="1216" type="line" smooth="yes"/>
      <point x="314" y="1216"/>
      <point x="307" y="1210"/>
      <point x="305" y="1203" type="curve" smooth="yes"/>
      <point x="72" y="19" type="line" smooth="yes"/>
      <point x="71" y="10"/>
      <point x="77" y="2"/>
      <point x="85" y="0" type="curve" smooth="yes"/>
      <point x="94" y="-1"/>
      <point x="102" y="5"/>
      <point x="104" y="13" type="curve" smooth="yes"/>
      <point x="337" y="1197" type="line"/>
      <point x="321" y="1184" type="line"/>
      <point x="419" y="1184" type="line"/>
      <point x="403" y="1197" type="line"/>
    </contour>
  </outline>
</glyph>
<glyph name="C" format="1">
  <advance width="762"/>
  <unicode hex="0043"/>
  <outline>
    <contour>
      <point x="381" y="-32" type="curve" smooth="yes"/>
      <point x="516" y="-32"/>
      <point x="629" y="64"/>
      <point x="650" y="189" type="curve" smooth="yes"/>
      <point x="652" y="196"/>
      <point x="645" y="205"/>
      <point x="637" y="206" type="curve" smooth="yes"/>
      <point x="630" y="207"/>
      <point x="621" y="201"/>
      <point x="620" y="193" type="curve" smooth="yes"/>
      <point x="600" y="84"/>
      <point x="500" y="0"/>
      <point x="381" y="0" type="curve" smooth="yes"/>
      <point x="233" y="0"/>
      <point x="112" y="121"/>
      <point x="112" y="269" type="curve" smooth="yes"/>
      <point x="112" y="928" type="line" smooth="yes"/>
      <point x="112" y="1076"/>
      <point x="233" y="1197"/>
      <point x="381" y="1197" type="curve" smooth="yes"/>
      <point x="500" y="1197"/>
      <point x="599" y="1113"/>
      <point x="620" y="1004" type="curve" smooth="yes"/>
      <point x="621" y="996"/>
      <point x="629" y="990"/>
      <point x="637" y="991" type="curve" smooth="yes"/>
      <point x="645" y="992"/>
      <point x="651" y="1001"/>
      <point x="650" y="1008" type="curve" smooth="yes"/>
      <point x="629" y="1133"/>
      <point x="516" y="1229"/>
      <point x="381" y="1229" type="curve" smooth="yes"/>
      <point x="215" y="1229"/>
      <point x="80" y="1094"/>
      <point x="80" y="928" type="curve" smooth="yes"/>
      <point x="80" y="269" type="line" smooth="yes"/>
      <point x="80" y="103"/>
      <point x="215" y="-32"/>
    </contour>
  </outline>
</glyph>
<glyph name="D" format="1">
  <advance width="762"/>
  <unicode hex="0044"/>
  <outline>
    <contour>
      <point x="682" y="899" type="line"/>
      <point x="682" y="1065"/>
      <point x="547" y="1200"/>
      <point x="381" y="1200" type="curve" smooth="yes"/>
      <point x="96" y="1200" type="line" smooth="yes"/>
      <point x="87" y="1200"/>
      <point x="80" y="1193"/>
      <point x="80" y="1184" type="curve" smooth="yes"/>
      <point x="80" y="13" type="line" smooth="yes"/>
      <point x="80" y="4"/>
      <point x="87" y="-3"/>
      <point x="96" y="-3" type="curve" smooth="yes"/>
      <point x="381" y="-3" type="line" smooth="yes"/>
      <point x="547" y="-3"/>
      <point x="682" y="132"/>
      <point x="682" y="298" type="curve" smooth="yes"/>
    </contour>
    <contour>
      <point x="650" y="899" type="curve" smooth="yes"/>
      <point x="650" y="298" type="line" smooth="yes"/>
      <point x="650" y="150"/>
      <point x="529" y="29"/>
      <point x="381" y="29" type="curve" smooth="yes"/>
      <point x="96" y="29" type="line"/>
      <point x="112" y="13" type="line"/>
      <point x="112" y="1184" type="line"/>
      <point x="96" y="1168" type="line"/>
      <point x="381" y="1168" type="line" smooth="yes"/>
      <point x="529" y="1168"/>
      <point x="650" y="1047"/>
    </contour>
  </outline>
</glyph>
<glyph name="F" format="1">
  <advance width="774"/>
  <unicode hex="0046"/>
  <outline>
    <contour>
      <point x="80" y="16" type="line"/>
      <point x="80" y="7"/>
      <point x="87" y="0"/>
      <point x="96" y="0" type="curve" smooth="yes"/>
      <point x="105" y="0"/>
      <point x="112" y="7"/>
      <point x="112" y="16" type="curve" smooth="yes"/>
      <point x="112" y="1184" type="line"/>
      <point x="96" y="1168" type="line"/>
      <point x="678" y="1168" type="line" smooth="yes"/>
      <point x="687" y="1168"/>
      <point x="694" y="1175"/>
      <point x="694" y="1184" type="curve" smooth="yes"/>
      <point x="694" y="1193"/>
      <point x="687" y="1200"/>
      <point x="678" y="1200" type="curve" smooth="yes"/>
      <point x="96" y="1200" type="line" smooth="yes"/>
      <point x="87" y="1200"/>
      <point x="80" y="1193"/>
      <point x="80" y="1184" type="curve" smooth="yes"/>
    </contour>
    <contour>
      <point x="97" y="563" type="line"/>
      <point x="88" y="563"/>
      <point x="81" y="556"/>
      <point x="81" y="547" type="curve" smooth="yes"/>
      <point x="81" y="538"/>
      <point x="88" y="531"/>
      <point x="97" y="531" type="curve" smooth="yes"/>
      <point x="387" y="531" type="line" smooth="yes"/>
      <point x="396" y="531"/>
      <point x="403" y="538"/>
      <point x="403" y="547" type="curve" smooth="yes"/>
      <point x="403" y="556"/>
      <point x="396" y="563"/>
      <point x="387" y="563" type="curve" smooth="yes"/>
    </contour>
  </outline>
</glyph>
<glyph name="G" format="1">
  <advance width="762"/>
  <unicode hex="0047"/>
  <outline>
    <contour>
      <point x="464" y="433" type="line"/>
      <point x="455" y="433"/>
      <point x="448" y="426"/>
      <point x="448" y="417" type="curve" smooth="yes"/>
      <point x="448" y="408"/>
      <point x="455" y="401"/>
      <point x="464" y="401" type="curve" smooth="yes"/>
      <point x="666" y="401" type="line"/>
      <point x="650" y="417" type="line"/>
      <point x="650" y="269" type="line" smooth="yes"/>
      <point x="650" y="121"/>
      <point x="529" y="0"/>
      <point x="381" y="0" type="curve" smooth="yes"/>
      <point x="233" y="0"/>
      <point x="112" y="121"/>
      <point x="112" y="269" type="curve" smooth="yes"/>
      <point x="112" y="928" type="line" smooth="yes"/>
      <point x="112" y="1076"/>
      <point x="233" y="1197"/>
      <point x="381" y="1197" type="curve" smooth="yes"/>
      <point x="500" y="1197"/>
      <point x="599" y="1113"/>
      <point x="620" y="1004" type="curve" smooth="yes"/>
      <point x="621" y="996"/>
      <point x="629" y="990"/>
      <point x="637" y="991" type="curve" smooth="yes"/>
      <point x="646" y="992"/>
      <point x="651" y="1000"/>
      <point x="650" y="1008" type="curve" smooth="yes"/>
      <point x="629" y="1133"/>
      <point x="516" y="1229"/>
      <point x="381" y="1229" type="curve" smooth="yes"/>
      <point x="215" y="1229"/>
      <point x="80" y="1094"/>
      <point x="80" y="928" type="curve" smooth="yes"/>
      <point x="80" y="269" type="line" smooth="yes"/>
      <point x="80" y="103"/>
      <point x="215" y="-32"/>
      <point x="381" y="-32" type="curve" smooth="yes"/>
      <point x="547" y="-32"/>
      <point x="682" y="103"/>
      <point x="682" y="269" type="curve" smooth="yes"/>
      <point x="682" y="417" type="line" smooth="yes"/>
      <point x="682" y="426"/>
      <point x="675" y="433"/>
      <point x="666" y="433" type="curve" smooth="yes"/>
    </contour>
  </outline>
</glyph>
<glyph name="I" format="1">
  <advance width="244.0"/>
  <unicode hex="0049"/>
  <outline>
    <contour>
      <point x="122" y="0" type="curve" smooth="yes"/>
      <point x="130" y="0"/>
      <point x="138" y="8"/>
      <point x="138" y="16" type="curve" smooth="yes"/>
      <point x="138" y="1184" type="line" smooth="yes"/>
      <point x="138" y="1192"/>
      <point x="130" y="1200"/>
      <point x="122" y="1200" type="curve" smooth="yes"/>
      <point x="114" y="1200"/>
      <point x="106" y="1192"/>
      <point x="106" y="1184" type="curve" smooth="yes"/>
      <point x="106" y="16" type="line" smooth="yes"/>
      <point x="106" y="8"/>
      <point x="114" y="0"/>
    </contour>
  </outline>
</glyph>
<glyph name="K" format="1">
  <advance width="835"/>
  <unicode hex="004B"/>
  <note>
  </note>
  <outline>
    <contour>
      <point x="80" y="16" type="line"/>
      <point x="80" y="7"/>
      <point x="87" y="0"/>
      <point x="96" y="0" type="curve" smooth="yes"/>
      <point x="105" y="0"/>
      <point x="112" y="7"/>
      <point x="112" y="16" type="curve" smooth="yes"/>
      <point x="112" y="1184" type="line" smooth="yes"/>
      <point x="112" y="1193"/>
      <point x="105" y="1200"/>
      <point x="96" y="1200" type="curve" smooth="yes"/>
      <point x="87" y="1200"/>
      <point x="80" y="1193"/>
      <point x="80" y="1184" type="curve" smooth="yes"/>
    </contour>
    <contour>
      <point x="726" y="5" type="line"/>
      <point x="731" y="0"/>
      <point x="742" y="-2"/>
      <point x="748" y="4" type="curve" smooth="yes"/>
      <point x="754" y="9"/>
      <point x="755" y="20"/>
      <point x="750" y="27" type="curve" smooth="yes"/>
      <point x="159" y="673" type="line" smooth="yes"/>
      <point x="154" y="679"/>
      <point x="143" y="680"/>
      <point x="137" y="674" type="curve" smooth="yes"/>
      <point x="131" y="669"/>
      <point x="130" y="658"/>
      <point x="135" y="651" type="curve" smooth="yes"/>
    </contour>
    <contour>
      <point x="748" y="1172" type="line"/>
      <point x="754" y="1178"/>
      <point x="755" y="1188"/>
      <point x="749" y="1194" type="curve" smooth="yes"/>
      <point x="744" y="1201"/>
      <point x="734" y="1201"/>
      <point x="727" y="1196" type="curve" smooth="yes"/>
      <point x="90" y="647" type="line" smooth="yes"/>
      <point x="84" y="642"/>
      <point x="84" y="632"/>
      <point x="89" y="625" type="curve" smooth="yes"/>
      <point x="95" y="619"/>
      <point x="105" y="619"/>
      <point x="111" y="624" type="curve" smooth="yes"/>
    </contour>
  </outline>
</glyph>
<glyph name="L" format="1">
  <advance width="758"/>
  <unicode hex="004C"/>
  <outline>
    <contour>
      <point x="112" y="1184" type="line"/>
      <point x="112" y="1193"/>
      <point x="105" y="1200"/>
      <point x="96" y="1200" type="curve" smooth="yes"/>
      <point x="87" y="1200"/>
      <point x="80" y="1193"/>
      <point x="80" y="1184" type="curve" smooth="yes"/>
      <point x="80" y="16" type="line" smooth="yes"/>
      <point x="80" y="7"/>
      <point x="87" y="0"/>
      <point x="96" y="0" type="curve" smooth="yes"/>
      <point x="662" y="0" type="line" smooth="yes"/>
      <point x="671" y="0"/>
      <point x="678" y="7"/>
      <point x="678" y="16" type="curve" smooth="yes"/>
      <point x="678" y="25"/>
      <point x="671" y="32"/>
      <point x="662" y="32" type="curve" smooth="yes"/>
      <point x="96" y="32" type="line"/>
      <point x="112" y="16" type="line"/>
    </contour>
  </outline>
</glyph>
<glyph name="M" format="1">
  <advance width="762"/>
  <unicode hex="004D"/>
  <outline>
    <contour>
      <point x="80" y="16" type="line"/>
      <point x="80" y="7"/>
      <point x="87" y="0"/>
      <point x="96" y="0" type="curve" smooth="yes"/>
      <point x="105" y="0"/>
      <point x="112" y="7"/>
      <point x="112" y="16" type="curve" smooth="yes"/>
      <point x="112" y="1200" type="line"/>
      <point x="82" y="1193" type="line"/>
      <point x="367" y="640" type="line" smooth="yes"/>
      <point x="373" y="627"/>
      <point x="389" y="627"/>
      <point x="395" y="640" type="curve" smooth="yes"/>
      <point x="680" y="1193" type="line"/>
      <point x="650" y="1200" type="line"/>
      <point x="650" y="16" type="line" smooth="yes"/>
      <point x="650" y="7"/>
      <point x="657" y="0"/>
      <point x="666" y="0" type="curve" smooth="yes"/>
      <point x="675" y="0"/>
      <point x="682" y="7"/>
      <point x="682" y="16" type="curve" smooth="yes"/>
      <point x="682" y="1200" type="line" smooth="yes"/>
      <point x="682" y="1218"/>
      <point x="659" y="1223"/>
      <point x="651" y="1207" type="curve" smooth="yes"/>
      <point x="367" y="654" type="line"/>
      <point x="395" y="654" type="line"/>
      <point x="110" y="1207" type="line" smooth="yes"/>
      <point x="102" y="1223"/>
      <point x="80" y="1218"/>
      <point x="80" y="1200" type="curve" smooth="yes"/>
    </contour>
  </outline>
</glyph>
<glyph name="N" format="1">
  <advance width="774"/>
  <unicode hex="004E"/>
  <outline>
    <contour>
      <point x="80" y="16" type="line"/>
      <point x="80" y="7"/>
      <point x="87" y="0"/>
      <point x="96" y="0" type="curve" smooth="yes"/>
      <point x="105" y="0"/>
      <point x="112" y="7"/>
      <point x="112" y="16" type="curve" smooth="yes"/>
      <point x="112" y="1184" type="line"/>
      <point x="82" y="1177" type="line"/>
      <point x="664" y="9" type="line" smooth="yes"/>
      <point x="672" y="-7"/>
      <point x="694" y="-2"/>
      <point x="694" y="16" type="curve" smooth="yes"/>
      <point x="694" y="1184" type="line" smooth="yes"/>
      <point x="694" y="1193"/>
      <point x="687" y="1200"/>
      <point x="678" y="1200" type="curve" smooth="yes"/>
      <point x="669" y="1200"/>
      <point x="662" y="1193"/>
      <point x="662" y="1184" type="curve" smooth="yes"/>
      <point x="662" y="16" type="line"/>
      <point x="693" y="23" type="line"/>
      <point x="110" y="1191" type="line" smooth="yes"/>
      <point x="102" y="1207"/>
      <point x="80" y="1202"/>
      <point x="80" y="1184" type="curve" smooth="yes"/>
    </contour>
  </outline>
</glyph>
<glyph name="O" format="1">
  <advance width="762"/>
  <unicode hex="004F"/>
  <outline>
    <contour>
      <point x="381" y="-32" type="curve" smooth="yes"/>
      <point x="547" y="-32"/>
      <point x="682" y="103"/>
      <point x="682" y="269" type="curve" smooth="yes"/>
      <point x="682" y="928" type="line" smooth="yes"/>
      <point x="682" y="1094"/>
      <point x="547" y="1229"/>
      <point x="381" y="1229" type="curve" smooth="yes"/>
      <point x="215" y="1229"/>
      <point x="80" y="1094"/>
      <point x="80" y="928" type="curve" smooth="yes"/>
      <point x="80" y="269" type="line" smooth="yes"/>
      <point x="80" y="103"/>
      <point x="215" y="-32"/>
    </contour>
    <contour>
      <point x="381" y="1197" type="curve" smooth="yes"/>
      <point x="529" y="1197"/>
      <point x="650" y="1076"/>
      <point x="650" y="928" type="curve" smooth="yes"/>
      <point x="650" y="269" type="line" smooth="yes"/>
      <point x="650" y="121"/>
      <point x="529" y="0"/>
      <point x="381" y="0" type="curve" smooth="yes"/>
      <point x="233" y="0"/>
      <point x="112" y="121"/>
      <point x="112" y="269" type="curve" smooth="yes"/>
      <point x="112" y="928" type="line" smooth="yes"/>
      <point x="112" y="1076"/>
      <point x="233" y="1197"/>
    </contour>
  </outline>
</glyph>
<glyph name="P" format="1">
  <advance width="814"/>
  <unicode hex="0050"/>
  <outline>
    <contour>
      <point x="80" y="16" type="line"/>
      <point x="80" y="7"/>
      <point x="87" y="0"/>
      <point x="96" y="0" type="curve" smooth="yes"/>
      <point x="105" y="0"/>
      <point x="112" y="7"/>
      <point x="112" y="16" type="curve" smooth="yes"/>
      <point x="112" y="1184" type="line"/>
      <point x="96" y="1168" type="line"/>
      <point x="392" y="1168" type="line" smooth="yes"/>
      <point x="574" y="1168"/>
      <point x="710" y="1010"/>
      <point x="710" y="828" type="curve" smooth="yes"/>
      <point x="710" y="647"/>
      <point x="574" y="510"/>
      <point x="392" y="510" type="curve" smooth="yes"/>
      <point x="109" y="510" type="line" smooth="yes"/>
      <point x="100" y="510"/>
      <point x="93" y="503"/>
      <point x="93" y="494" type="curve" smooth="yes"/>
      <point x="93" y="485"/>
      <point x="100" y="478"/>
      <point x="109" y="478" type="curve" smooth="yes"/>
      <point x="392" y="478" type="line" smooth="yes"/>
      <point x="592" y="478"/>
      <point x="742" y="629"/>
      <point x="742" y="828" type="curve" smooth="yes"/>
      <point x="742" y="1028"/>
      <point x="591" y="1200"/>
      <point x="392" y="1200" type="curve" smooth="yes"/>
      <point x="96" y="1200" type="line" smooth="yes"/>
      <point x="87" y="1200"/>
      <point x="80" y="1193"/>
      <point x="80" y="1184" type="curve" smooth="yes"/>
    </contour>
  </outline>
</glyph>
<glyph name="Q" format="1">
  <advance width="763"/>
  <unicode hex="0051"/>
  <outline>
    <contour>
      <point x="682" y="928" type="line"/>
      <point x="682" y="1094"/>
      <point x="547" y="1229"/>
      <point x="381" y="1229" type="curve" smooth="yes"/>
      <point x="215" y="1229"/>
      <point x="80" y="1094"/>
      <point x="80" y="928" type="curve" smooth="yes"/>
      <point x="80" y="269" type="line" smooth="yes"/>
      <point x="80" y="103"/>
      <point x="215" y="-32"/>
      <point x="381" y="-32" type="curve" smooth="yes"/>
      <point x="547" y="-32"/>
      <point x="682" y="103"/>
      <point x="682" y="269" type="curve" smooth="yes"/>
    </contour>
    <contour>
      <point x="650" y="928" type="curve" smooth="yes"/>
      <point x="650" y="269" type="line" smooth="yes"/>
      <point x="650" y="121"/>
      <point x="529" y="0"/>
      <point x="381" y="0" type="curve" smooth="yes"/>
      <point x="233" y="0"/>
      <point x="112" y="121"/>
      <point x="112" y="269" type="curve" smooth="yes"/>
      <point x="112" y="928" type="line" smooth="yes"/>
      <point x="112" y="1076"/>
      <point x="233" y="1197"/>
      <point x="381" y="1197" type="curve" smooth="yes"/>
      <point x="529" y="1197"/>
      <point x="650" y="1076"/>
    </contour>
    <contour>
      <point x="509" y="173" type="line"/>
      <point x="503" y="179"/>
      <point x="493" y="179"/>
      <point x="487" y="173" type="curve" smooth="yes"/>
      <point x="481" y="167"/>
      <point x="481" y="157"/>
      <point x="487" y="151" type="curve" smooth="yes"/>
      <point x="663" y="-25" type="line" smooth="yes"/>
      <point x="669" y="-31"/>
      <point x="679" y="-31"/>
      <point x="685" y="-25" type="curve" smooth="yes"/>
      <point x="691" y="-19"/>
      <point x="691" y="-9"/>
      <point x="685" y="-3" type="curve" smooth="yes"/>
    </contour>
  </outline>
</glyph>
<glyph name="R" format="1">
  <advance width="818"/>
  <unicode hex="0052"/>
  <outline>
    <contour>
      <point x="80" y="16" type="line"/>
      <point x="80" y="7"/>
      <point x="87" y="0"/>
      <point x="96" y="0" type="curve" smooth="yes"/>
      <point x="105" y="0"/>
      <point x="112" y="7"/>
      <point x="112" y="16" type="curve" smooth="yes"/>
      <point x="112" y="1184" type="line"/>
      <point x="96" y="1168" type="line"/>
      <point x="392" y="1168" type="line" smooth="yes"/>
      <point x="574" y="1168"/>
      <point x="710" y="1010"/>
      <point x="710" y="828" type="curve" smooth="yes"/>
      <point x="710" y="647"/>
      <point x="574" y="510"/>
      <point x="392" y="510" type="curve" smooth="yes"/>
      <point x="109" y="510" type="line" smooth="yes"/>
      <point x="100" y="510"/>
      <point x="93" y="503"/>
      <point x="93" y="494" type="curve" smooth="yes"/>
      <point x="93" y="485"/>
      <point x="100" y="478"/>
      <point x="109" y="478" type="curve" smooth="yes"/>
      <point x="392" y="478" type="line" smooth="yes"/>
      <point x="592" y="478"/>
      <point x="742" y="629"/>
      <point x="742" y="828" type="curve" smooth="yes"/>
      <point x="742" y="1028"/>
      <point x="591" y="1200"/>
      <point x="392" y="1200" type="curve" smooth="yes"/>
      <point x="96" y="1200" type="line" smooth="yes"/>
      <point x="87" y="1200"/>
      <point x="80" y="1193"/>
      <point x="80" y="1184" type="curve" smooth="yes"/>
    </contour>
    <contour>
      <point x="679" y="7" type="line"/>
      <point x="684" y="1"/>
      <point x="695" y="-2"/>
      <point x="701" y="2" type="curve" smooth="yes"/>
      <point x="708" y="7"/>
      <point x="711" y="18"/>
      <point x="706" y="25" type="curve" smooth="yes"/>
      <point x="415" y="495" type="line" smooth="yes"/>
      <point x="411" y="501"/>
      <point x="400" y="504"/>
      <point x="393" y="500" type="curve" smooth="yes"/>
      <point x="386" y="495"/>
      <point x="384" y="484"/>
      <point x="388" y="477" type="curve" smooth="yes"/>
    </contour>
  </outline>
</glyph>
<glyph name="S" format="1">
  <advance width="735.0"/>
  <unicode hex="0053"/>
  <outline>
    <contour>
      <point x="604" y="993" type="curve" smooth="yes"/>
      <point x="604" y="984"/>
      <point x="611" y="977"/>
      <point x="620" y="977" type="curve" smooth="yes"/>
      <point x="629" y="977"/>
      <point x="636" y="984"/>
      <point x="636" y="993" type="curve" smooth="yes"/>
      <point x="636" y="1125"/>
      <point x="529" y="1232"/>
      <point x="396" y="1232" type="curve" smooth="yes"/>
      <point x="341" y="1232" type="line" smooth="yes"/>
      <point x="209" y="1232"/>
      <point x="101" y="1125"/>
      <point x="101" y="993" type="curve" smooth="yes"/>
      <point x="101" y="900" type="line" smooth="yes"/>
      <point x="101" y="768"/>
      <point x="209" y="661"/>
      <point x="341" y="661" type="curve" smooth="yes"/>
      <point x="402" y="661" type="line" smooth="yes"/>
      <point x="524" y="661"/>
      <point x="625" y="561"/>
      <point x="625" y="438" type="curve" smooth="yes"/>
      <point x="625" y="223" type="line" smooth="yes"/>
      <point x="625" y="100"/>
      <point x="524" y="0"/>
      <point x="402" y="0" type="curve" smooth="yes"/>
      <point x="335" y="0" type="line" smooth="yes"/>
      <point x="212" y="0"/>
      <point x="112" y="100"/>
      <point x="112" y="223" type="curve" smooth="yes"/>
      <point x="112" y="232"/>
      <point x="105" y="239"/>
      <point x="96" y="239" type="curve" smooth="yes"/>
      <point x="87" y="239"/>
      <point x="80" y="232"/>
      <point x="80" y="223" type="curve" smooth="yes"/>
      <point x="80" y="82"/>
      <point x="194" y="-32"/>
      <point x="335" y="-32" type="curve" smooth="yes"/>
      <point x="402" y="-32" type="line" smooth="yes"/>
      <point x="542" y="-32"/>
      <point x="657" y="82"/>
      <point x="657" y="223" type="curve" smooth="yes"/>
      <point x="657" y="438" type="line" smooth="yes"/>
      <point x="657" y="579"/>
      <point x="542" y="693"/>
      <point x="402" y="693" type="curve" smooth="yes"/>
      <point x="341" y="693" type="line" smooth="yes"/>
      <point x="227" y="693"/>
      <point x="133" y="786"/>
      <point x="133" y="900" type="curve" smooth="yes"/>
      <point x="133" y="993" type="line" smooth="yes"/>
      <point x="133" y="1107"/>
      <point x="227" y="1200"/>
      <point x="341" y="1200" type="curve" smooth="yes"/>
      <point x="396" y="1200" type="line" smooth="yes"/>
      <point x="511" y="1200"/>
      <point x="604" y="1107"/>
    </contour>
  </outline>
</glyph>
<glyph name="T" format="1">
  <advance width="758"/>
  <unicode hex="0054"/>
  <outline>
    <contour>
      <point x="94" y="1200" type="curve" smooth="yes"/>
      <point x="664" y="1200" type="line" smooth="yes"/>
      <point x="673" y="1200"/>
      <point x="680" y="1193"/>
      <point x="680" y="1184" type="curve" smooth="yes"/>
      <point x="680" y="1175"/>
      <point x="673" y="1168"/>
      <point x="664" y="1168" type="curve" smooth="yes"/>
      <point x="94" y="1168" type="line" smooth="yes"/>
      <point x="85" y="1168"/>
      <point x="78" y="1175"/>
      <point x="78" y="1184" type="curve" smooth="yes"/>
      <point x="78" y="1193"/>
      <point x="85" y="1200"/>
    </contour>
    <contour>
      <point x="395" y="1174" type="curve" smooth="yes"/>
      <point x="395" y="16" type="line" smooth="yes"/>
      <point x="395" y="7"/>
      <point x="388" y="0"/>
      <point x="379" y="0" type="curve" smooth="yes"/>
      <point x="370" y="0"/>
      <point x="363" y="7"/>
      <point x="363" y="16" type="curve" smooth="yes"/>
      <point x="363" y="1174" type="line" smooth="yes"/>
      <point x="363" y="1183"/>
      <point x="370" y="1190"/>
      <point x="379" y="1190" type="curve" smooth="yes"/>
      <point x="388" y="1190"/>
      <point x="395" y="1183"/>
    </contour>
  </outline>
</glyph>
<glyph name="V" format="1">
  <advance width="762"/>
  <unicode hex="0056"/>
  <outline>
    <contour>
      <point x="110" y="1188" type="line"/>
      <point x="108" y="1196"/>
      <point x="99" y="1201"/>
      <point x="91" y="1200" type="curve" smooth="yes"/>
      <point x="83" y="1197"/>
      <point x="77" y="1189"/>
      <point x="79" y="1180" type="curve" smooth="yes"/>
      <point x="364" y="-20" type="line" smooth="yes"/>
      <point x="368" y="-37"/>
      <point x="390" y="-37"/>
      <point x="395" y="-20" type="curve" smooth="yes"/>
      <point x="680" y="1180" type="line" smooth="yes"/>
      <point x="681" y="1189"/>
      <point x="676" y="1197"/>
      <point x="668" y="1200" type="curve" smooth="yes"/>
      <point x="659" y="1201"/>
      <point x="651" y="1196"/>
      <point x="648" y="1188" type="curve" smooth="yes"/>
      <point x="364" y="-13" type="line"/>
      <point x="395" y="-13" type="line"/>
    </contour>
  </outline>
</glyph>
<glyph name="W" format="1">
  <advance width="812"/>
  <unicode hex="0057"/>
  <outline>
    <contour>
      <point x="741" y="1182" type="line"/>
      <point x="742" y="1191"/>
      <point x="735" y="1199"/>
      <point x="727" y="1200" type="curve" smooth="yes"/>
      <point x="718" y="1200"/>
      <point x="710" y="1194"/>
      <point x="710" y="1186" type="curve" smooth="yes"/>
      <point x="591" y="2" type="line"/>
      <point x="622" y="5" type="line"/>
      <point x="421" y="654" type="line" smooth="yes"/>
      <point x="416" y="670"/>
      <point x="396" y="670"/>
      <point x="391" y="654" type="curve" smooth="yes"/>
      <point x="190" y="5" type="line"/>
      <point x="221" y="2" type="line"/>
      <point x="102" y="1186" type="line" smooth="yes"/>
      <point x="102" y="1194"/>
      <point x="94" y="1200"/>
      <point x="85" y="1200" type="curve" smooth="yes"/>
      <point x="77" y="1199"/>
      <point x="70" y="1191"/>
      <point x="71" y="1182" type="curve" smooth="yes"/>
      <point x="189" y="-2" type="line" smooth="yes"/>
      <point x="191" y="-20"/>
      <point x="215" y="-23"/>
      <point x="220" y="-5" type="curve" smooth="yes"/>
      <point x="421" y="644" type="line"/>
      <point x="391" y="644" type="line"/>
      <point x="592" y="-5" type="line" smooth="yes"/>
      <point x="597" y="-23"/>
      <point x="621" y="-20"/>
      <point x="623" y="-2" type="curve" smooth="yes"/>
    </contour>
  </outline>
</glyph>
<glyph name="X" format="1">
  <advance width="760.0"/>
  <unicode hex="0058"/>
  <outline>
    <contour>
      <point x="82" y="22" type="line"/>
      <point x="78" y="15"/>
      <point x="82" y="5"/>
      <point x="90" y="2" type="curve" smooth="yes"/>
      <point x="98" y="-2"/>
      <point x="107" y="1"/>
      <point x="110" y="10" type="curve" smooth="yes"/>
      <point x="677" y="1178" type="line" smooth="yes"/>
      <point x="680" y="1185"/>
      <point x="677" y="1195"/>
      <point x="669" y="1198" type="curve" smooth="yes"/>
      <point x="661" y="1202"/>
      <point x="652" y="1199"/>
      <point x="648" y="1190" type="curve" smooth="yes"/>
    </contour>
    <contour>
      <point x="648" y="10" type="line"/>
      <point x="652" y="1"/>
      <point x="661" y="-2"/>
      <point x="669" y="2" type="curve" smooth="yes"/>
      <point x="677" y="5"/>
      <point x="680" y="15"/>
      <point x="677" y="22" type="curve" smooth="yes"/>
      <point x="110" y="1190" type="line" smooth="yes"/>
      <point x="107" y="1199"/>
      <point x="98" y="1202"/>
      <point x="90" y="1198" type="curve" smooth="yes"/>
      <point x="82" y="1195"/>
      <point x="78" y="1185"/>
      <point x="82" y="1178" type="curve" smooth="yes"/>
    </contour>
  </outline>
</glyph>
<glyph name="Y" format="1">
  <advance width="739"/>
  <unicode hex="0059"/>
  <outline>
    <contour>
      <point x="665" y="1179" type="curve" smooth="yes"/>
      <point x="381" y="342" type="line" smooth="yes"/>
      <point x="376" y="327"/>
      <point x="356" y="327"/>
      <point x="351" y="342" type="curve" smooth="yes"/>
      <point x="71" y="1179" type="line" smooth="yes"/>
      <point x="69" y="1187"/>
      <point x="73" y="1196"/>
      <point x="81" y="1199" type="curve" smooth="yes"/>
      <point x="89" y="1202"/>
      <point x="99" y="1197"/>
      <point x="101" y="1189" type="curve" smooth="yes"/>
      <point x="381" y="353" type="line"/>
      <point x="351" y="353" type="line"/>
      <point x="635" y="1189" type="line" smooth="yes"/>
      <point x="637" y="1197"/>
      <point x="647" y="1202"/>
      <point x="655" y="1199" type="curve" smooth="yes"/>
      <point x="663" y="1196"/>
      <point x="667" y="1187"/>
    </contour>
    <contour>
      <point x="350" y="3" type="curve" smooth="yes"/>
      <point x="350" y="347" type="line" smooth="yes"/>
      <point x="350" y="356"/>
      <point x="357" y="363"/>
      <point x="366" y="363" type="curve" smooth="yes"/>
      <point x="375" y="363"/>
      <point x="382" y="356"/>
      <point x="382" y="347" type="curve" smooth="yes"/>
      <point x="382" y="3" type="line" smooth="yes"/>
      <point x="382" y="-6"/>
      <point x="375" y="-13"/>
      <point x="366" y="-13" type="curve" smooth="yes"/>
      <point x="357" y="-13"/>
      <point x="350" y="-6"/>
    </contour>
  </outline>
</glyph>
<glyph name="Z" format="1">
  <advance width="762"/>
  <unicode hex="005A"/>
  <outline>
    <contour>
      <point x="96" y="1200" type="line"/>
      <point x="87" y="1200"/>
      <point x="80" y="1193"/>
      <point x="80" y="1184" type="curve" smooth="yes"/>
      <point x="80" y="1175"/>
      <point x="87" y="1168"/>
      <point x="96" y="1168" type="curve" smooth="yes"/>
      <point x="666" y="1168" type="line"/>
      <point x="651" y="1190" type="line"/>
      <point x="82" y="22" type="line" smooth="yes"/>
      <point x="76" y="11"/>
      <point x="83" y="0"/>
      <point x="96" y="0" type="curve" smooth="yes"/>
      <point x="666" y="0" type="line" smooth="yes"/>
      <point x="675" y="0"/>
      <point x="682" y="7"/>
      <point x="682" y="16" type="curve" smooth="yes"/>
      <point x="682" y="25"/>
      <point x="675" y="32"/>
      <point x="666" y="32" type="curve" smooth="yes"/>
      <point x="96" y="32" type="line"/>
      <point x="110" y="10" type="line"/>
      <point x="680" y="1178" type="line" smooth="yes"/>
      <point x="685" y="1189"/>
      <point x="678" y="1200"/>
      <point x="666" y="1200" type="curve" smooth="yes"/>
    </contour>
  </outline>
</glyph>
<glyph name="bracketleft" format="1">
  <advance width="402.0"/>
  <unicode hex="005B"/>
  <outline>
    <contour>
      <point x="326" y="1200" type="line"/>
      <point x="335" y="1200"/>
      <point x="342" y="1207"/>
      <point x="342" y="1216" type="curve" smooth="yes"/>
      <point x="342" y="1225"/>
      <point x="335" y="1232"/>
      <point x="326" y="1232" type="curve" smooth="yes"/>
      <point x="104" y="1232" type="line" smooth="yes"/>
      <point x="95" y="1232"/>
      <point x="88" y="1225"/>
      <point x="88" y="1216" type="curve" smooth="yes"/>
      <point x="88" y="-16" type="line" smooth="yes"/>
      <point x="88" y="-25"/>
      <point x="95" y="-32"/>
      <point x="104" y="-32" type="curve" smooth="yes"/>
      <point x="326" y="-32" type="line" smooth="yes"/>
      <point x="335" y="-32"/>
      <point x="342" y="-25"/>
      <point x="342" y="-16" type="curve" smooth="yes"/>
      <point x="342" y="-7"/>
      <point x="335" y="0"/>
      <point x="326" y="0" type="curve" smooth="yes"/>
      <point x="104" y="0" type="line"/>
      <point x="120" y="-16" type="line"/>
      <point x="120" y="1216" type="line"/>
      <point x="104" y="1200" type="line"/>
    </contour>
  </outline>
</glyph>
<glyph name="bracketright" format="1">
  <advance width="402.0"/>
  <unicode hex="005D"/>
  <outline>
    <contour>
      <point x="76" y="0" type="line"/>
      <point x="67" y="0"/>
      <point x="60" y="-7"/>
      <point x="60" y="-16" type="curve" smooth="yes"/>
      <point x="60" y="-25"/>
      <point x="67" y="-32"/>
      <point x="76" y="-32" type="curve" smooth="yes"/>
      <point x="298" y="-32" type="line" smooth="yes"/>
      <point x="307" y="-32"/>
      <point x="314" y="-25"/>
      <point x="314" y="-16" type="curve" smooth="yes"/>
      <point x="314" y="1216" type="line" smooth="yes"/>
      <point x="314" y="1225"/>
      <point x="307" y="1232"/>
      <point x="298" y="1232" type="curve" smooth="yes"/>
      <point x="76" y="1232" type="line" smooth="yes"/>
      <point x="67" y="1232"/>
      <point x="60" y="1225"/>
      <point x="60" y="1216" type="curve" smooth="yes"/>
      <point x="60" y="1207"/>
      <point x="67" y="1200"/>
      <point x="76" y="1200" type="curve" smooth="yes"/>
      <point x="298" y="1200" type="line"/>
      <point x="282" y="1216" type="line"/>
      <point x="282" y="-16" type="line"/>
      <point x="298" y="0" type="line"/>
    </contour>
  </outline>
</glyph>
<glyph name="asciicircum" format="1">
  <advance width="624.0"/>
  <unicode hex="005E"/>
  <outline>
    <contour>
      <point x="164" y="1228" type="line"/>
      <point x="158" y="1222"/>
      <point x="158" y="1212"/>
      <point x="164" y="1206" type="curve" smooth="yes"/>
      <point x="170" y="1200"/>
      <point x="180" y="1200"/>
      <point x="186" y="1206" type="curve" smooth="yes"/>
      <point x="323" y="1345" type="line"/>
      <point x="301" y="1345" type="line"/>
      <point x="438" y="1206" type="line" smooth="yes"/>
      <point x="444" y="1200"/>
      <point x="454" y="1200"/>
      <point x="460" y="1206" type="curve" smooth="yes"/>
      <point x="466" y="1212"/>
      <point x="466" y="1222"/>
      <point x="460" y="1228" type="curve" smooth="yes"/>
      <point x="323" y="1367" type="line" smooth="yes"/>
      <point x="317" y="1374"/>
      <point x="307" y="1374"/>
      <point x="301" y="1367" type="curve" smooth="yes"/>
    </contour>
  </outline>
</glyph>
<glyph name="grave" format="1">
  <advance width="318.0"/>
  <unicode hex="0060"/>
  <outline>
    <contour>
      <point x="209" y="1267" type="line"/>
      <point x="215" y="1261"/>
      <point x="225" y="1261"/>
      <point x="231" y="1267" type="curve" smooth="yes"/>
      <point x="237" y="1273"/>
      <point x="237" y="1283"/>
      <point x="231" y="1289" type="curve" smooth="yes"/>
      <point x="101" y="1417" type="line" smooth="yes"/>
      <point x="95" y="1423"/>
      <point x="85" y="1423"/>
      <point x="79" y="1417" type="curve" smooth="yes"/>
      <point x="73" y="1411"/>
      <point x="73" y="1401"/>
      <point x="79" y="1395" type="curve" smooth="yes"/>
    </contour>
  </outline>
</glyph>
<glyph name="a" format="1">
  <advance width="715"/>
  <unicode hex="0061"/>
  <outline>
    <contour>
      <point x="608" y="29" type="line"/>
      <point x="608" y="23"/>
      <point x="613" y="18"/>
      <point x="619" y="18" type="curve" smooth="yes"/>
      <point x="625" y="18"/>
      <point x="630" y="23"/>
      <point x="630" y="29" type="curve" smooth="yes"/>
      <point x="630" y="608" type="line" smooth="yes"/>
      <point x="630" y="758"/>
      <point x="509" y="879"/>
      <point x="359" y="879" type="curve" smooth="yes"/>
      <point x="209" y="879"/>
      <point x="88" y="758"/>
      <point x="88" y="608" type="curve" smooth="yes"/>
      <point x="88" y="260" type="line" smooth="yes"/>
      <point x="88" y="110"/>
      <point x="209" y="-11"/>
      <point x="359" y="-11" type="curve" smooth="yes"/>
      <point x="509" y="-11"/>
      <point x="630" y="112"/>
      <point x="630" y="239" type="curve" smooth="yes"/>
      <point x="630" y="245"/>
      <point x="625" y="250"/>
      <point x="619" y="250" type="curve" smooth="yes"/>
      <point x="613" y="250"/>
      <point x="608" y="245"/>
      <point x="608" y="239" type="curve" smooth="yes"/>
      <point x="608" y="122"/>
      <point x="496" y="11"/>
      <point x="359" y="11" type="curve" smooth="yes"/>
      <point x="222" y="11"/>
      <point x="110" y="123"/>
      <point x="110" y="260" type="curve" smooth="yes"/>
      <point x="110" y="608" type="line" smooth="yes"/>
      <point x="110" y="745"/>
      <point x="222" y="857"/>
      <point x="359" y="857" type="curve" smooth="yes"/>
      <point x="496" y="857"/>
      <point x="608" y="745"/>
      <point x="608" y="608" type="curve" smooth="yes"/>
    </contour>
  </outline>
</glyph>
<glyph name="b" format="1">
  <advance width="712"/>
  <unicode hex="0062"/>
  <outline>
    <contour>
      <point x="80" y="608" type="curve" smooth="yes"/>
      <point x="80" y="599"/>
      <point x="87" y="592"/>
      <point x="96" y="592" type="curve" smooth="yes"/>
      <point x="105" y="592"/>
      <point x="112" y="599"/>
      <point x="112" y="608" type="curve" smooth="yes"/>
      <point x="112" y="743"/>
      <point x="222" y="852"/>
      <point x="356" y="852" type="curve" smooth="yes"/>
      <point x="490" y="852"/>
      <point x="600" y="743"/>
      <point x="600" y="608" type="curve" smooth="yes"/>
      <point x="600" y="260" type="line" smooth="yes"/>
      <point x="600" y="126"/>
      <point x="490" y="16"/>
      <point x="356" y="16" type="curve" smooth="yes"/>
      <point x="222" y="16"/>
      <point x="112" y="126"/>
      <point x="112" y="260" type="curve" smooth="yes"/>
      <point x="112" y="1200" type="line" smooth="yes"/>
      <point x="112" y="1209"/>
      <point x="105" y="1216"/>
      <point x="96" y="1216" type="curve" smooth="yes"/>
      <point x="87" y="1216"/>
      <point x="80" y="1209"/>
      <point x="80" y="1200" type="curve" smooth="yes"/>
      <point x="80" y="260" type="line" smooth="yes"/>
      <point x="80" y="108"/>
      <point x="204" y="-16"/>
      <point x="356" y="-16" type="curve" smooth="yes"/>
      <point x="508" y="-16"/>
      <point x="632" y="108"/>
      <point x="632" y="260" type="curve" smooth="yes"/>
      <point x="632" y="608" type="line" smooth="yes"/>
      <point x="632" y="761"/>
      <point x="508" y="884"/>
      <point x="356" y="884" type="curve" smooth="yes"/>
      <point x="204" y="884"/>
      <point x="80" y="761"/>
    </contour>
  </outline>
</glyph>
<glyph name="d" format="1">
  <advance width="712"/>
  <unicode hex="0064"/>
  <outline>
    <contour>
      <point x="632" y="608" type="curve" smooth="yes"/>
      <point x="632" y="761"/>
      <point x="508" y="884"/>
      <point x="356" y="884" type="curve" smooth="yes"/>
      <point x="204" y="884"/>
      <point x="80" y="761"/>
      <point x="80" y="608" type="curve" smooth="yes"/>
      <point x="80" y="260" type="line" smooth="yes"/>
      <point x="80" y="108"/>
      <point x="204" y="-16"/>
      <point x="356" y="-16" type="curve" smooth="yes"/>
      <point x="508" y="-16"/>
      <point x="632" y="108"/>
      <point x="632" y="260" type="curve" smooth="yes"/>
      <point x="632" y="1200" type="line" smooth="yes"/>
      <point x="632" y="1209"/>
      <point x="625" y="1216"/>
      <point x="616" y="1216" type="curve" smooth="yes"/>
      <point x="607" y="1216"/>
      <point x="600" y="1209"/>
      <point x="600" y="1200" type="curve" smooth="yes"/>
      <point x="600" y="260" type="line" smooth="yes"/>
      <point x="600" y="126"/>
      <point x="490" y="16"/>
      <point x="356" y="16" type="curve" smooth="yes"/>
      <point x="222" y="16"/>
      <point x="112" y="126"/>
      <point x="112" y="260" type="curve" smooth="yes"/>
      <point x="112" y="608" type="line" smooth="yes"/>
      <point x="112" y="743"/>
      <point x="222" y="852"/>
      <point x="356" y="852" type="curve" smooth="yes"/>
      <point x="490" y="852"/>
      <point x="600" y="743"/>
      <point x="600" y="608" type="curve" smooth="yes"/>
      <point x="600" y="599"/>
      <point x="607" y="592"/>
      <point x="616" y="592" type="curve" smooth="yes"/>
      <point x="625" y="592"/>
      <point x="632" y="599"/>
    </contour>
  </outline>
</glyph>
<glyph name="e" format="1">
  <advance width="712"/>
  <unicode hex="0065"/>
  <outline>
    <contour>
      <point x="604" y="194" type="curve" smooth="yes"/>
      <point x="605" y="202"/>
      <point x="600" y="210"/>
      <point x="591" y="211" type="curve" smooth="yes"/>
      <point x="583" y="212"/>
      <point x="575" y="207"/>
      <point x="574" y="198" type="curve" smooth="yes"/>
      <point x="558" y="96"/>
      <point x="466" y="16"/>
      <point x="356" y="16" type="curve" smooth="yes"/>
      <point x="222" y="16"/>
      <point x="112" y="126"/>
      <point x="112" y="260" type="curve" smooth="yes"/>
      <point x="112" y="608" type="line" smooth="yes"/>
      <point x="112" y="743"/>
      <point x="222" y="852"/>
      <point x="356" y="852" type="curve" smooth="yes"/>
      <point x="490" y="852"/>
      <point x="600" y="743"/>
      <point x="600" y="608" type="curve" smooth="yes"/>
      <point x="600" y="440" type="line"/>
      <point x="616" y="456" type="line"/>
      <point x="99" y="456" type="line" smooth="yes"/>
      <point x="90" y="456"/>
      <point x="83" y="449"/>
      <point x="83" y="440" type="curve" smooth="yes"/>
      <point x="83" y="431"/>
      <point x="90" y="424"/>
      <point x="99" y="424" type="curve" smooth="yes"/>
      <point x="616" y="424" type="line" smooth="yes"/>
      <point x="625" y="424"/>
      <point x="632" y="431"/>
      <point x="632" y="440" type="curve" smooth="yes"/>
      <point x="632" y="608" type="line" smooth="yes"/>
      <point x="632" y="761"/>
      <point x="508" y="884"/>
      <point x="356" y="884" type="curve" smooth="yes"/>
      <point x="204" y="884"/>
      <point x="80" y="761"/>
      <point x="80" y="608" type="curve" smooth="yes"/>
      <point x="80" y="260" type="line" smooth="yes"/>
      <point x="80" y="108"/>
      <point x="204" y="-16"/>
      <point x="356" y="-16" type="curve" smooth="yes"/>
      <point x="482" y="-16"/>
      <point x="587" y="76"/>
    </contour>
  </outline>
</glyph>
<glyph name="f" format="1">
  <advance width="404"/>
  <unicode hex="0066"/>
  <outline>
    <contour>
      <point x="356" y="1184" type="curve" smooth="yes"/>
      <point x="365" y="1184"/>
      <point x="372" y="1191"/>
      <point x="372" y="1200" type="curve" smooth="yes"/>
      <point x="372" y="1209"/>
      <point x="365" y="1216"/>
      <point x="356" y="1216" type="curve" smooth="yes"/>
      <point x="204" y="1216"/>
      <point x="80" y="1092"/>
      <point x="80" y="940" type="curve" smooth="yes"/>
      <point x="80" y="16" type="line" smooth="yes"/>
      <point x="80" y="7"/>
      <point x="87" y="0"/>
      <point x="96" y="0" type="curve" smooth="yes"/>
      <point x="105" y="0"/>
      <point x="112" y="7"/>
      <point x="112" y="16" type="curve" smooth="yes"/>
      <point x="112" y="940" type="line" smooth="yes"/>
      <point x="112" y="1074"/>
      <point x="222" y="1184"/>
    </contour>
    <contour>
      <point x="256" y="615" type="line"/>
      <point x="265" y="615"/>
      <point x="272" y="622"/>
      <point x="272" y="631" type="curve" smooth="yes"/>
      <point x="272" y="640"/>
      <point x="265" y="647"/>
      <point x="256" y="647" type="curve" smooth="yes"/>
      <point x="106" y="647" type="line" smooth="yes"/>
      <point x="97" y="647"/>
      <point x="90" y="640"/>
      <point x="90" y="631" type="curve" smooth="yes"/>
      <point x="90" y="622"/>
      <point x="97" y="615"/>
      <point x="106" y="615" type="curve" smooth="yes"/>
    </contour>
  </outline>
</glyph>
<glyph name="g" format="1">
  <advance width="712"/>
  <unicode hex="0067"/>
  <outline>
    <contour>
      <point x="112" y="-204" type="curve" smooth="yes"/>
      <point x="112" y="-195"/>
      <point x="105" y="-188"/>
      <point x="96" y="-188" type="curve" smooth="yes"/>
      <point x="87" y="-188"/>
      <point x="80" y="-195"/>
      <point x="80" y="-204" type="curve" smooth="yes"/>
      <point x="80" y="-356"/>
      <point x="204" y="-480"/>
      <point x="356" y="-480" type="curve" smooth="yes"/>
      <point x="508" y="-480"/>
      <point x="632" y="-356"/>
      <point x="632" y="-204" type="curve" smooth="yes"/>
      <point x="632" y="608" type="line" smooth="yes"/>
      <point x="632" y="761"/>
      <point x="508" y="884"/>
      <point x="356" y="884" type="curve" smooth="yes"/>
      <point x="204" y="884"/>
      <point x="80" y="761"/>
      <point x="80" y="608" type="curve" smooth="yes"/>
      <point x="80" y="260" type="line" smooth="yes"/>
      <point x="80" y="108"/>
      <point x="204" y="-16"/>
      <point x="356" y="-16" type="curve" smooth="yes"/>
      <point x="508" y="-16"/>
      <point x="632" y="108"/>
      <point x="632" y="260" type="curve" smooth="yes"/>
      <point x="632" y="269"/>
      <point x="625" y="276"/>
      <point x="616" y="276" type="curve" smooth="yes"/>
      <point x="607" y="276"/>
      <point x="600" y="269"/>
      <point x="600" y="260" type="curve" smooth="yes"/>
      <point x="600" y="126"/>
      <point x="490" y="16"/>
      <point x="356" y="16" type="curve" smooth="yes"/>
      <point x="222" y="16"/>
      <point x="112" y="126"/>
      <point x="112" y="260" type="curve" smooth="yes"/>
      <point x="112" y="608" type="line" smooth="yes"/>
      <point x="112" y="743"/>
      <point x="222" y="852"/>
      <point x="356" y="852" type="curve" smooth="yes"/>
      <point x="490" y="852"/>
      <point x="600" y="743"/>
      <point x="600" y="608" type="curve" smooth="yes"/>
      <point x="600" y="-204" type="line" smooth="yes"/>
      <point x="600" y="-338"/>
      <point x="490" y="-448"/>
      <point x="356" y="-448" type="curve" smooth="yes"/>
      <point x="222" y="-448"/>
      <point x="112" y="-338"/>
    </contour>
  </outline>
</glyph>
<glyph name="h" format="1">
  <advance width="712"/>
  <unicode hex="0068"/>
  <outline>
    <contour>
      <point x="600" y="16" type="line"/>
      <point x="600" y="7"/>
      <point x="607" y="0"/>
      <point x="616" y="0" type="curve" smooth="yes"/>
      <point x="625" y="0"/>
      <point x="632" y="7"/>
      <point x="632" y="16" type="curve" smooth="yes"/>
      <point x="632" y="608" type="line" smooth="yes"/>
      <point x="632" y="761"/>
      <point x="508" y="884"/>
      <point x="356" y="884" type="curve" smooth="yes"/>
      <point x="218" y="884"/>
      <point x="104" y="783"/>
      <point x="83" y="650" type="curve" smooth="yes"/>
      <point x="82" y="642"/>
      <point x="88" y="633"/>
      <point x="97" y="632" type="curve" smooth="yes"/>
      <point x="105" y="631"/>
      <point x="114" y="637"/>
      <point x="115" y="646" type="curve" smooth="yes"/>
      <point x="133" y="763"/>
      <point x="234" y="852"/>
      <point x="356" y="852" type="curve" smooth="yes"/>
      <point x="490" y="852"/>
      <point x="600" y="743"/>
      <point x="600" y="608" type="curve" smooth="yes"/>
    </contour>
    <contour>
      <point x="112" y="1200" type="line"/>
      <point x="112" y="1209"/>
      <point x="105" y="1216"/>
      <point x="96" y="1216" type="curve" smooth="yes"/>
      <point x="87" y="1216"/>
      <point x="80" y="1209"/>
      <point x="80" y="1200" type="curve" smooth="yes"/>
      <point x="80" y="16" type="line" smooth="yes"/>
      <point x="80" y="7"/>
      <point x="87" y="0"/>
      <point x="96" y="0" type="curve" smooth="yes"/>
      <point x="105" y="0"/>
      <point x="112" y="7"/>
      <point x="112" y="16" type="curve" smooth="yes"/>
    </contour>
  </outline>
</glyph>
<glyph name="k" format="1">
  <advance width="691"/>
  <unicode hex="006B"/>
  <outline>
    <contour>
      <point x="112" y="1216" type="line"/>
      <point x="112" y="1225"/>
      <point x="105" y="1232"/>
      <point x="96" y="1232" type="curve" smooth="yes"/>
      <point x="87" y="1232"/>
      <point x="80" y="1225"/>
      <point x="80" y="1216" type="curve" smooth="yes"/>
      <point x="80" y="16" type="line" smooth="yes"/>
      <point x="80" y="7"/>
      <point x="87" y="0"/>
      <point x="96" y="0" type="curve" smooth="yes"/>
      <point x="105" y="0"/>
      <point x="112" y="7"/>
      <point x="112" y="16" type="curve" smooth="yes"/>
    </contour>
    <contour>
      <point x="603" y="840" type="line"/>
      <point x="609" y="845"/>
      <point x="611" y="856"/>
      <point x="605" y="863" type="curve" smooth="yes"/>
      <point x="599" y="869"/>
      <point x="589" y="870"/>
      <point x="582" y="865" type="curve" smooth="yes"/>
      <point x="93" y="463" type="line" smooth="yes"/>
      <point x="86" y="457"/>
      <point x="85" y="446"/>
      <point x="91" y="440" type="curve" smooth="yes"/>
      <point x="96" y="434"/>
      <point x="107" y="432"/>
      <point x="113" y="438" type="curve" smooth="yes"/>
    </contour>
    <contour>
      <point x="138" y="472" type="line"/>
      <point x="131" y="478"/>
      <point x="121" y="478"/>
      <point x="115" y="472" type="curve" smooth="yes"/>
      <point x="109" y="466"/>
      <point x="109" y="455"/>
      <point x="115" y="449" type="curve" smooth="yes"/>
      <point x="593" y="4" type="line" smooth="yes"/>
      <point x="599" y="-1"/>
      <point x="610" y="-2"/>
      <point x="616" y="5" type="curve" smooth="yes"/>
      <point x="621" y="11"/>
      <point x="622" y="22"/>
      <point x="616" y="28" type="curve" smooth="yes"/>
    </contour>
  </outline>
</glyph>
<glyph name="l" format="1">
  <advance width="228.0"/>
  <unicode hex="006C"/>
  <outline>
    <contour>
      <point x="114" y="0" type="curve" smooth="yes"/>
      <point x="122" y="0"/>
      <point x="130" y="8"/>
      <point x="130" y="16" type="curve" smooth="yes"/>
      <point x="130" y="1216" type="line" smooth="yes"/>
      <point x="130" y="1224"/>
      <point x="122" y="1232"/>
      <point x="114" y="1232" type="curve" smooth="yes"/>
      <point x="106" y="1232"/>
      <point x="98" y="1224"/>
      <point x="98" y="1216" type="curve" smooth="yes"/>
      <point x="98" y="16" type="line" smooth="yes"/>
      <point x="98" y="8"/>
      <point x="106" y="0"/>
    </contour>
  </outline>
</glyph>
<glyph name="m" format="1">
  <advance width="886"/>
  <unicode hex="006D"/>
  <outline>
    <contour>
      <point x="112" y="820" type="line"/>
      <point x="112" y="829"/>
      <point x="105" y="836"/>
      <point x="96" y="836" type="curve" smooth="yes"/>
      <point x="87" y="836"/>
      <point x="80" y="829"/>
      <point x="80" y="820" type="curve" smooth="yes"/>
      <point x="80" y="16" type="line" smooth="yes"/>
      <point x="80" y="7"/>
      <point x="87" y="0"/>
      <point x="96" y="0" type="curve" smooth="yes"/>
      <point x="105" y="0"/>
      <point x="112" y="7"/>
      <point x="112" y="16" type="curve" smooth="yes"/>
    </contour>
    <contour>
      <point x="434" y="731" type="curve" smooth="yes"/>
      <point x="431" y="723"/>
      <point x="437" y="714"/>
      <point x="445" y="712" type="curve" smooth="yes"/>
      <point x="453" y="709"/>
      <point x="462" y="715"/>
      <point x="464" y="723" type="curve" smooth="yes"/>
      <point x="482" y="790"/>
      <point x="543" y="839"/>
      <point x="616" y="839" type="curve" smooth="yes"/>
      <point x="702" y="839"/>
      <point x="773" y="769"/>
      <point x="773" y="682" type="curve" smooth="yes"/>
      <point x="773" y="16" type="line" smooth="yes"/>
      <point x="773" y="7"/>
      <point x="780" y="0"/>
      <point x="789" y="0" type="curve" smooth="yes"/>
      <point x="798" y="0"/>
      <point x="805" y="7"/>
      <point x="805" y="16" type="curve" smooth="yes"/>
      <point x="805" y="682" type="line" smooth="yes"/>
      <point x="805" y="787"/>
      <point x="720" y="871"/>
      <point x="616" y="871" type="curve" smooth="yes"/>
      <point x="529" y="871"/>
      <point x="454" y="812"/>
    </contour>
    <contour>
      <point x="87" y="731" type="curve" smooth="yes"/>
      <point x="84" y="723"/>
      <point x="90" y="714"/>
      <point x="98" y="712" type="curve" smooth="yes"/>
      <point x="106" y="709"/>
      <point x="115" y="715"/>
      <point x="117" y="723" type="curve" smooth="yes"/>
      <point x="136" y="790"/>
      <point x="196" y="839"/>
      <point x="269" y="839" type="curve" smooth="yes"/>
      <point x="355" y="839"/>
      <point x="427" y="769"/>
      <point x="427" y="682" type="curve" smooth="yes"/>
      <point x="427" y="16" type="line" smooth="yes"/>
      <point x="427" y="7"/>
      <point x="434" y="0"/>
      <point x="443" y="0" type="curve" smooth="yes"/>
      <point x="452" y="0"/>
      <point x="459" y="7"/>
      <point x="459" y="16" type="curve" smooth="yes"/>
      <point x="459" y="682" type="line" smooth="yes"/>
      <point x="459" y="787"/>
      <point x="373" y="871"/>
      <point x="269" y="871" type="curve" smooth="yes"/>
      <point x="182" y="871"/>
      <point x="108" y="812"/>
    </contour>
  </outline>
</glyph>
<glyph name="p" format="1">
  <advance width="712"/>
  <unicode hex="0070"/>
  <outline>
    <contour>
      <point x="80" y="260" type="curve" smooth="yes"/>
      <point x="80" y="108"/>
      <point x="204" y="-16"/>
      <point x="356" y="-16" type="curve" smooth="yes"/>
      <point x="508" y="-16"/>
      <point x="632" y="108"/>
      <point x="632" y="260" type="curve" smooth="yes"/>
      <point x="632" y="608" type="line" smooth="yes"/>
      <point x="632" y="761"/>
      <point x="508" y="884"/>
      <point x="356" y="884" type="curve" smooth="yes"/>
      <point x="204" y="884"/>
      <point x="80" y="761"/>
      <point x="80" y="608" type="curve" smooth="yes"/>
      <point x="80" y="-332" type="line" smooth="yes"/>
      <point x="80" y="-341"/>
      <point x="87" y="-348"/>
      <point x="96" y="-348" type="curve" smooth="yes"/>
      <point x="105" y="-348"/>
      <point x="112" y="-341"/>
      <point x="112" y="-332" type="curve" smooth="yes"/>
      <point x="112" y="608" type="line" smooth="yes"/>
      <point x="112" y="743"/>
      <point x="222" y="852"/>
      <point x="356" y="852" type="curve" smooth="yes"/>
      <point x="490" y="852"/>
      <point x="600" y="743"/>
      <point x="600" y="608" type="curve" smooth="yes"/>
      <point x="600" y="260" type="line" smooth="yes"/>
      <point x="600" y="126"/>
      <point x="490" y="16"/>
      <point x="356" y="16" type="curve" smooth="yes"/>
      <point x="222" y="16"/>
      <point x="112" y="126"/>
      <point x="112" y="260" type="curve" smooth="yes"/>
      <point x="112" y="269"/>
      <point x="105" y="276"/>
      <point x="96" y="276" type="curve" smooth="yes"/>
      <point x="87" y="276"/>
      <point x="80" y="269"/>
    </contour>
  </outline>
</glyph>
<glyph name="q" format="1">
  <advance width="712"/>
  <unicode hex="0071"/>
  <outline>
    <contour>
      <point x="632" y="260" type="curve" smooth="yes"/>
      <point x="632" y="269"/>
      <point x="625" y="276"/>
      <point x="616" y="276" type="curve" smooth="yes"/>
      <point x="607" y="276"/>
      <point x="600" y="269"/>
      <point x="600" y="260" type="curve" smooth="yes"/>
      <point x="600" y="126"/>
      <point x="490" y="16"/>
      <point x="356" y="16" type="curve" smooth="yes"/>
      <point x="222" y="16"/>
      <point x="112" y="126"/>
      <point x="112" y="260" type="curve" smooth="yes"/>
      <point x="112" y="608" type="line" smooth="yes"/>
      <point x="112" y="743"/>
      <point x="222" y="852"/>
      <point x="356" y="852" type="curve" smooth="yes"/>
      <point x="490" y="852"/>
      <point x="600" y="743"/>
      <point x="600" y="608" type="curve" smooth="yes"/>
      <point x="600" y="-332" type="line" smooth="yes"/>
      <point x="600" y="-341"/>
      <point x="607" y="-348"/>
      <point x="616" y="-348" type="curve" smooth="yes"/>
      <point x="625" y="-348"/>
      <point x="632" y="-341"/>
      <point x="632" y="-332" type="curve" smooth="yes"/>
      <point x="632" y="608" type="line" smooth="yes"/>
      <point x="632" y="761"/>
      <point x="508" y="884"/>
      <point x="356" y="884" type="curve" smooth="yes"/>
      <point x="204" y="884"/>
      <point x="80" y="761"/>
      <point x="80" y="608" type="curve" smooth="yes"/>
      <point x="80" y="260" type="line" smooth="yes"/>
      <point x="80" y="108"/>
      <point x="204" y="-16"/>
      <point x="356" y="-16" type="curve" smooth="yes"/>
      <point x="508" y="-16"/>
      <point x="632" y="108"/>
    </contour>
  </outline>
</glyph>
<glyph name="r" format="1">
  <advance width="406"/>
  <unicode hex="0072"/>
  <outline>
    <contour>
      <point x="356" y="852" type="curve" smooth="yes"/>
      <point x="365" y="852"/>
      <point x="372" y="859"/>
      <point x="372" y="868" type="curve" smooth="yes"/>
      <point x="372" y="877"/>
      <point x="365" y="884"/>
      <point x="356" y="884" type="curve" smooth="yes"/>
      <point x="229" y="884"/>
      <point x="122" y="798"/>
      <point x="91" y="681" type="curve" smooth="yes"/>
      <point x="88" y="673"/>
      <point x="94" y="664"/>
      <point x="102" y="662" type="curve" smooth="yes"/>
      <point x="110" y="659"/>
      <point x="119" y="664"/>
      <point x="121" y="672" type="curve" smooth="yes"/>
      <point x="148" y="776"/>
      <point x="244" y="852"/>
    </contour>
    <contour>
      <point x="112" y="820" type="line"/>
      <point x="112" y="829"/>
      <point x="105" y="836"/>
      <point x="96" y="836" type="curve" smooth="yes"/>
      <point x="87" y="836"/>
      <point x="80" y="829"/>
      <point x="80" y="820" type="curve" smooth="yes"/>
      <point x="80" y="16" type="line" smooth="yes"/>
      <point x="80" y="7"/>
      <point x="87" y="0"/>
      <point x="96" y="0" type="curve" smooth="yes"/>
      <point x="105" y="0"/>
      <point x="112" y="7"/>
      <point x="112" y="16" type="curve" smooth="yes"/>
    </contour>
  </outline>
</glyph>
<glyph name="s" format="1">
  <advance width="722"/>
  <unicode hex="0073"/>
  <outline>
    <contour>
      <point x="112" y="220" type="curve" smooth="yes"/>
      <point x="112" y="229"/>
      <point x="105" y="236"/>
      <point x="96" y="236" type="curve" smooth="yes"/>
      <point x="87" y="236"/>
      <point x="80" y="229"/>
      <point x="80" y="220" type="curve" smooth="yes"/>
      <point x="80" y="90"/>
      <point x="186" y="-16"/>
      <point x="317" y="-16" type="curve" smooth="yes"/>
      <point x="406" y="-16" type="line" smooth="yes"/>
      <point x="536" y="-16"/>
      <point x="642" y="90"/>
      <point x="642" y="220" type="curve" smooth="yes"/>
      <point x="642" y="222" type="line" smooth="yes"/>
      <point x="642" y="352"/>
      <point x="536" y="459"/>
      <point x="406" y="459" type="curve" smooth="yes"/>
      <point x="317" y="459" type="line" smooth="yes"/>
      <point x="209" y="459"/>
      <point x="120" y="548"/>
      <point x="120" y="656" type="curve" smooth="yes"/>
      <point x="120" y="763"/>
      <point x="209" y="852"/>
      <point x="317" y="852" type="curve" smooth="yes"/>
      <point x="406" y="852" type="line" smooth="yes"/>
      <point x="516" y="852"/>
      <point x="605" y="763"/>
      <point x="605" y="656" type="curve" smooth="yes"/>
      <point x="605" y="647"/>
      <point x="612" y="640"/>
      <point x="621" y="640" type="curve" smooth="yes"/>
      <point x="630" y="640"/>
      <point x="637" y="647"/>
      <point x="637" y="656" type="curve" smooth="yes"/>
      <point x="637" y="781"/>
      <point x="534" y="884"/>
      <point x="406" y="884" type="curve" smooth="yes"/>
      <point x="317" y="884" type="line" smooth="yes"/>
      <point x="191" y="884"/>
      <point x="88" y="781"/>
      <point x="88" y="656" type="curve" smooth="yes"/>
      <point x="88" y="530"/>
      <point x="191" y="427"/>
      <point x="317" y="427" type="curve" smooth="yes"/>
      <point x="406" y="427" type="line" smooth="yes"/>
      <point x="518" y="427"/>
      <point x="610" y="334"/>
      <point x="610" y="222" type="curve" smooth="yes"/>
      <point x="610" y="220" type="line" smooth="yes"/>
      <point x="610" y="108"/>
      <point x="518" y="16"/>
      <point x="406" y="16" type="curve" smooth="yes"/>
      <point x="317" y="16" type="line" smooth="yes"/>
      <point x="204" y="16"/>
      <point x="112" y="108"/>
    </contour>
  </outline>
</glyph>
<glyph name="t" format="1">
  <advance width="439"/>
  <unicode hex="0074"/>
  <outline>
    <contour>
      <point x="112" y="1045" type="line"/>
      <point x="112" y="1054"/>
      <point x="105" y="1061"/>
      <point x="96" y="1061" type="curve" smooth="yes"/>
      <point x="87" y="1061"/>
      <point x="80" y="1054"/>
      <point x="80" y="1045" type="curve" smooth="yes"/>
      <point x="80" y="239" type="line" smooth="yes"/>
      <point x="80" y="98"/>
      <point x="194" y="-16"/>
      <point x="335" y="-16" type="curve" smooth="yes"/>
      <point x="345" y="-16" type="line" smooth="yes"/>
      <point x="354" y="-16"/>
      <point x="361" y="-9"/>
      <point x="361" y="0" type="curve" smooth="yes"/>
      <point x="361" y="9"/>
      <point x="354" y="16"/>
      <point x="345" y="16" type="curve" smooth="yes"/>
      <point x="335" y="16" type="line" smooth="yes"/>
      <point x="212" y="16"/>
      <point x="112" y="116"/>
      <point x="112" y="239" type="curve" smooth="yes"/>
    </contour>
    <contour>
      <point x="102" y="647" type="line"/>
      <point x="93" y="647"/>
      <point x="86" y="640"/>
      <point x="86" y="631" type="curve" smooth="yes"/>
      <point x="86" y="622"/>
      <point x="93" y="615"/>
      <point x="102" y="615" type="curve" smooth="yes"/>
      <point x="256" y="615" type="line" smooth="yes"/>
      <point x="265" y="615"/>
      <point x="272" y="622"/>
      <point x="272" y="631" type="curve" smooth="yes"/>
      <point x="272" y="640"/>
      <point x="265" y="647"/>
      <point x="256" y="647" type="curve" smooth="yes"/>
    </contour>
  </outline>
</glyph>
<glyph name="u" format="1">
  <advance width="712"/>
  <unicode hex="0075"/>
  <outline>
    <contour>
      <point x="112" y="852" type="line"/>
      <point x="112" y="861"/>
      <point x="105" y="868"/>
      <point x="96" y="868" type="curve" smooth="yes"/>
      <point x="87" y="868"/>
      <point x="80" y="861"/>
      <point x="80" y="852" type="curve" smooth="yes"/>
      <point x="80" y="260" type="line" smooth="yes"/>
      <point x="80" y="108"/>
      <point x="204" y="-16"/>
      <point x="356" y="-16" type="curve" smooth="yes"/>
      <point x="479" y="-16"/>
      <point x="585" y="66"/>
      <point x="619" y="179" type="curve" smooth="yes"/>
      <point x="621" y="187"/>
      <point x="617" y="196"/>
      <point x="609" y="199" type="curve" smooth="yes"/>
      <point x="600" y="202"/>
      <point x="591" y="198"/>
      <point x="588" y="189" type="curve" smooth="yes"/>
      <point x="558" y="89"/>
      <point x="465" y="16"/>
      <point x="356" y="16" type="curve" smooth="yes"/>
      <point x="222" y="16"/>
      <point x="112" y="126"/>
      <point x="112" y="260" type="curve" smooth="yes"/>
    </contour>
    <contour>
      <point x="600" y="16" type="line"/>
      <point x="600" y="7"/>
      <point x="607" y="0"/>
      <point x="616" y="0" type="curve" smooth="yes"/>
      <point x="625" y="0"/>
      <point x="632" y="7"/>
      <point x="632" y="16" type="curve" smooth="yes"/>
      <point x="632" y="852" type="line" smooth="yes"/>
      <point x="632" y="861"/>
      <point x="625" y="868"/>
      <point x="616" y="868" type="curve" smooth="yes"/>
      <point x="607" y="868"/>
      <point x="600" y="861"/>
      <point x="600" y="852" type="curve" smooth="yes"/>
    </contour>
  </outline>
</glyph>
<glyph name="v" format="1">
  <advance width="676"/>
  <unicode hex="0076"/>
  <outline>
    <contour>
      <point x="92" y="860" type="line"/>
      <point x="89" y="868"/>
      <point x="79" y="873"/>
      <point x="71" y="871" type="curve" smooth="yes"/>
      <point x="63" y="868"/>
      <point x="58" y="859"/>
      <point x="60" y="851" type="curve" smooth="yes"/>
      <point x="322" y="-5" type="line" smooth="yes"/>
      <point x="327" y="-21"/>
      <point x="348" y="-21"/>
      <point x="353" y="-5" type="curve" smooth="yes"/>
      <point x="615" y="851" type="line" smooth="yes"/>
      <point x="618" y="859"/>
      <point x="612" y="868"/>
      <point x="604" y="871" type="curve" smooth="yes"/>
      <point x="596" y="873"/>
      <point x="587" y="868"/>
      <point x="584" y="860" type="curve" smooth="yes"/>
      <point x="322" y="5" type="line"/>
      <point x="353" y="5" type="line"/>
    </contour>
  </outline>
</glyph>
<glyph name="w" format="1">
  <advance width="850"/>
  <unicode hex="0077"/>
  <outline>
    <contour>
      <point x="92" y="859" type="line"/>
      <point x="90" y="867"/>
      <point x="81" y="873"/>
      <point x="73" y="871" type="curve" smooth="yes"/>
      <point x="65" y="869"/>
      <point x="59" y="861"/>
      <point x="60" y="852" type="curve" smooth="yes"/>
      <point x="233" y="-3" type="line" smooth="yes"/>
      <point x="236" y="-21"/>
      <point x="261" y="-21"/>
      <point x="264" y="-4" type="curve" smooth="yes"/>
      <point x="436" y="788" type="line"/>
      <point x="404" y="788" type="line"/>
      <point x="577" y="-4" type="line" smooth="yes"/>
      <point x="581" y="-21"/>
      <point x="605" y="-21"/>
      <point x="608" y="-3" type="curve" smooth="yes"/>
      <point x="780" y="852" type="line" smooth="yes"/>
      <point x="781" y="861"/>
      <point x="775" y="869"/>
      <point x="767" y="871" type="curve" smooth="yes"/>
      <point x="759" y="873"/>
      <point x="750" y="867"/>
      <point x="748" y="859" type="curve" smooth="yes"/>
      <point x="577" y="3" type="line"/>
      <point x="608" y="4" type="line"/>
      <point x="436" y="796" type="line" smooth="yes"/>
      <point x="432" y="813"/>
      <point x="408" y="813"/>
      <point x="404" y="796" type="curve" smooth="yes"/>
      <point x="233" y="4" type="line"/>
      <point x="265" y="3" type="line"/>
    </contour>
  </outline>
</glyph>
<glyph name="x" format="1">
  <advance width="712"/>
  <unicode hex="0078"/>
  <outline>
    <contour>
      <point x="629" y="844" type="line"/>
      <point x="633" y="851"/>
      <point x="631" y="861"/>
      <point x="623" y="866" type="curve" smooth="yes"/>
      <point x="617" y="870"/>
      <point x="607" y="868"/>
      <point x="602" y="860" type="curve" smooth="yes"/>
      <point x="83" y="24" type="line" smooth="yes"/>
      <point x="78" y="17"/>
      <point x="81" y="7"/>
      <point x="88" y="3" type="curve" smooth="yes"/>
      <point x="95" y="-2"/>
      <point x="105" y="1"/>
      <point x="109" y="8" type="curve" smooth="yes"/>
    </contour>
    <contour>
      <point x="602" y="8" type="line"/>
      <point x="607" y="1"/>
      <point x="617" y="-2"/>
      <point x="623" y="3" type="curve" smooth="yes"/>
      <point x="631" y="7"/>
      <point x="633" y="17"/>
      <point x="629" y="24" type="curve" smooth="yes"/>
      <point x="109" y="860" type="line" smooth="yes"/>
      <point x="105" y="868"/>
      <point x="95" y="870"/>
      <point x="88" y="866" type="curve" smooth="yes"/>
      <point x="81" y="861"/>
      <point x="78" y="851"/>
      <point x="83" y="844" type="curve" smooth="yes"/>
    </contour>
  </outline>
</glyph>
<glyph name="y" format="1">
  <advance width="680"/>
  <unicode hex="0079"/>
  <outline>
    <contour>
      <point x="96" y="857" type="line"/>
      <point x="92" y="865"/>
      <point x="83" y="870"/>
      <point x="75" y="868" type="curve" smooth="yes"/>
      <point x="67" y="865"/>
      <point x="62" y="855"/>
      <point x="64" y="848" type="curve" smooth="yes"/>
      <point x="323" y="12" type="line" smooth="yes"/>
      <point x="326" y="4"/>
      <point x="335" y="-2"/>
      <point x="343" y="1" type="curve" smooth="yes"/>
      <point x="351" y="4"/>
      <point x="356" y="13"/>
      <point x="354" y="21" type="curve" smooth="yes"/>
    </contour>
    <contour>
      <point x="175" y="-464" type="line"/>
      <point x="172" y="-472"/>
      <point x="178" y="-481"/>
      <point x="186" y="-484" type="curve" smooth="yes"/>
      <point x="194" y="-487"/>
      <point x="203" y="-481"/>
      <point x="206" y="-473" type="curve" smooth="yes"/>
      <point x="615" y="848" type="line" smooth="yes"/>
      <point x="618" y="855"/>
      <point x="612" y="865"/>
      <point x="604" y="868" type="curve" smooth="yes"/>
      <point x="596" y="870"/>
      <point x="587" y="865"/>
      <point x="584" y="857" type="curve" smooth="yes"/>
    </contour>
  </outline>
</glyph>
<glyph name="z" format="1">
  <advance width="712.0"/>
  <unicode hex="007A"/>
  <outline>
    <contour>
      <point x="96" y="868" type="line"/>
      <point x="87" y="868"/>
      <point x="80" y="861"/>
      <point x="80" y="852" type="curve" smooth="yes"/>
      <point x="80" y="843"/>
      <point x="87" y="836"/>
      <point x="96" y="836" type="curve" smooth="yes"/>
      <point x="616" y="836" type="line"/>
      <point x="602" y="860" type="line"/>
      <point x="83" y="24" type="line" smooth="yes"/>
      <point x="76" y="13"/>
      <point x="83" y="0"/>
      <point x="96" y="0" type="curve" smooth="yes"/>
      <point x="616" y="0" type="line" smooth="yes"/>
      <point x="625" y="0"/>
      <point x="632" y="7"/>
      <point x="632" y="16" type="curve" smooth="yes"/>
      <point x="632" y="25"/>
      <point x="625" y="32"/>
      <point x="616" y="32" type="curve" smooth="yes"/>
      <point x="96" y="32" type="line"/>
      <point x="110" y="8" type="line"/>
      <point x="629" y="844" type="line" smooth="yes"/>
      <point x="636" y="855"/>
      <point x="629" y="868"/>
      <point x="616" y="868" type="curve" smooth="yes"/>
    </contour>
  </outline>
</glyph>
<glyph name="bar" format="1">
  <advance width="228.0"/>
  <unicode hex="007C"/>
  <outline>
    <contour>
      <point x="114" y="1296" type="curve" smooth="yes"/>
      <point x="106" y="1296"/>
      <point x="98" y="1288"/>
      <point x="98" y="1280" type="curve" smooth="yes"/>
      <point x="98" y="-80" type="line" smooth="yes"/>
      <point x="98" y="-88"/>
      <point x="106" y="-96"/>
      <point x="114" y="-96" type="curve" smooth="yes"/>
      <point x="122" y="-96"/>
      <point x="130" y="-88"/>
      <point x="130" y="-80" type="curve" smooth="yes"/>
      <point x="130" y="1280" type="line" smooth="yes"/>
      <point x="130" y="1288"/>
      <point x="122" y="1296"/>
    </contour>
  </outline>
</glyph>
<glyph name="asciitilde" format="1">
  <advance width="655"/>
  <unicode hex="007E"/>
  <outline>
    <contour>
      <point x="141" y="636" type="curve" smooth="yes"/>
      <point x="139" y="627"/>
      <point x="144" y="619"/>
      <point x="151" y="616" type="curve" smooth="yes"/>
      <point x="160" y="614"/>
      <point x="168" y="619"/>
      <point x="171" y="627" type="curve" smooth="yes"/>
      <point x="191" y="684"/>
      <point x="270" y="704"/>
      <point x="316" y="643" type="curve" smooth="yes"/>
      <point x="381" y="554"/>
      <point x="489" y="591"/>
      <point x="516" y="670" type="curve" smooth="yes"/>
      <point x="518" y="678"/>
      <point x="513" y="687"/>
      <point x="505" y="689" type="curve" smooth="yes"/>
      <point x="497" y="691"/>
      <point x="488" y="687"/>
      <point x="486" y="679" type="curve" smooth="yes"/>
      <point x="465" y="622"/>
      <point x="386" y="601"/>
      <point x="341" y="662" type="curve" smooth="yes"/>
      <point x="275" y="752"/>
      <point x="167" y="715"/>
    </contour>
  </outline>
</glyph>
<glyph name="cent" format="1">
  <advance width="712"/>
  <unicode hex="00A2"/>
  <outline>
    <contour>
      <point x="604" y="194" type="curve" smooth="yes"/>
      <point x="605" y="202"/>
      <point x="600" y="210"/>
      <point x="591" y="211" type="curve" smooth="yes"/>
      <point x="583" y="212"/>
      <point x="575" y="207"/>
      <point x="574" y="198" type="curve" smooth="yes"/>
      <point x="558" y="96"/>
      <point x="466" y="16"/>
      <point x="356" y="16" type="curve" smooth="yes"/>
      <point x="222" y="16"/>
      <point x="112" y="126"/>
      <point x="112" y="260" type="curve" smooth="yes"/>
      <point x="112" y="608" type="line" smooth="yes"/>
      <point x="112" y="743"/>
      <point x="222" y="852"/>
      <point x="356" y="852" type="curve" smooth="yes"/>
      <point x="466" y="852"/>
      <point x="558" y="772"/>
      <point x="574" y="670" type="curve" smooth="yes"/>
      <point x="575" y="661"/>
      <point x="583" y="656"/>
      <point x="591" y="657" type="curve" smooth="yes"/>
      <point x="600" y="658"/>
      <point x="605" y="666"/>
      <point x="604" y="674" type="curve" smooth="yes"/>
      <point x="587" y="792"/>
      <point x="482" y="884"/>
      <point x="356" y="884" type="curve" smooth="yes"/>
      <point x="204" y="884"/>
      <point x="80" y="761"/>
      <point x="80" y="608" type="curve" smooth="yes"/>
      <point x="80" y="260" type="line" smooth="yes"/>
      <point x="80" y="108"/>
      <point x="204" y="-16"/>
      <point x="356" y="-16" type="curve" smooth="yes"/>
      <point x="482" y="-16"/>
      <point x="587" y="76"/>
    </contour>
    <contour>
      <point x="372" y="934" type="line"/>
      <point x="372" y="943"/>
      <point x="365" y="950"/>
      <point x="356" y="950" type="curve" smooth="yes"/>
      <point x="347" y="950"/>
      <point x="340" y="943"/>
      <point x="340" y="934" type="curve" smooth="yes"/>
      <point x="340" y="-78" type="line" smooth="yes"/>
      <point x="340" y="-87"/>
      <point x="347" y="-94"/>
      <point x="356" y="-94" type="curve" smooth="yes"/>
      <point x="365" y="-94"/>
      <point x="372" y="-87"/>
      <point x="372" y="-78" type="curve" smooth="yes"/>
    </contour>
  </outline>
</glyph>
<glyph name="sterling" format="1">
  <advance width="680.0"/>
  <unicode hex="00A3"/>
  <outline>
    <contour>
      <point x="491" y="1184" type="curve" smooth="yes"/>
      <point x="500" y="1184"/>
      <point x="507" y="1191"/>
      <point x="507" y="1200" type="curve" smooth="yes"/>
      <point x="507" y="1209"/>
      <point x="500" y="1216"/>
      <point x="491" y="1216" type="curve" smooth="yes"/>
      <point x="339" y="1216"/>
      <point x="215" y="1092"/>
      <point x="215" y="940" type="curve" smooth="yes"/>
      <point x="215" y="140" type="line" smooth="yes"/>
      <point x="215" y="72"/>
      <point x="161" y="16"/>
      <point x="93" y="16" type="curve"/>
      <point x="93" y="-16" type="line"/>
      <point x="584" y="-16" type="line" smooth="yes"/>
      <point x="593" y="-16"/>
      <point x="600" y="-9"/>
      <point x="600" y="0" type="curve" smooth="yes"/>
      <point x="600" y="9"/>
      <point x="593" y="16"/>
      <point x="584" y="16" type="curve" smooth="yes"/>
      <point x="93" y="16" type="line"/>
      <point x="93" y="-16" type="line"/>
      <point x="179" y="-16"/>
      <point x="247" y="54"/>
      <point x="247" y="140" type="curve" smooth="yes"/>
      <point x="247" y="940" type="line" smooth="yes"/>
      <point x="247" y="1074"/>
      <point x="357" y="1184"/>
    </contour>
    <contour>
      <point x="406" y="638" type="line"/>
      <point x="415" y="638"/>
      <point x="422" y="645"/>
      <point x="422" y="654" type="curve" smooth="yes"/>
      <point x="422" y="663"/>
      <point x="415" y="670"/>
      <point x="406" y="670" type="curve" smooth="yes"/>
      <point x="242" y="670" type="line" smooth="yes"/>
      <point x="233" y="670"/>
      <point x="226" y="663"/>
      <point x="226" y="654" type="curve" smooth="yes"/>
      <point x="226" y="645"/>
      <point x="233" y="638"/>
      <point x="242" y="638" type="curve" smooth="yes"/>
    </contour>
  </outline>
</glyph>
<glyph name="currency" format="1">
  <advance width="760"/>
  <unicode hex="00A4"/>
  <outline>
    <contour>
      <point x="104" y="284" type="line"/>
      <point x="104" y="132"/>
      <point x="228" y="8"/>
      <point x="380" y="8" type="curve" smooth="yes"/>
      <point x="532" y="8"/>
      <point x="656" y="131"/>
      <point x="656" y="284" type="curve" smooth="yes"/>
      <point x="656" y="584" type="line" smooth="yes"/>
      <point x="656" y="737"/>
      <point x="532" y="860"/>
      <point x="380" y="860" type="curve" smooth="yes"/>
      <point x="227" y="860"/>
      <point x="104" y="736"/>
      <point x="104" y="584" type="curve" smooth="yes"/>
    </contour>
    <contour>
      <point x="136" y="284" type="curve" smooth="yes"/>
      <point x="136" y="584" type="line" smooth="yes"/>
      <point x="136" y="718"/>
      <point x="245" y="828"/>
      <point x="380" y="828" type="curve" smooth="yes"/>
      <point x="514" y="828"/>
      <point x="624" y="719"/>
      <point x="624" y="584" type="curve" smooth="yes"/>
      <point x="624" y="284" type="line" smooth="yes"/>
      <point x="624" y="149"/>
      <point x="514" y="40"/>
      <point x="380" y="40" type="curve" smooth="yes"/>
      <point x="246" y="40"/>
      <point x="136" y="150"/>
    </contour>
    <contour>
      <point x="96" y="35" type="line"/>
      <point x="90" y="29"/>
      <point x="90" y="19"/>
      <point x="96" y="13" type="curve" smooth="yes"/>
      <point x="102" y="7"/>
      <point x="112" y="7"/>
      <point x="118" y="13" type="curve" smooth="yes"/>
      <point x="196" y="91" type="line" smooth="yes"/>
      <point x="202" y="97"/>
      <point x="202" y="107"/>
      <point x="196" y="113" type="curve" smooth="yes"/>
      <point x="190" y="119"/>
      <point x="180" y="119"/>
      <point x="174" y="113" type="curve" smooth="yes"/>
    </contour>
    <contour>
      <point x="173" y="757" type="line"/>
      <point x="179" y="751"/>
      <point x="189" y="751"/>
      <point x="195" y="757" type="curve" smooth="yes"/>
      <point x="201" y="763"/>
      <point x="201" y="773"/>
      <point x="195" y="779" type="curve" smooth="yes"/>
      <point x="118" y="856" type="line" smooth="yes"/>
      <point x="112" y="862"/>
      <point x="102" y="862"/>
      <point x="96" y="856" type="curve" smooth="yes"/>
      <point x="90" y="850"/>
      <point x="90" y="840"/>
      <point x="96" y="834" type="curve" smooth="yes"/>
    </contour>
    <contour>
      <point x="664" y="834" type="line"/>
      <point x="670" y="840"/>
      <point x="670" y="850"/>
      <point x="664" y="856" type="curve" smooth="yes"/>
      <point x="658" y="862"/>
      <point x="648" y="862"/>
      <point x="642" y="856" type="curve" smooth="yes"/>
      <point x="564" y="778" type="line" smooth="yes"/>
      <point x="558" y="772"/>
      <point x="558" y="762"/>
      <point x="564" y="756" type="curve" smooth="yes"/>
      <point x="570" y="750"/>
      <point x="580" y="750"/>
      <point x="586" y="756" type="curve" smooth="yes"/>
    </contour>
    <contour>
      <point x="586" y="113" type="line"/>
      <point x="580" y="119"/>
      <point x="570" y="119"/>
      <point x="564" y="113" type="curve" smooth="yes"/>
      <point x="558" y="107"/>
      <point x="558" y="97"/>
      <point x="564" y="91" type="curve" smooth="yes"/>
      <point x="642" y="12" type="line" smooth="yes"/>
      <point x="648" y="6"/>
      <point x="658" y="6"/>
      <point x="664" y="12" type="curve" smooth="yes"/>
      <point x="670" y="18"/>
      <point x="670" y="28"/>
      <point x="664" y="34" type="curve" smooth="yes"/>
    </contour>
  </outline>
</glyph>
<glyph name="yen" format="1">
  <advance width="738"/>
  <unicode hex="00A5"/>
  <outline>
    <contour>
      <point x="108" y="1203" type="line"/>
      <point x="105" y="1211"/>
      <point x="95" y="1215"/>
      <point x="88" y="1211" type="curve" smooth="yes"/>
      <point x="80" y="1208"/>
      <point x="76" y="1198"/>
      <point x="80" y="1191" type="curve" smooth="yes"/>
      <point x="363" y="535" type="line" smooth="yes"/>
      <point x="371" y="512"/>
      <point x="384" y="512"/>
      <point x="391" y="535" type="curve" smooth="yes"/>
      <point x="674" y="1191" type="line" smooth="yes"/>
      <point x="678" y="1198"/>
      <point x="674" y="1208"/>
      <point x="666" y="1211" type="curve" smooth="yes"/>
      <point x="659" y="1215"/>
      <point x="649" y="1211"/>
      <point x="646" y="1203" type="curve" smooth="yes"/>
      <point x="363" y="547" type="line"/>
      <point x="391" y="547" type="line"/>
    </contour>
    <contour>
      <point x="361" y="16" type="line"/>
      <point x="361" y="7"/>
      <point x="368" y="0"/>
      <point x="377" y="0" type="curve" smooth="yes"/>
      <point x="386" y="0"/>
      <point x="393" y="7"/>
      <point x="393" y="16" type="curve" smooth="yes"/>
      <point x="393" y="541" type="line" smooth="yes"/>
      <point x="393" y="550"/>
      <point x="386" y="557"/>
      <point x="377" y="557" type="curve" smooth="yes"/>
      <point x="368" y="557"/>
      <point x="361" y="550"/>
      <point x="361" y="541" type="curve" smooth="yes"/>
    </contour>
    <contour>
      <point x="233" y="443" type="line"/>
      <point x="224" y="443"/>
      <point x="217" y="436"/>
      <point x="217" y="427" type="curve" smooth="yes"/>
      <point x="217" y="418"/>
      <point x="224" y="411"/>
      <point x="233" y="411" type="curve" smooth="yes"/>
      <point x="516" y="411" type="line" smooth="yes"/>
      <point x="525" y="411"/>
      <point x="532" y="418"/>
      <point x="532" y="427" type="curve" smooth="yes"/>
      <point x="532" y="436"/>
      <point x="525" y="443"/>
      <point x="516" y="443" type="curve" smooth="yes"/>
    </contour>
    <contour>
      <point x="233" y="363" type="line"/>
      <point x="224" y="363"/>
      <point x="217" y="356"/>
      <point x="217" y="347" type="curve" smooth="yes"/>
      <point x="217" y="338"/>
      <point x="224" y="331"/>
      <point x="233" y="331" type="curve" smooth="yes"/>
      <point x="516" y="331" type="line" smooth="yes"/>
      <point x="525" y="331"/>
      <point x="532" y="338"/>
      <point x="532" y="347" type="curve" smooth="yes"/>
      <point x="532" y="356"/>
      <point x="525" y="363"/>
      <point x="516" y="363" type="curve" smooth="yes"/>
    </contour>
  </outline>
</glyph>
<glyph name="section" format="1">
  <advance width="1000.0"/>
  <unicode hex="00A7"/>
  <outline>
    <contour>
      <point x="546" y="921" type="curve" smooth="yes"/>
      <point x="546" y="912"/>
      <point x="553" y="905"/>
      <point x="562" y="905" type="curve" smooth="yes"/>
      <point x="571" y="905"/>
      <point x="578" y="912"/>
      <point x="578" y="921" type="curve" smooth="yes"/>
      <point x="578" y="1049"/>
      <point x="474" y="1153"/>
      <point x="346" y="1153" type="curve" smooth="yes"/>
      <point x="336" y="1153" type="line" smooth="yes"/>
      <point x="208" y="1153"/>
      <point x="104" y="1049"/>
      <point x="104" y="921" type="curve" smooth="yes"/>
      <point x="104" y="891" type="line" smooth="yes"/>
      <point x="104" y="763"/>
      <point x="208" y="659"/>
      <point x="336" y="659" type="curve" smooth="yes"/>
      <point x="371" y="659" type="line" smooth="yes"/>
      <point x="487" y="659"/>
      <point x="582" y="564"/>
      <point x="582" y="448" type="curve" smooth="yes"/>
      <point x="582" y="327" type="line" smooth="yes"/>
      <point x="582" y="211"/>
      <point x="487" y="116"/>
      <point x="371" y="116" type="curve" smooth="yes"/>
      <point x="358" y="116" type="line" smooth="yes"/>
      <point x="349" y="116"/>
      <point x="342" y="109"/>
      <point x="342" y="100" type="curve" smooth="yes"/>
      <point x="342" y="91"/>
      <point x="349" y="84"/>
      <point x="358" y="84" type="curve" smooth="yes"/>
      <point x="371" y="84" type="line" smooth="yes"/>
      <point x="505" y="84"/>
      <point x="614" y="193"/>
      <point x="614" y="327" type="curve" smooth="yes"/>
      <point x="614" y="448" type="line" smooth="yes"/>
      <point x="614" y="582"/>
      <point x="505" y="691"/>
      <point x="371" y="691" type="curve" smooth="yes"/>
      <point x="336" y="691" type="line" smooth="yes"/>
      <point x="226" y="691"/>
      <point x="136" y="781"/>
      <point x="136" y="891" type="curve" smooth="yes"/>
      <point x="136" y="921" type="line" smooth="yes"/>
      <point x="136" y="1031"/>
      <point x="226" y="1121"/>
      <point x="336" y="1121" type="curve" smooth="yes"/>
      <point x="346" y="1121" type="line" smooth="yes"/>
      <point x="456" y="1121"/>
      <point x="546" y="1031"/>
    </contour>
    <contour>
      <point x="150" y="-146" type="curve" smooth="yes"/>
      <point x="150" y="-137"/>
      <point x="143" y="-130"/>
      <point x="134" y="-130" type="curve" smooth="yes"/>
      <point x="125" y="-130"/>
      <point x="118" y="-137"/>
      <point x="118" y="-146" type="curve" smooth="yes"/>
      <point x="118" y="-274"/>
      <point x="222" y="-378"/>
      <point x="350" y="-378" type="curve" smooth="yes"/>
      <point x="360" y="-378" type="line" smooth="yes"/>
      <point x="488" y="-378"/>
      <point x="592" y="-274"/>
      <point x="592" y="-146" type="curve" smooth="yes"/>
      <point x="592" y="-116" type="line" smooth="yes"/>
      <point x="592" y="12"/>
      <point x="488" y="116"/>
      <point x="360" y="116" type="curve" smooth="yes"/>
      <point x="325" y="116" type="line" smooth="yes"/>
      <point x="208" y="116"/>
      <point x="113" y="211"/>
      <point x="113" y="327" type="curve" smooth="yes"/>
      <point x="113" y="448" type="line" smooth="yes"/>
      <point x="113" y="564"/>
      <point x="208" y="659"/>
      <point x="325" y="659" type="curve" smooth="yes"/>
      <point x="338" y="659" type="line" smooth="yes"/>
      <point x="347" y="659"/>
      <point x="354" y="666"/>
      <point x="354" y="675" type="curve" smooth="yes"/>
      <point x="354" y="684"/>
      <point x="347" y="691"/>
      <point x="338" y="691" type="curve" smooth="yes"/>
      <point x="325" y="691" type="line" smooth="yes"/>
      <point x="190" y="691"/>
      <point x="81" y="582"/>
      <point x="81" y="448" type="curve" smooth="yes"/>
      <point x="81" y="327" type="line" smooth="yes"/>
      <point x="81" y="193"/>
      <point x="190" y="84"/>
      <point x="325" y="84" type="curve" smooth="yes"/>
      <point x="360" y="84" type="line" smooth="yes"/>
      <point x="470" y="84"/>
      <point x="560" y="-6"/>
      <point x="560" y="-116" type="curve" smooth="yes"/>
      <point x="560" y="-146" type="line" smooth="yes"/>
      <point x="560" y="-256"/>
      <point x="470" y="-346"/>
      <point x="360" y="-346" type="curve" smooth="yes"/>
      <point x="350" y="-346" type="line" smooth="yes"/>
      <point x="240" y="-346"/>
      <point x="150" y="-256"/>
    </contour>
  </outline>
</glyph>
<glyph name="dieresis" format="1">
  <advance width="280.0"/>
  <unicode hex="00A8"/>
  <outline>
    <contour>
      <point x="184" y="1298" type="curve" smooth="yes"/>
      <point x="194" y="1298"/>
      <point x="204" y="1306"/>
      <point x="204" y="1318" type="curve" smooth="yes"/>
      <point x="204" y="1328"/>
      <point x="194" y="1338"/>
      <point x="184" y="1338" type="curve" smooth="yes"/>
      <point x="172" y="1338"/>
      <point x="164" y="1328"/>
      <point x="164" y="1318" type="curve" smooth="yes"/>
      <point x="164" y="1306"/>
      <point x="172" y="1298"/>
    </contour>
    <contour>
      <point x="96" y="1298" type="curve" smooth="yes"/>
      <point x="106" y="1298"/>
      <point x="116" y="1306"/>
      <point x="116" y="1318" type="curve" smooth="yes"/>
      <point x="116" y="1328"/>
      <point x="106" y="1338"/>
      <point x="96" y="1338" type="curve" smooth="yes"/>
      <point x="84" y="1338"/>
      <point x="76" y="1328"/>
      <point x="76" y="1318" type="curve" smooth="yes"/>
      <point x="76" y="1306"/>
      <point x="84" y="1298"/>
    </contour>
  </outline>
</glyph>
<glyph name="copyright" format="1">
  <advance width="762"/>
  <unicode hex="00A9"/>
  <outline>
    <contour>
      <point x="520" y="859" type="curve" smooth="yes"/>
      <point x="521" y="851"/>
      <point x="530" y="845"/>
      <point x="537" y="846" type="curve" smooth="yes"/>
      <point x="545" y="847"/>
      <point x="551" y="856"/>
      <point x="550" y="863" type="curve" smooth="yes"/>
      <point x="536" y="937"/>
      <point x="463" y="998"/>
      <point x="382" y="998" type="curve" smooth="yes"/>
      <point x="276" y="998"/>
      <point x="188" y="910"/>
      <point x="188" y="805" type="curve" smooth="yes"/>
      <point x="188" y="395" type="line" smooth="yes"/>
      <point x="188" y="289"/>
      <point x="276" y="202"/>
      <point x="382" y="202" type="curve" smooth="yes"/>
      <point x="463" y="202"/>
      <point x="536" y="262"/>
      <point x="550" y="338" type="curve" smooth="yes"/>
      <point x="551" y="345"/>
      <point x="545" y="354"/>
      <point x="537" y="355" type="curve" smooth="yes"/>
      <point x="530" y="356"/>
      <point x="521" y="350"/>
      <point x="520" y="342" type="curve" smooth="yes"/>
      <point x="506" y="280"/>
      <point x="449" y="234"/>
      <point x="382" y="234" type="curve" smooth="yes"/>
      <point x="292" y="234"/>
      <point x="220" y="306"/>
      <point x="220" y="395" type="curve" smooth="yes"/>
      <point x="220" y="805" type="line" smooth="yes"/>
      <point x="220" y="893"/>
      <point x="292" y="966"/>
      <point x="382" y="966" type="curve" smooth="yes"/>
      <point x="449" y="966"/>
      <point x="506" y="919"/>
    </contour>
    <component base="O"/>
  </outline>
</glyph>
<glyph name="logicalnot" format="1">
  <advance width="683"/>
  <unicode hex="00AC"/>
  <outline>
    <contour>
      <point x="122" y="442" type="line"/>
      <point x="113" y="442"/>
      <point x="106" y="435"/>
      <point x="106" y="426" type="curve" smooth="yes"/>
      <point x="106" y="417"/>
      <point x="113" y="410"/>
      <point x="122" y="410" type="curve" smooth="yes"/>
      <point x="561" y="410" type="line"/>
      <point x="545" y="426" type="line"/>
      <point x="545" y="214" type="line" smooth="yes"/>
      <point x="545" y="205"/>
      <point x="552" y="198"/>
      <point x="561" y="198" type="curve" smooth="yes"/>
      <point x="570" y="198"/>
      <point x="577" y="205"/>
      <point x="577" y="214" type="curve" smooth="yes"/>
      <point x="577" y="426" type="line" smooth="yes"/>
      <point x="577" y="435"/>
      <point x="570" y="442"/>
      <point x="561" y="442" type="curve" smooth="yes"/>
    </contour>
  </outline>
</glyph>
<glyph name="registered" format="1">
  <advance width="669.0"/>
  <unicode hex="00AE"/>
  <outline>
    <contour>
      <point x="210" y="242" type="line"/>
      <point x="210" y="233"/>
      <point x="217" y="226"/>
      <point x="226" y="226" type="curve" smooth="yes"/>
      <point x="235" y="226"/>
      <point x="242" y="233"/>
      <point x="242" y="242" type="curve" smooth="yes"/>
      <point x="242" y="971" type="line"/>
      <point x="226" y="955" type="line"/>
      <point x="410" y="955" type="line" smooth="yes"/>
      <point x="486" y="955"/>
      <point x="548" y="893"/>
      <point x="548" y="817" type="curve" smooth="yes"/>
      <point x="548" y="713" type="line" smooth="yes"/>
      <point x="548" y="637"/>
      <point x="486" y="575"/>
      <point x="410" y="575" type="curve" smooth="yes"/>
      <point x="238" y="574" type="line" smooth="yes"/>
      <point x="229" y="574"/>
      <point x="222" y="567"/>
      <point x="222" y="558" type="curve" smooth="yes"/>
      <point x="222" y="549"/>
      <point x="230" y="542"/>
      <point x="238" y="542" type="curve" smooth="yes"/>
      <point x="410" y="543" type="line" smooth="yes"/>
      <point x="504" y="543"/>
      <point x="580" y="619"/>
      <point x="580" y="713" type="curve" smooth="yes"/>
      <point x="580" y="817" type="line" smooth="yes"/>
      <point x="580" y="911"/>
      <point x="504" y="987"/>
      <point x="410" y="987" type="curve" smooth="yes"/>
      <point x="226" y="987" type="line" smooth="yes"/>
      <point x="217" y="987"/>
      <point x="210" y="980"/>
      <point x="210" y="971" type="curve" smooth="yes"/>
    </contour>
    <contour>
      <point x="514" y="234" type="line"/>
      <point x="517" y="226"/>
      <point x="527" y="222"/>
      <point x="534" y="226" type="curve" smooth="yes"/>
      <point x="543" y="229"/>
      <point x="546" y="239"/>
      <point x="543" y="246" type="curve" smooth="yes"/>
      <point x="411" y="558" type="line" smooth="yes"/>
      <point x="408" y="567"/>
      <point x="398" y="570"/>
      <point x="391" y="566" type="curve" smooth="yes"/>
      <point x="382" y="563"/>
      <point x="379" y="553"/>
      <point x="382" y="546" type="curve"/>
    </contour>
    <component base="O"/>
  </outline>
</glyph>
<glyph name="macron" format="1">
  <advance width="366.0"/>
  <unicode hex="00AF"/>
  <outline>
    <contour>
      <point x="274" y="1302" type="line"/>
      <point x="282" y="1302"/>
      <point x="290" y="1310"/>
      <point x="290" y="1318" type="curve" smooth="yes"/>
      <point x="290" y="1326"/>
      <point x="282" y="1334"/>
      <point x="274" y="1334" type="curve" smooth="yes"/>
      <point x="92" y="1334" type="line" smooth="yes"/>
      <point x="84" y="1334"/>
      <point x="76" y="1326"/>
      <point x="76" y="1318" type="curve" smooth="yes"/>
      <point x="76" y="1310"/>
      <point x="84" y="1302"/>
      <point x="92" y="1302" type="curve" smooth="yes"/>
    </contour>
  </outline>
</glyph>
<glyph name="degree" format="1">
  <advance width="438.0"/>
  <unicode hex="00B0"/>
  <note>
  </note>
  <outline>
    <contour>
      <point x="222" y="937" type="curve" smooth="yes"/>
      <point x="298" y="937"/>
      <point x="362" y="1002"/>
      <point x="362" y="1079" type="curve" smooth="yes"/>
      <point x="362" y="1155"/>
      <point x="298" y="1219"/>
      <point x="222" y="1219" type="curve" smooth="yes"/>
      <point x="145" y="1219"/>
      <point x="80" y="1155"/>
      <point x="80" y="1079" type="curve" smooth="yes"/>
      <point x="80" y="1002"/>
      <point x="145" y="937"/>
    </contour>
    <contour>
      <point x="222" y="969" type="curve" smooth="yes"/>
      <point x="161" y="969"/>
      <point x="112" y="1018"/>
      <point x="112" y="1079" type="curve" smooth="yes"/>
      <point x="112" y="1138"/>
      <point x="161" y="1187"/>
      <point x="222" y="1187" type="curve" smooth="yes"/>
      <point x="281" y="1187"/>
      <point x="330" y="1138"/>
      <point x="330" y="1079" type="curve" smooth="yes"/>
      <point x="330" y="1018"/>
      <point x="281" y="969"/>
    </contour>
  </outline>
</glyph>
<glyph name="paragraph" format="1">
  <advance width="595"/>
  <unicode hex="00B6"/>
  <outline>
    <contour>
      <point x="447" y="16" type="line"/>
      <point x="447" y="7"/>
      <point x="454" y="0"/>
      <point x="463" y="0" type="curve" smooth="yes"/>
      <point x="472" y="0"/>
      <point x="479" y="7"/>
      <point x="479" y="16" type="curve" smooth="yes"/>
      <point x="479" y="1184" type="line" smooth="yes"/>
      <point x="479" y="1193"/>
      <point x="472" y="1200"/>
      <point x="463" y="1200" type="curve" smooth="yes"/>
      <point x="454" y="1200"/>
      <point x="447" y="1193"/>
      <point x="447" y="1184" type="curve" smooth="yes"/>
    </contour>
    <contour>
      <point x="357" y="16" type="line"/>
      <point x="357" y="7"/>
      <point x="364" y="0"/>
      <point x="373" y="0" type="curve" smooth="yes"/>
      <point x="382" y="0"/>
      <point x="389" y="7"/>
      <point x="389" y="16" type="curve" smooth="yes"/>
      <point x="389" y="1184" type="line" smooth="yes"/>
      <point x="389" y="1193"/>
      <point x="382" y="1200"/>
      <point x="373" y="1200" type="curve" smooth="yes"/>
      <point x="364" y="1200"/>
      <point x="357" y="1193"/>
      <point x="357" y="1184" type="curve" smooth="yes"/>
    </contour>
    <contour>
      <point x="499" y="1184" type="line"/>
      <point x="508" y="1184"/>
      <point x="515" y="1191"/>
      <point x="515" y="1200" type="curve" smooth="yes"/>
      <point x="515" y="1209"/>
      <point x="508" y="1216"/>
      <point x="499" y="1216" type="curve" smooth="yes"/>
      <point x="289" y="1216" type="line" smooth="yes"/>
      <point x="174" y="1216"/>
      <point x="80" y="1122"/>
      <point x="80" y="1007" type="curve" smooth="yes"/>
      <point x="80" y="891"/>
      <point x="174" y="797"/>
      <point x="289" y="797" type="curve" smooth="yes"/>
      <point x="366" y="797" type="line" smooth="yes"/>
      <point x="375" y="797"/>
      <point x="382" y="804"/>
      <point x="382" y="813" type="curve" smooth="yes"/>
      <point x="382" y="822"/>
      <point x="375" y="829"/>
      <point x="366" y="829" type="curve" smooth="yes"/>
      <point x="289" y="829" type="line" smooth="yes"/>
      <point x="192" y="829"/>
      <point x="112" y="909"/>
      <point x="112" y="1007" type="curve" smooth="yes"/>
      <point x="112" y="1104"/>
      <point x="192" y="1184"/>
      <point x="289" y="1184" type="curve" smooth="yes"/>
    </contour>
  </outline>
</glyph>
<glyph name="questiondown" format="1">
  <advance width="712"/>
  <unicode hex="00BF"/>
  <outline>
    <contour>
      <point x="356" y="1220" type="curve" smooth="yes"/>
      <point x="344" y="1220"/>
      <point x="332" y="1208"/>
      <point x="332" y="1196" type="curve" smooth="yes"/>
      <point x="332" y="1184"/>
      <point x="344" y="1172"/>
      <point x="356" y="1172" type="curve" smooth="yes"/>
      <point x="368" y="1172"/>
      <point x="380" y="1184"/>
      <point x="380" y="1196" type="curve" smooth="yes"/>
      <point x="380" y="1208"/>
      <point x="368" y="1220"/>
    </contour>
    <contour>
      <point x="372" y="953" type="line"/>
      <point x="372" y="962"/>
      <point x="365" y="969"/>
      <point x="356" y="969" type="curve" smooth="yes"/>
      <point x="347" y="969"/>
      <point x="340" y="962"/>
      <point x="340" y="953" type="curve" smooth="yes"/>
      <point x="340" y="646" type="line"/>
      <point x="356" y="662" type="line"/>
      <point x="204" y="662"/>
      <point x="80" y="538"/>
      <point x="80" y="386" type="curve" smooth="yes"/>
      <point x="80" y="260" type="line" smooth="yes"/>
      <point x="80" y="108"/>
      <point x="204" y="-16"/>
      <point x="356" y="-16" type="curve" smooth="yes"/>
      <point x="508" y="-16"/>
      <point x="632" y="108"/>
      <point x="632" y="260" type="curve" smooth="yes"/>
      <point x="632" y="269"/>
      <point x="625" y="276"/>
      <point x="616" y="276" type="curve" smooth="yes"/>
      <point x="607" y="276"/>
      <point x="600" y="269"/>
      <point x="600" y="260" type="curve" smooth="yes"/>
      <point x="600" y="126"/>
      <point x="490" y="16"/>
      <point x="356" y="16" type="curve" smooth="yes"/>
      <point x="222" y="16"/>
      <point x="112" y="126"/>
      <point x="112" y="260" type="curve" smooth="yes"/>
      <point x="112" y="386" type="line" smooth="yes"/>
      <point x="112" y="520"/>
      <point x="222" y="630"/>
      <point x="356" y="630" type="curve" smooth="yes"/>
      <point x="365" y="630"/>
      <point x="372" y="637"/>
      <point x="372" y="646" type="curve" smooth="yes"/>
    </contour>
  </outline>
</glyph>
<glyph name="AE" format="1">
  <advance width="839.0"/>
  <unicode hex="00C6"/>
  <outline>
    <contour>
      <point x="743" y="1181" type="line"/>
      <point x="752" y="1181"/>
      <point x="759" y="1188"/>
      <point x="759" y="1197" type="curve" smooth="yes"/>
      <point x="759" y="1206"/>
      <point x="752" y="1213"/>
      <point x="743" y="1213" type="curve" smooth="yes"/>
      <point x="319" y="1213" type="line" smooth="yes"/>
      <point x="312" y="1213"/>
      <point x="305" y="1207"/>
      <point x="303" y="1200" type="curve" smooth="yes"/>
      <point x="72" y="19" type="line" smooth="yes"/>
      <point x="71" y="10"/>
      <point x="77" y="2"/>
      <point x="85" y="0" type="curve" smooth="yes"/>
      <point x="94" y="-1"/>
      <point x="102" y="5"/>
      <point x="104" y="13" type="curve" smooth="yes"/>
      <point x="335" y="1194" type="line"/>
      <point x="319" y="1181" type="line"/>
    </contour>
    <contour>
      <point x="143" y="287" type="line"/>
      <point x="134" y="287"/>
      <point x="127" y="280"/>
      <point x="127" y="271" type="curve" smooth="yes"/>
      <point x="127" y="262"/>
      <point x="134" y="255"/>
      <point x="143" y="255" type="curve" smooth="yes"/>
      <point x="364" y="255" type="line" smooth="yes"/>
      <point x="373" y="255"/>
      <point x="380" y="262"/>
      <point x="380" y="271" type="curve" smooth="yes"/>
      <point x="380" y="280"/>
      <point x="373" y="287"/>
      <point x="364" y="287" type="curve" smooth="yes"/>
    </contour>
    <contour>
      <point x="743" y="0" type="line"/>
      <point x="752" y="0"/>
      <point x="759" y="7"/>
      <point x="759" y="16" type="curve" smooth="yes"/>
      <point x="759" y="25"/>
      <point x="752" y="32"/>
      <point x="743" y="32" type="curve" smooth="yes"/>
      <point x="369" y="32" type="line"/>
      <point x="385" y="16" type="line"/>
      <point x="385" y="1193" type="line" smooth="yes"/>
      <point x="385" y="1202"/>
      <point x="378" y="1209"/>
      <point x="369" y="1209" type="curve" smooth="yes"/>
      <point x="360" y="1209"/>
      <point x="353" y="1202"/>
      <point x="353" y="1193" type="curve" smooth="yes"/>
      <point x="353" y="16" type="line" smooth="yes"/>
      <point x="353" y="7"/>
      <point x="360" y="0"/>
      <point x="369" y="0" type="curve" smooth="yes"/>
    </contour>
    <contour>
      <point x="371" y="562" type="line"/>
      <point x="362" y="562"/>
      <point x="355" y="555"/>
      <point x="355" y="546" type="curve" smooth="yes"/>
      <point x="355" y="537"/>
      <point x="362" y="530"/>
      <point x="371" y="530" type="curve" smooth="yes"/>
      <point x="621" y="530" type="line" smooth="yes"/>
      <point x="630" y="530"/>
      <point x="637" y="537"/>
      <point x="637" y="546" type="curve" smooth="yes"/>
      <point x="637" y="555"/>
      <point x="630" y="562"/>
      <point x="621" y="562" type="curve" smooth="yes"/>
    </contour>
  </outline>
</glyph>
<glyph name="multiply" format="1">
  <advance width="684.0"/>
  <unicode hex="00D7"/>
  <outline>
    <contour>
      <point x="226" y="197" type="curve" smooth="yes"/>
      <point x="228" y="196"/>
      <point x="570" y="535"/>
      <point x="571" y="536" type="curve" smooth="yes"/>
      <point x="577" y="542"/>
      <point x="577" y="552"/>
      <point x="571" y="558" type="curve" smooth="yes"/>
      <point x="566" y="563"/>
      <point x="461" y="660"/>
      <point x="456" y="655" type="curve" smooth="yes"/>
      <point x="455" y="656"/>
      <point x="113" y="317"/>
      <point x="112" y="316" type="curve" smooth="yes"/>
      <point x="106" y="310"/>
      <point x="106" y="300"/>
      <point x="112" y="294" type="curve" smooth="yes"/>
      <point x="117" y="289"/>
      <point x="222" y="192"/>
    </contour>
    <contour>
      <point x="214" y="633" type="curve" smooth="yes"/>
      <point x="215" y="634"/>
      <point x="555" y="297"/>
      <point x="554" y="298" type="curve" smooth="yes"/>
      <point x="557" y="295"/>
      <point x="563" y="295"/>
      <point x="567" y="298" type="curve" smooth="yes"/>
      <point x="572" y="303"/>
      <point x="475" y="214"/>
      <point x="470" y="219" type="curve" smooth="yes"/>
      <point x="469" y="218"/>
      <point x="129" y="555"/>
      <point x="130" y="554" type="curve" smooth="yes"/>
      <point x="126" y="557"/>
      <point x="120" y="557"/>
      <point x="117" y="554" type="curve" smooth="yes"/>
      <point x="112" y="549"/>
      <point x="209" y="638"/>
    </contour>
  </outline>
</glyph>
<glyph name="Oslash" format="1">
  <advance width="762"/>
  <unicode hex="00D8"/>
  <outline>
    <contour>
      <point x="649" y="1177" type="line"/>
      <point x="653" y="1184"/>
      <point x="649" y="1194"/>
      <point x="641" y="1197" type="curve" smooth="yes"/>
      <point x="633" y="1201"/>
      <point x="624" y="1197"/>
      <point x="620" y="1189" type="curve" smooth="yes"/>
      <point x="112" y="36" type="line" smooth="yes"/>
      <point x="108" y="29"/>
      <point x="112" y="19"/>
      <point x="120" y="16" type="curve" smooth="yes"/>
      <point x="127" y="12"/>
      <point x="137" y="16"/>
      <point x="140" y="24" type="curve" smooth="yes"/>
    </contour>
    <component base="O"/>
  </outline>
</glyph>
<glyph name="Thorn" format="1">
  <advance width="742"/>
  <unicode hex="00DE"/>
  <outline>
    <contour>
      <point x="81" y="-160" type="line"/>
      <point x="81" y="-168"/>
      <point x="88" y="-175"/>
      <point x="96" y="-175" type="curve" smooth="yes"/>
      <point x="104" y="-175"/>
      <point x="111" y="-168"/>
      <point x="111" y="-160" type="curve" smooth="yes"/>
      <point x="111" y="1200" type="line" smooth="yes"/>
      <point x="111" y="1208"/>
      <point x="104" y="1215"/>
      <point x="96" y="1215" type="curve" smooth="yes"/>
      <point x="88" y="1215"/>
      <point x="81" y="1208"/>
      <point x="81" y="1200" type="curve" smooth="yes"/>
    </contour>
    <contour>
      <point x="106" y="915" type="line"/>
      <point x="98" y="915"/>
      <point x="91" y="908"/>
      <point x="91" y="900" type="curve" smooth="yes"/>
      <point x="91" y="892"/>
      <point x="98" y="885"/>
      <point x="106" y="885" type="curve" smooth="yes"/>
      <point x="372" y="885" type="line" smooth="yes"/>
      <point x="515" y="885"/>
      <point x="633" y="768"/>
      <point x="633" y="624" type="curve" smooth="yes"/>
      <point x="633" y="276" type="line" smooth="yes"/>
      <point x="633" y="132"/>
      <point x="515" y="15"/>
      <point x="372" y="15" type="curve" smooth="yes"/>
      <point x="106" y="15" type="line" smooth="yes"/>
      <point x="97" y="15"/>
      <point x="91" y="8"/>
      <point x="91" y="0" type="curve" smooth="yes"/>
      <point x="91" y="-8"/>
      <point x="97" y="-15"/>
      <point x="106" y="-15" type="curve" smooth="yes"/>
      <point x="372" y="-15" type="line" smooth="yes"/>
      <point x="532" y="-15"/>
      <point x="662" y="115"/>
      <point x="662" y="276" type="curve" smooth="yes"/>
      <point x="662" y="624" type="line" smooth="yes"/>
      <point x="662" y="784"/>
      <point x="532" y="915"/>
      <point x="372" y="915" type="curve" smooth="yes"/>
    </contour>
  </outline>
</glyph>
<glyph name="ae" format="1">
  <advance width="1203.0"/>
  <unicode hex="00E6"/>
  <outline>
    <contour>
      <point x="585" y="29" type="line"/>
      <point x="585" y="20"/>
      <point x="592" y="13"/>
      <point x="601" y="13" type="curve" smooth="yes"/>
      <point x="610" y="13"/>
      <point x="617" y="20"/>
      <point x="617" y="29" type="curve" smooth="yes"/>
      <point x="617" y="657" type="line" smooth="yes"/>
      <point x="600" y="785"/>
      <point x="490" y="884"/>
      <point x="356" y="884" type="curve" smooth="yes"/>
      <point x="204" y="884"/>
      <point x="80" y="761"/>
      <point x="80" y="608" type="curve" smooth="yes"/>
      <point x="80" y="260" type="line" smooth="yes"/>
      <point x="80" y="108"/>
      <point x="204" y="-16"/>
      <point x="356" y="-16" type="curve" smooth="yes"/>
      <point x="490" y="-16"/>
      <point x="600" y="85"/>
      <point x="617" y="189" type="curve" smooth="yes"/>
      <point x="618" y="198"/>
      <point x="612" y="205"/>
      <point x="603" y="206" type="curve" smooth="yes"/>
      <point x="594" y="207"/>
      <point x="587" y="201"/>
      <point x="586" y="192" type="curve" smooth="yes"/>
      <point x="570" y="101"/>
      <point x="472" y="16"/>
      <point x="356" y="16" type="curve" smooth="yes"/>
      <point x="222" y="16"/>
      <point x="112" y="126"/>
      <point x="112" y="260" type="curve" smooth="yes"/>
      <point x="112" y="608" type="line" smooth="yes"/>
      <point x="112" y="743"/>
      <point x="222" y="852"/>
      <point x="356" y="852" type="curve" smooth="yes"/>
      <point x="473" y="852"/>
      <point x="570" y="766"/>
      <point x="585" y="655" type="curve" smooth="yes"/>
    </contour>
    <contour>
      <point x="586" y="658" type="curve" smooth="yes"/>
      <point x="585" y="650"/>
      <point x="591" y="642"/>
      <point x="600" y="641" type="curve" smooth="yes"/>
      <point x="608" y="640"/>
      <point x="616" y="646"/>
      <point x="617" y="655" type="curve" smooth="yes"/>
      <point x="632" y="766"/>
      <point x="730" y="852"/>
      <point x="847" y="852" type="curve" smooth="yes"/>
      <point x="981" y="852"/>
      <point x="1091" y="743"/>
      <point x="1091" y="608" type="curve" smooth="yes"/>
      <point x="1091" y="440" type="line"/>
      <point x="1107" y="456" type="line"/>
      <point x="605" y="456" type="line" smooth="yes"/>
      <point x="596" y="456"/>
      <point x="589" y="449"/>
      <point x="589" y="440" type="curve" smooth="yes"/>
      <point x="589" y="431"/>
      <point x="596" y="424"/>
      <point x="605" y="424" type="curve" smooth="yes"/>
      <point x="1107" y="424" type="line" smooth="yes"/>
      <point x="1116" y="424"/>
      <point x="1123" y="431"/>
      <point x="1123" y="440" type="curve" smooth="yes"/>
      <point x="1123" y="608" type="line" smooth="yes"/>
      <point x="1123" y="761"/>
      <point x="999" y="884"/>
      <point x="847" y="884" type="curve" smooth="yes"/>
      <point x="713" y="884"/>
      <point x="602" y="785"/>
    </contour>
    <contour>
      <point x="1096" y="194" type="curve" smooth="yes"/>
      <point x="1097" y="202"/>
      <point x="1091" y="210"/>
      <point x="1083" y="211" type="curve" smooth="yes"/>
      <point x="1074" y="212"/>
      <point x="1067" y="207"/>
      <point x="1066" y="198" type="curve" smooth="yes"/>
      <point x="1050" y="96"/>
      <point x="958" y="16"/>
      <point x="847" y="16" type="curve" smooth="yes"/>
      <point x="730" y="16"/>
      <point x="632" y="103"/>
      <point x="617" y="213" type="curve" smooth="yes"/>
      <point x="616" y="222"/>
      <point x="608" y="228"/>
      <point x="600" y="227" type="curve" smooth="yes"/>
      <point x="591" y="226"/>
      <point x="585" y="219"/>
      <point x="586" y="210" type="curve" smooth="yes"/>
      <point x="602" y="83"/>
      <point x="713" y="-16"/>
      <point x="847" y="-16" type="curve" smooth="yes"/>
      <point x="974" y="-16"/>
      <point x="1079" y="76"/>
    </contour>
  </outline>
</glyph>
<glyph name="eth" format="1">
  <advance width="712"/>
  <unicode hex="00F0"/>
  <outline>
    <contour>
      <point x="510" y="1041" type="line"/>
      <point x="502" y="1037"/>
      <point x="500" y="1026"/>
      <point x="504" y="1019" type="curve" smooth="yes"/>
      <point x="508" y="1011"/>
      <point x="519" y="1009"/>
      <point x="526" y="1013" type="curve" smooth="yes"/>
      <point x="676" y="1100" type="line" smooth="yes"/>
      <point x="684" y="1104"/>
      <point x="686" y="1115"/>
      <point x="682" y="1122" type="curve" smooth="yes"/>
      <point x="678" y="1130"/>
      <point x="667" y="1132"/>
      <point x="660" y="1128" type="curve" smooth="yes"/>
    </contour>
    <component base="partialdiff"/>
    <component base="partialdiff"/>
  </outline>
</glyph>
<glyph name="divide" format="1">
  <advance width="683"/>
  <unicode hex="00F7"/>
  <outline>
    <contour>
      <point x="340" y="274" type="curve" smooth="yes"/>
      <point x="352" y="274"/>
      <point x="364" y="286"/>
      <point x="364" y="298" type="curve" smooth="yes"/>
      <point x="364" y="310"/>
      <point x="352" y="322"/>
      <point x="340" y="322" type="curve" smooth="yes"/>
      <point x="328" y="322"/>
      <point x="316" y="310"/>
      <point x="316" y="298" type="curve" smooth="yes"/>
      <point x="316" y="286"/>
      <point x="328" y="274"/>
    </contour>
    <contour>
      <point x="340" y="530" type="curve" smooth="yes"/>
      <point x="352" y="530"/>
      <point x="364" y="542"/>
      <point x="364" y="554" type="curve" smooth="yes"/>
      <point x="364" y="566"/>
      <point x="352" y="578"/>
      <point x="340" y="578" type="curve" smooth="yes"/>
      <point x="328" y="578"/>
      <point x="316" y="566"/>
      <point x="316" y="554" type="curve" smooth="yes"/>
      <point x="316" y="542"/>
      <point x="328" y="530"/>
    </contour>
    <contour>
      <point x="561" y="410" type="line"/>
      <point x="570" y="410"/>
      <point x="577" y="417"/>
      <point x="577" y="426" type="curve" smooth="yes"/>
      <point x="577" y="435"/>
      <point x="570" y="442"/>
      <point x="561" y="442" type="curve" smooth="yes"/>
      <point x="122" y="442" type="line" smooth="yes"/>
      <point x="113" y="442"/>
      <point x="106" y="435"/>
      <point x="106" y="426" type="curve" smooth="yes"/>
      <point x="106" y="417"/>
      <point x="113" y="410"/>
      <point x="122" y="410" type="curve" smooth="yes"/>
    </contour>
  </outline>
</glyph>
<glyph name="oslash" format="1">
  <advance width="712"/>
  <unicode hex="00F8"/>
  <outline>
    <contour>
      <point x="568" y="859" type="line"/>
      <point x="572" y="867"/>
      <point x="568" y="876"/>
      <point x="560" y="879" type="curve" smooth="yes"/>
      <point x="552" y="883"/>
      <point x="543" y="880"/>
      <point x="539" y="871" type="curve" smooth="yes"/>
      <point x="141" y="8" type="line" smooth="yes"/>
      <point x="137" y="1"/>
      <point x="140" y="-9"/>
      <point x="149" y="-12" type="curve" smooth="yes"/>
      <point x="157" y="-16"/>
      <point x="166" y="-12"/>
      <point x="169" y="-4" type="curve" smooth="yes"/>
    </contour>
    <component base="o"/>
  </outline>
</glyph>
<glyph name="thorn" format="1">
  <advance width="616.0"/>
  <unicode hex="00FE"/>
  <outline>
    <contour>
      <point x="80" y="-160" type="line"/>
      <point x="80" y="-169"/>
      <point x="87" y="-176"/>
      <point x="96" y="-176" type="curve" smooth="yes"/>
      <point x="105" y="-176"/>
      <point x="112" y="-169"/>
      <point x="112" y="-160" type="curve" smooth="yes"/>
      <point x="112" y="1200" type="line" smooth="yes"/>
      <point x="112" y="1209"/>
      <point x="105" y="1216"/>
      <point x="96" y="1216" type="curve" smooth="yes"/>
      <point x="87" y="1216"/>
      <point x="80" y="1209"/>
      <point x="80" y="1200" type="curve" smooth="yes"/>
    </contour>
    <contour>
      <point x="80" y="608" type="curve" smooth="yes"/>
      <point x="80" y="599"/>
      <point x="87" y="592"/>
      <point x="96" y="592" type="curve" smooth="yes"/>
      <point x="105" y="592"/>
      <point x="112" y="599"/>
      <point x="112" y="608" type="curve" smooth="yes"/>
      <point x="112" y="743"/>
      <point x="222" y="852"/>
      <point x="356" y="852" type="curve" smooth="yes"/>
      <point x="490" y="852"/>
      <point x="600" y="743"/>
      <point x="600" y="608" type="curve" smooth="yes"/>
      <point x="600" y="260" type="line" smooth="yes"/>
      <point x="600" y="126"/>
      <point x="490" y="16"/>
      <point x="356" y="16" type="curve" smooth="yes"/>
      <point x="222" y="16"/>
      <point x="112" y="126"/>
      <point x="112" y="260" type="curve" smooth="yes"/>
      <point x="112" y="269"/>
      <point x="105" y="276"/>
      <point x="96" y="276" type="curve" smooth="yes"/>
      <point x="87" y="276"/>
      <point x="80" y="269"/>
      <point x="80" y="260" type="curve" smooth="yes"/>
      <point x="80" y="108"/>
      <point x="204" y="-16"/>
      <point x="356" y="-16" type="curve" smooth="yes"/>
      <point x="508" y="-16"/>
      <point x="632" y="108"/>
      <point x="632" y="260" type="curve" smooth="yes"/>
      <point x="632" y="608" type="line" smooth="yes"/>
      <point x="632" y="761"/>
      <point x="508" y="884"/>
      <point x="356" y="884" type="curve" smooth="yes"/>
      <point x="204" y="884"/>
      <point x="80" y="761"/>
    </contour>
  </outline>
</glyph>
<glyph name="Hbar" format="1">
  <advance width="762"/>
  <unicode hex="0126"/>
  <outline>
    <contour>
      <point x="736" y="978" type="line"/>
      <point x="744" y="978"/>
      <point x="752" y="986"/>
      <point x="752" y="994" type="curve" smooth="yes"/>
      <point x="752" y="1002"/>
      <point x="744" y="1010"/>
      <point x="736" y="1010" type="curve" smooth="yes"/>
      <point x="26" y="1010" type="line" smooth="yes"/>
      <point x="18" y="1010"/>
      <point x="10" y="1002"/>
      <point x="10" y="994" type="curve" smooth="yes"/>
      <point x="10" y="986"/>
      <point x="18" y="978"/>
      <point x="26" y="978" type="curve" smooth="yes"/>
    </contour>
    <component base="H"/>
  </outline>
</glyph>
<glyph name="dotlessi" format="1">
  <advance width="228.0"/>
  <unicode hex="0131"/>
  <outline>
    <contour>
      <point x="114" y="868" type="curve" smooth="yes"/>
      <point x="106" y="868"/>
      <point x="98" y="860"/>
      <point x="98" y="852" type="curve" smooth="yes"/>
      <point x="98" y="16" type="line" smooth="yes"/>
      <point x="98" y="8"/>
      <point x="106" y="0"/>
      <point x="114" y="0" type="curve" smooth="yes"/>
      <point x="122" y="0"/>
      <point x="130" y="8"/>
      <point x="130" y="16" type="curve" smooth="yes"/>
      <point x="130" y="852" type="line" smooth="yes"/>
      <point x="130" y="860"/>
      <point x="122" y="868"/>
    </contour>
  </outline>
</glyph>
<glyph name="lslash" format="1">
  <advance width="226"/>
  <unicode hex="0142"/>
  <outline>
    <contour>
      <point x="196" y="884" type="line"/>
      <point x="203" y="888"/>
      <point x="206" y="899"/>
      <point x="202" y="906" type="curve" smooth="yes"/>
      <point x="198" y="912"/>
      <point x="187" y="915"/>
      <point x="180" y="911" type="curve" smooth="yes"/>
      <point x="30" y="824" type="line" smooth="yes"/>
      <point x="23" y="820"/>
      <point x="20" y="809"/>
      <point x="24" y="803" type="curve" smooth="yes"/>
      <point x="28" y="796"/>
      <point x="39" y="793"/>
      <point x="46" y="797" type="curve" smooth="yes"/>
    </contour>
    <component base="l" xOffset="-1"/>
  </outline>
</glyph>
<glyph name="OE" format="1">
  <advance width="1118.0"/>
  <unicode hex="0152"/>
  <outline>
    <contour>
      <point x="1023" y="6" type="line"/>
      <point x="1028" y="6"/>
      <point x="1033" y="11"/>
      <point x="1033" y="16" type="curve" smooth="yes"/>
      <point x="1033" y="21"/>
      <point x="1028" y="26"/>
      <point x="1023" y="26" type="curve" smooth="yes"/>
      <point x="620" y="26" type="line"/>
      <point x="630" y="16" type="line"/>
      <point x="630" y="1184" type="line"/>
      <point x="620" y="1174" type="line"/>
      <point x="1023" y="1174" type="line" smooth="yes"/>
      <point x="1028" y="1174"/>
      <point x="1033" y="1179"/>
      <point x="1033" y="1184" type="curve" smooth="yes"/>
      <point x="1033" y="1189"/>
      <point x="1028" y="1194"/>
      <point x="1023" y="1194" type="curve" smooth="yes"/>
      <point x="620" y="1194" type="line" smooth="yes"/>
      <point x="614" y="1194"/>
      <point x="610" y="1190"/>
      <point x="610" y="1184" type="curve" smooth="yes"/>
      <point x="610" y="16" type="line" smooth="yes"/>
      <point x="610" y="10"/>
      <point x="614" y="6"/>
      <point x="620" y="6" type="curve" smooth="yes"/>
    </contour>
    <contour>
      <point x="629" y="556" type="line"/>
      <point x="624" y="556"/>
      <point x="619" y="551"/>
      <point x="619" y="546" type="curve" smooth="yes"/>
      <point x="619" y="541"/>
      <point x="624" y="536"/>
      <point x="629" y="536" type="curve" smooth="yes"/>
      <point x="821" y="536" type="line" smooth="yes"/>
      <point x="826" y="536"/>
      <point x="831" y="541"/>
      <point x="831" y="546" type="curve" smooth="yes"/>
      <point x="831" y="551"/>
      <point x="826" y="556"/>
      <point x="821" y="556" type="curve" smooth="yes"/>
    </contour>
    <contour>
      <point x="605" y="1042" type="curve" smooth="yes"/>
      <point x="607" y="1036"/>
      <point x="613" y="1034"/>
      <point x="618" y="1036" type="curve" smooth="yes"/>
      <point x="623" y="1037"/>
      <point x="625" y="1043"/>
      <point x="624" y="1048" type="curve" smooth="yes"/>
      <point x="586" y="1142"/>
      <point x="491" y="1210"/>
      <point x="380" y="1210" type="curve" smooth="yes"/>
      <point x="217" y="1210"/>
      <point x="85" y="1078"/>
      <point x="85" y="915" type="curve" smooth="yes"/>
      <point x="85" y="282" type="line" smooth="yes"/>
      <point x="85" y="119"/>
      <point x="217" y="-13"/>
      <point x="380" y="-13" type="curve" smooth="yes"/>
      <point x="491" y="-13"/>
      <point x="587" y="55"/>
      <point x="624" y="149" type="curve" smooth="yes"/>
      <point x="626" y="154"/>
      <point x="623" y="160"/>
      <point x="618" y="161" type="curve" smooth="yes"/>
      <point x="613" y="163"/>
      <point x="607" y="160"/>
      <point x="606" y="155" type="curve" smooth="yes"/>
      <point x="571" y="70"/>
      <point x="482" y="7"/>
      <point x="380" y="7" type="curve" smooth="yes"/>
      <point x="229" y="7"/>
      <point x="105" y="131"/>
      <point x="105" y="282" type="curve" smooth="yes"/>
      <point x="105" y="915" type="line" smooth="yes"/>
      <point x="105" y="1066"/>
      <point x="229" y="1190"/>
      <point x="380" y="1190" type="curve" smooth="yes"/>
      <point x="482" y="1190"/>
      <point x="570" y="1127"/>
    </contour>
  </outline>
</glyph>
<glyph name="oe" format="1">
  <advance width="1193"/>
  <unicode hex="0153"/>
  <outline>
    <contour>
      <point x="1085" y="194" type="curve" smooth="yes"/>
      <point x="1087" y="202"/>
      <point x="1081" y="210"/>
      <point x="1073" y="211" type="curve" smooth="yes"/>
      <point x="1064" y="212"/>
      <point x="1057" y="207"/>
      <point x="1055" y="198" type="curve" smooth="yes"/>
      <point x="1040" y="96"/>
      <point x="947" y="16"/>
      <point x="837" y="16" type="curve" smooth="yes"/>
      <point x="723" y="16"/>
      <point x="627" y="100"/>
      <point x="611" y="207" type="curve" smooth="yes"/>
      <point x="611" y="661" type="line" smooth="yes"/>
      <point x="627" y="768"/>
      <point x="723" y="852"/>
      <point x="837" y="852" type="curve" smooth="yes"/>
      <point x="971" y="852"/>
      <point x="1081" y="743"/>
      <point x="1081" y="608" type="curve" smooth="yes"/>
      <point x="1081" y="440" type="line"/>
      <point x="1097" y="456" type="line"/>
      <point x="605" y="456" type="line" smooth="yes"/>
      <point x="596" y="456"/>
      <point x="589" y="449"/>
      <point x="589" y="440" type="curve" smooth="yes"/>
      <point x="589" y="431"/>
      <point x="596" y="424"/>
      <point x="605" y="424" type="curve" smooth="yes"/>
      <point x="1097" y="424" type="line" smooth="yes"/>
      <point x="1106" y="424"/>
      <point x="1113" y="431"/>
      <point x="1113" y="440" type="curve" smooth="yes"/>
      <point x="1113" y="608" type="line" smooth="yes"/>
      <point x="1113" y="761"/>
      <point x="989" y="884"/>
      <point x="837" y="884" type="curve" smooth="yes"/>
      <point x="706" y="884"/>
      <point x="597" y="788"/>
      <point x="579" y="664" type="curve" smooth="yes"/>
      <point x="579" y="204" type="line" smooth="yes"/>
      <point x="597" y="80"/>
      <point x="706" y="-16"/>
      <point x="837" y="-16" type="curve" smooth="yes"/>
      <point x="963" y="-16"/>
      <point x="1068" y="76"/>
    </contour>
    <contour>
      <point x="580" y="663" type="curve" smooth="yes"/>
      <point x="581" y="655"/>
      <point x="589" y="649"/>
      <point x="597" y="650" type="curve" smooth="yes"/>
      <point x="606" y="651"/>
      <point x="612" y="659"/>
      <point x="611" y="667" type="curve" smooth="yes"/>
      <point x="593" y="789"/>
      <point x="486" y="884"/>
      <point x="356" y="884" type="curve" smooth="yes"/>
      <point x="204" y="884"/>
      <point x="80" y="761"/>
      <point x="80" y="608" type="curve" smooth="yes"/>
      <point x="80" y="260" type="line" smooth="yes"/>
      <point x="80" y="108"/>
      <point x="204" y="-16"/>
      <point x="356" y="-16" type="curve" smooth="yes"/>
      <point x="486" y="-16"/>
      <point x="593" y="79"/>
      <point x="611" y="201" type="curve" smooth="yes"/>
      <point x="612" y="210"/>
      <point x="606" y="217"/>
      <point x="597" y="218" type="curve" smooth="yes"/>
      <point x="589" y="219"/>
      <point x="581" y="214"/>
      <point x="580" y="205" type="curve" smooth="yes"/>
      <point x="564" y="99"/>
      <point x="469" y="16"/>
      <point x="356" y="16" type="curve" smooth="yes"/>
      <point x="222" y="16"/>
      <point x="112" y="126"/>
      <point x="112" y="260" type="curve" smooth="yes"/>
      <point x="112" y="608" type="line" smooth="yes"/>
      <point x="112" y="743"/>
      <point x="222" y="852"/>
      <point x="356" y="852" type="curve" smooth="yes"/>
      <point x="469" y="852"/>
      <point x="564" y="769"/>
    </contour>
  </outline>
</glyph>
<glyph name="longs" format="1">
  <advance width="372"/>
  <unicode hex="017F"/>
  <outline>
    <contour>
      <point x="356" y="1216" type="curve" smooth="yes"/>
      <point x="204" y="1216"/>
      <point x="80" y="1092"/>
      <point x="80" y="940" type="curve"/>
      <point x="80" y="16" type="line" smooth="yes"/>
      <point x="80" y="8"/>
      <point x="88" y="0"/>
      <point x="96" y="0" type="curve" smooth="yes"/>
      <point x="104" y="0"/>
      <point x="112" y="8"/>
      <point x="112" y="16" type="curve"/>
      <point x="112" y="940" type="line"/>
      <point x="112" y="1074"/>
      <point x="222" y="1184"/>
      <point x="356" y="1184" type="curve" smooth="yes"/>
      <point x="364" y="1184"/>
      <point x="372" y="1192"/>
      <point x="372" y="1200" type="curve" smooth="yes"/>
      <point x="372" y="1208"/>
      <point x="364" y="1216"/>
    </contour>
  </outline>
</glyph>
<glyph name="florin" format="1">
  <advance width="412"/>
  <unicode hex="0192"/>
  <outline>
    <contour>
      <point x="356" y="1184" type="curve" smooth="yes"/>
      <point x="365" y="1184"/>
      <point x="372" y="1191"/>
      <point x="372" y="1200" type="curve" smooth="yes"/>
      <point x="372" y="1209"/>
      <point x="365" y="1216"/>
      <point x="356" y="1216" type="curve" smooth="yes"/>
      <point x="204" y="1216"/>
      <point x="80" y="1092"/>
      <point x="80" y="940" type="curve" smooth="yes"/>
      <point x="80" y="16" type="line" smooth="yes"/>
      <point x="80" y="-52"/>
      <point x="24" y="-108"/>
      <point x="-44" y="-108" type="curve" smooth="yes"/>
      <point x="-53" y="-108"/>
      <point x="-60" y="-115"/>
      <point x="-60" y="-124" type="curve" smooth="yes"/>
      <point x="-60" y="-133"/>
      <point x="-53" y="-140"/>
      <point x="-44" y="-140" type="curve" smooth="yes"/>
      <point x="42" y="-140"/>
      <point x="112" y="-70"/>
      <point x="112" y="16" type="curve" smooth="yes"/>
      <point x="112" y="940" type="line" smooth="yes"/>
      <point x="112" y="1074"/>
      <point x="222" y="1184"/>
    </contour>
    <contour>
      <point x="256" y="615" type="line"/>
      <point x="265" y="615"/>
      <point x="272" y="622"/>
      <point x="272" y="631" type="curve" smooth="yes"/>
      <point x="272" y="640"/>
      <point x="265" y="647"/>
      <point x="256" y="647" type="curve" smooth="yes"/>
      <point x="98" y="647" type="line" smooth="yes"/>
      <point x="89" y="647"/>
      <point x="82" y="640"/>
      <point x="82" y="631" type="curve" smooth="yes"/>
      <point x="82" y="622"/>
      <point x="89" y="615"/>
      <point x="98" y="615" type="curve" smooth="yes"/>
    </contour>
  </outline>
</glyph>
<glyph name="circumflex" format="1">
  <advance width="612.0"/>
  <unicode hex="02C6"/>
  <outline>
    <contour>
      <point x="206" y="1281" type="line"/>
      <point x="200" y="1275"/>
      <point x="200" y="1265"/>
      <point x="206" y="1259" type="curve" smooth="yes"/>
      <point x="212" y="1253"/>
      <point x="222" y="1253"/>
      <point x="228" y="1259" type="curve" smooth="yes"/>
      <point x="323" y="1354" type="line"/>
      <point x="301" y="1354" type="line"/>
      <point x="396" y="1259" type="line" smooth="yes"/>
      <point x="402" y="1253"/>
      <point x="412" y="1253"/>
      <point x="418" y="1259" type="curve" smooth="yes"/>
      <point x="424" y="1265"/>
      <point x="424" y="1275"/>
      <point x="418" y="1281" type="curve" smooth="yes"/>
      <point x="323" y="1376" type="line" smooth="yes"/>
      <point x="317" y="1383"/>
      <point x="307" y="1383"/>
      <point x="301" y="1376" type="curve" smooth="yes"/>
    </contour>
  </outline>
</glyph>
<glyph name="caron" format="1">
  <advance width="648.0"/>
  <unicode hex="02C7"/>
  <outline>
    <contour>
      <point x="418" y="1354" type="line"/>
      <point x="424" y="1360"/>
      <point x="424" y="1370"/>
      <point x="418" y="1376" type="curve" smooth="yes"/>
      <point x="412" y="1382"/>
      <point x="402" y="1382"/>
      <point x="396" y="1376" type="curve" smooth="yes"/>
      <point x="301" y="1281" type="line"/>
      <point x="323" y="1281" type="line"/>
      <point x="228" y="1376" type="line" smooth="yes"/>
      <point x="222" y="1382"/>
      <point x="212" y="1382"/>
      <point x="206" y="1376" type="curve" smooth="yes"/>
      <point x="200" y="1370"/>
      <point x="200" y="1360"/>
      <point x="206" y="1354" type="curve" smooth="yes"/>
      <point x="301" y="1259" type="line" smooth="yes"/>
      <point x="307" y="1252"/>
      <point x="317" y="1252"/>
      <point x="323" y="1259" type="curve" smooth="yes"/>
    </contour>
  </outline>
</glyph>
<glyph name="ring" format="1">
  <advance width="292.0"/>
  <unicode hex="02DA"/>
  <outline>
    <contour>
      <point x="161" y="1275" type="curve" smooth="yes"/>
      <point x="190" y="1284"/>
      <point x="207" y="1314"/>
      <point x="199" y="1343" type="curve" smooth="yes"/>
      <point x="190" y="1372"/>
      <point x="160" y="1389"/>
      <point x="131" y="1381" type="curve" smooth="yes"/>
      <point x="102" y="1372"/>
      <point x="85" y="1342"/>
      <point x="93" y="1313" type="curve" smooth="yes"/>
      <point x="102" y="1284"/>
      <point x="132" y="1267"/>
    </contour>
    <contour>
      <point x="155" y="1355" type="curve" smooth="yes"/>
      <point x="169" y="1350"/>
      <point x="178" y="1334"/>
      <point x="173" y="1319" type="curve" smooth="yes"/>
      <point x="168" y="1305"/>
      <point x="152" y="1296"/>
      <point x="137" y="1301" type="curve" smooth="yes"/>
      <point x="123" y="1306"/>
      <point x="114" y="1322"/>
      <point x="119" y="1337" type="curve" smooth="yes"/>
      <point x="124" y="1351"/>
      <point x="140" y="1360"/>
    </contour>
  </outline>
</glyph>
<glyph name="hungarumlaut" format="1">
  <advance width="318.0"/>
  <unicode hex="02DD"/>
  <outline>
    <contour>
      <point x="239" y="1395" type="line"/>
      <point x="245" y="1401"/>
      <point x="245" y="1411"/>
      <point x="239" y="1417" type="curve" smooth="yes"/>
      <point x="233" y="1423"/>
      <point x="223" y="1423"/>
      <point x="217" y="1417" type="curve" smooth="yes"/>
      <point x="87" y="1289" type="line" smooth="yes"/>
      <point x="81" y="1283"/>
      <point x="81" y="1273"/>
      <point x="87" y="1267" type="curve" smooth="yes"/>
      <point x="93" y="1261"/>
      <point x="103" y="1261"/>
      <point x="109" y="1267" type="curve" smooth="yes"/>
    </contour>
    <contour>
      <point x="379" y="1395" type="line"/>
      <point x="385" y="1401"/>
      <point x="385" y="1411"/>
      <point x="379" y="1417" type="curve" smooth="yes"/>
      <point x="373" y="1423"/>
      <point x="363" y="1423"/>
      <point x="357" y="1417" type="curve" smooth="yes"/>
      <point x="227" y="1289" type="line" smooth="yes"/>
      <point x="221" y="1283"/>
      <point x="221" y="1273"/>
      <point x="227" y="1267" type="curve" smooth="yes"/>
      <point x="233" y="1261"/>
      <point x="243" y="1261"/>
      <point x="249" y="1267" type="curve" smooth="yes"/>
    </contour>
  </outline>
</glyph>
<glyph name="Omega" format="1">
  <advance width="762"/>
  <unicode hex="03A9"/>
  <outline>
    <contour>
      <point x="665" y="-76" type="line"/>
      <point x="674" y="-76"/>
      <point x="681" y="-69"/>
      <point x="681" y="-60" type="curve" smooth="yes"/>
      <point x="681" y="-51"/>
      <point x="674" y="-44"/>
      <point x="665" y="-44" type="curve" smooth="yes"/>
      <point x="490" y="-44" type="line"/>
      <point x="506" y="-60" type="line"/>
      <point x="506" y="132" type="line"/>
      <point x="491" y="117" type="line"/>
      <point x="599" y="132"/>
      <point x="683" y="227"/>
      <point x="683" y="341" type="curve" smooth="yes"/>
      <point x="682" y="928" type="line" smooth="yes"/>
      <point x="682" y="1094"/>
      <point x="547" y="1229"/>
      <point x="381" y="1229" type="curve" smooth="yes"/>
      <point x="215" y="1229"/>
      <point x="80" y="1094"/>
      <point x="80" y="928" type="curve" smooth="yes"/>
      <point x="80" y="341" type="line" smooth="yes"/>
      <point x="80" y="227"/>
      <point x="164" y="132"/>
      <point x="273" y="117" type="curve"/>
      <point x="258" y="132" type="line"/>
      <point x="258" y="-60" type="line"/>
      <point x="274" y="-44" type="line"/>
      <point x="97" y="-44" type="line" smooth="yes"/>
      <point x="88" y="-44"/>
      <point x="81" y="-51"/>
      <point x="81" y="-60" type="curve" smooth="yes"/>
      <point x="81" y="-69"/>
      <point x="88" y="-76"/>
      <point x="97" y="-76" type="curve" smooth="yes"/>
      <point x="274" y="-76" type="line" smooth="yes"/>
      <point x="283" y="-76"/>
      <point x="290" y="-69"/>
      <point x="290" y="-60" type="curve" smooth="yes"/>
      <point x="290" y="132" type="line" smooth="yes"/>
      <point x="290" y="141"/>
      <point x="283" y="148"/>
      <point x="275" y="148" type="curve" smooth="yes"/>
      <point x="183" y="163"/>
      <point x="112" y="244"/>
      <point x="112" y="341" type="curve" smooth="yes"/>
      <point x="112" y="928" type="line" smooth="yes"/>
      <point x="112" y="1076"/>
      <point x="233" y="1197"/>
      <point x="381" y="1197" type="curve" smooth="yes"/>
      <point x="529" y="1197"/>
      <point x="650" y="1076"/>
      <point x="650" y="928" type="curve" smooth="yes"/>
      <point x="651" y="341" type="line" smooth="yes"/>
      <point x="651" y="244"/>
      <point x="580" y="163"/>
      <point x="489" y="148" type="curve" smooth="yes"/>
      <point x="480" y="148"/>
      <point x="474" y="141"/>
      <point x="474" y="132" type="curve" smooth="yes"/>
      <point x="474" y="-60" type="line" smooth="yes"/>
      <point x="474" y="-69"/>
      <point x="481" y="-76"/>
      <point x="490" y="-76" type="curve" smooth="yes"/>
    </contour>
  </outline>
</glyph>
<glyph name="mu" format="1">
  <advance width="712"/>
  <unicode hex="03BC"/>
  <outline>
    <contour>
      <point x="80" y="-305" type="line"/>
      <point x="80" y="-314"/>
      <point x="87" y="-321"/>
      <point x="96" y="-321" type="curve" smooth="yes"/>
      <point x="105" y="-321"/>
      <point x="112" y="-314"/>
      <point x="112" y="-305" type="curve" smooth="yes"/>
      <point x="112" y="852" type="line" smooth="yes"/>
      <point x="112" y="861"/>
      <point x="105" y="868"/>
      <point x="96" y="868" type="curve" smooth="yes"/>
      <point x="87" y="868"/>
      <point x="80" y="861"/>
      <point x="80" y="852" type="curve" smooth="yes"/>
    </contour>
    <contour>
      <point x="632" y="852" type="line"/>
      <point x="632" y="861"/>
      <point x="625" y="868"/>
      <point x="616" y="868" type="curve" smooth="yes"/>
      <point x="607" y="868"/>
      <point x="600" y="861"/>
      <point x="600" y="852" type="curve" smooth="yes"/>
      <point x="600" y="260" type="line" smooth="yes"/>
      <point x="600" y="126"/>
      <point x="490" y="16"/>
      <point x="356" y="16" type="curve" smooth="yes"/>
      <point x="242" y="16"/>
      <point x="146" y="94"/>
      <point x="119" y="200" type="curve" smooth="yes"/>
      <point x="117" y="208"/>
      <point x="108" y="213"/>
      <point x="100" y="210" type="curve" smooth="yes"/>
      <point x="91" y="208"/>
      <point x="86" y="199"/>
      <point x="89" y="191" type="curve" smooth="yes"/>
      <point x="120" y="73"/>
      <point x="228" y="-16"/>
      <point x="356" y="-16" type="curve" smooth="yes"/>
      <point x="508" y="-16"/>
      <point x="632" y="108"/>
      <point x="632" y="260" type="curve" smooth="yes"/>
    </contour>
  </outline>
</glyph>
<glyph name="pi" format="1">
  <advance width="731"/>
  <unicode hex="03C0"/>
  <outline>
    <contour>
      <point x="635" y="839" type="line"/>
      <point x="644" y="839"/>
      <point x="651" y="846"/>
      <point x="651" y="855" type="curve" smooth="yes"/>
      <point x="651" y="864"/>
      <point x="644" y="871"/>
      <point x="635" y="871" type="curve" smooth="yes"/>
      <point x="96" y="871" type="line" smooth="yes"/>
      <point x="87" y="871"/>
      <point x="80" y="864"/>
      <point x="80" y="855" type="curve" smooth="yes"/>
      <point x="80" y="846"/>
      <point x="87" y="839"/>
      <point x="96" y="839" type="curve" smooth="yes"/>
    </contour>
    <contour>
      <point x="192" y="16" type="line"/>
      <point x="192" y="7"/>
      <point x="199" y="0"/>
      <point x="208" y="0" type="curve" smooth="yes"/>
      <point x="217" y="0"/>
      <point x="224" y="7"/>
      <point x="224" y="16" type="curve" smooth="yes"/>
      <point x="224" y="849" type="line" smooth="yes"/>
      <point x="224" y="858"/>
      <point x="217" y="865"/>
      <point x="208" y="865" type="curve" smooth="yes"/>
      <point x="199" y="865"/>
      <point x="192" y="858"/>
      <point x="192" y="849" type="curve" smooth="yes"/>
    </contour>
    <contour>
      <point x="483" y="849" type="line"/>
      <point x="483" y="858"/>
      <point x="476" y="865"/>
      <point x="467" y="865" type="curve" smooth="yes"/>
      <point x="458" y="865"/>
      <point x="451" y="858"/>
      <point x="451" y="849" type="curve" smooth="yes"/>
      <point x="451" y="168" type="line" smooth="yes"/>
      <point x="451" y="67"/>
      <point x="534" y="-16"/>
      <point x="635" y="-16" type="curve" smooth="yes"/>
      <point x="644" y="-16"/>
      <point x="651" y="-9"/>
      <point x="651" y="0" type="curve" smooth="yes"/>
      <point x="651" y="9"/>
      <point x="644" y="16"/>
      <point x="635" y="16" type="curve" smooth="yes"/>
      <point x="552" y="16"/>
      <point x="483" y="85"/>
      <point x="483" y="168" type="curve" smooth="yes"/>
    </contour>
  </outline>
</glyph>
<glyph name="endash" format="1">
  <advance width="1000.0"/>
  <unicode hex="2013"/>
  <outline>
    <contour>
      <point x="96" y="447" type="line"/>
      <point x="87" y="447"/>
      <point x="80" y="440"/>
      <point x="80" y="431" type="curve" smooth="yes"/>
      <point x="80" y="422"/>
      <point x="87" y="415"/>
      <point x="96" y="415" type="curve" smooth="yes"/>
      <point x="904" y="415" type="line" smooth="yes"/>
      <point x="913" y="415"/>
      <point x="920" y="422"/>
      <point x="920" y="431" type="curve" smooth="yes"/>
      <point x="920" y="440"/>
      <point x="913" y="447"/>
      <point x="904" y="447" type="curve" smooth="yes"/>
    </contour>
  </outline>
</glyph>
<glyph name="emdash" format="1">
  <advance width="2000.0"/>
  <unicode hex="2014"/>
  <outline>
    <contour>
      <point x="96" y="447" type="line"/>
      <point x="87" y="447"/>
      <point x="80" y="440"/>
      <point x="80" y="431" type="curve" smooth="yes"/>
      <point x="80" y="422"/>
      <point x="87" y="415"/>
      <point x="96" y="415" type="curve" smooth="yes"/>
      <point x="1904" y="415" type="line" smooth="yes"/>
      <point x="1913" y="415"/>
      <point x="1920" y="422"/>
      <point x="1920" y="431" type="curve" smooth="yes"/>
      <point x="1920" y="440"/>
      <point x="1913" y="447"/>
      <point x="1904" y="447" type="curve" smooth="yes"/>
    </contour>
  </outline>
</glyph>
<glyph name="daggerdbl" format="1">
  <advance width="612.0"/>
  <unicode hex="2021"/>
  <outline>
    <contour>
      <point x="298" y="16" type="line"/>
      <point x="298" y="7"/>
      <point x="305" y="0"/>
      <point x="314" y="0" type="curve" smooth="yes"/>
      <point x="323" y="0"/>
      <point x="330" y="7"/>
      <point x="330" y="16" type="curve" smooth="yes"/>
      <point x="330" y="1184" type="line" smooth="yes"/>
      <point x="330" y="1193"/>
      <point x="323" y="1200"/>
      <point x="314" y="1200" type="curve" smooth="yes"/>
      <point x="305" y="1200"/>
      <point x="298" y="1193"/>
      <point x="298" y="1184" type="curve" smooth="yes"/>
    </contour>
    <contour>
      <point x="96" y="982" type="line"/>
      <point x="87" y="982"/>
      <point x="80" y="975"/>
      <point x="80" y="966" type="curve" smooth="yes"/>
      <point x="80" y="957"/>
      <point x="87" y="950"/>
      <point x="96" y="950" type="curve" smooth="yes"/>
      <point x="532" y="950" type="line" smooth="yes"/>
      <point x="541" y="950"/>
      <point x="548" y="957"/>
      <point x="548" y="966" type="curve" smooth="yes"/>
      <point x="548" y="975"/>
      <point x="541" y="982"/>
      <point x="532" y="982" type="curve" smooth="yes"/>
    </contour>
    <contour>
      <point x="96" y="735" type="line"/>
      <point x="87" y="735"/>
      <point x="80" y="728"/>
      <point x="80" y="719" type="curve" smooth="yes"/>
      <point x="80" y="710"/>
      <point x="87" y="703"/>
      <point x="96" y="703" type="curve" smooth="yes"/>
      <point x="532" y="703" type="line" smooth="yes"/>
      <point x="541" y="703"/>
      <point x="548" y="710"/>
      <point x="548" y="719" type="curve" smooth="yes"/>
      <point x="548" y="728"/>
      <point x="541" y="735"/>
      <point x="532" y="735" type="curve" smooth="yes"/>
    </contour>
  </outline>
</glyph>
<glyph name="bullet" format="1">
  <advance width="374.0"/>
  <unicode hex="2022"/>
  <outline>
    <contour>
      <point x="187" y="324" type="curve" smooth="yes"/>
      <point x="245" y="324"/>
      <point x="294" y="371"/>
      <point x="294" y="431" type="curve" smooth="yes"/>
      <point x="294" y="489"/>
      <point x="245" y="538"/>
      <point x="187" y="538" type="curve" smooth="yes"/>
      <point x="127" y="538"/>
      <point x="80" y="489"/>
      <point x="80" y="431" type="curve" smooth="yes"/>
      <point x="80" y="371"/>
      <point x="127" y="324"/>
    </contour>
  </outline>
</glyph>
<glyph name="perthousand" format="1">
  <advance width="1017"/>
  <unicode hex="2030"/>
  <outline>
    <contour>
      <point x="213" y="456" type="curve" smooth="yes"/>
      <point x="286" y="456"/>
      <point x="345" y="516"/>
      <point x="345" y="588" type="curve" smooth="yes"/>
      <point x="345" y="661"/>
      <point x="286" y="721"/>
      <point x="213" y="721" type="curve" smooth="yes"/>
      <point x="140" y="721"/>
      <point x="80" y="661"/>
      <point x="80" y="588" type="curve" smooth="yes"/>
      <point x="80" y="516"/>
      <point x="140" y="456"/>
    </contour>
    <contour>
      <point x="213" y="488" type="curve" smooth="yes"/>
      <point x="158" y="488"/>
      <point x="112" y="534"/>
      <point x="112" y="588" type="curve" smooth="yes"/>
      <point x="112" y="643"/>
      <point x="158" y="689"/>
      <point x="213" y="689" type="curve" smooth="yes"/>
      <point x="268" y="689"/>
      <point x="313" y="643"/>
      <point x="313" y="588" type="curve" smooth="yes"/>
      <point x="313" y="534"/>
      <point x="268" y="488"/>
    </contour>
    <contour>
      <point x="600" y="701" type="line"/>
      <point x="605" y="707"/>
      <point x="603" y="718"/>
      <point x="596" y="723" type="curve" smooth="yes"/>
      <point x="590" y="728"/>
      <point x="579" y="726"/>
      <point x="574" y="719" type="curve" smooth="yes"/>
      <point x="83" y="25" type="line" smooth="yes"/>
      <point x="78" y="18"/>
      <point x="80" y="7"/>
      <point x="87" y="3" type="curve" smooth="yes"/>
      <point x="94" y="-2"/>
      <point x="105" y="0"/>
      <point x="109" y="7" type="curve" smooth="yes"/>
    </contour>
    <contour>
      <point x="471" y="-13" type="curve" smooth="yes"/>
      <point x="543" y="-13"/>
      <point x="603" y="47"/>
      <point x="603" y="120" type="curve" smooth="yes"/>
      <point x="603" y="193"/>
      <point x="543" y="252"/>
      <point x="471" y="252" type="curve" smooth="yes"/>
      <point x="398" y="252"/>
      <point x="338" y="193"/>
      <point x="338" y="120" type="curve" smooth="yes"/>
      <point x="338" y="47"/>
      <point x="398" y="-13"/>
    </contour>
    <contour>
      <point x="471" y="19" type="curve" smooth="yes"/>
      <point x="416" y="19"/>
      <point x="370" y="65"/>
      <point x="370" y="120" type="curve" smooth="yes"/>
      <point x="370" y="175"/>
      <point x="416" y="220"/>
      <point x="471" y="220" type="curve" smooth="yes"/>
      <point x="525" y="220"/>
      <point x="571" y="175"/>
      <point x="571" y="120" type="curve" smooth="yes"/>
      <point x="571" y="65"/>
      <point x="525" y="19"/>
    </contour>
    <contour>
      <point x="805" y="-13" type="curve" smooth="yes"/>
      <point x="877" y="-13"/>
      <point x="937" y="47"/>
      <point x="937" y="120" type="curve" smooth="yes"/>
      <point x="937" y="193"/>
      <point x="877" y="252"/>
      <point x="805" y="252" type="curve" smooth="yes"/>
      <point x="732" y="252"/>
      <point x="672" y="193"/>
      <point x="672" y="120" type="curve" smooth="yes"/>
      <point x="672" y="47"/>
      <point x="732" y="-13"/>
    </contour>
    <contour>
      <point x="805" y="19" type="curve" smooth="yes"/>
      <point x="750" y="19"/>
      <point x="704" y="65"/>
      <point x="704" y="120" type="curve" smooth="yes"/>
      <point x="704" y="175"/>
      <point x="750" y="220"/>
      <point x="805" y="220" type="curve" smooth="yes"/>
      <point x="859" y="220"/>
      <point x="905" y="175"/>
      <point x="905" y="120" type="curve" smooth="yes"/>
      <point x="905" y="65"/>
      <point x="859" y="19"/>
    </contour>
  </outline>
</glyph>
<glyph name="guilsinglleft" format="1">
  <advance width="284.0"/>
  <unicode hex="2039"/>
  <outline>
    <contour>
      <point x="197" y="290" type="line"/>
      <point x="203" y="284"/>
      <point x="213" y="284"/>
      <point x="219" y="290" type="curve" smooth="yes"/>
      <point x="225" y="296"/>
      <point x="225" y="306"/>
      <point x="219" y="312" type="curve" smooth="yes"/>
      <point x="85" y="444" type="line"/>
      <point x="85" y="422" type="line"/>
      <point x="219" y="554" type="line" smooth="yes"/>
      <point x="225" y="560"/>
      <point x="225" y="570"/>
      <point x="219" y="576" type="curve" smooth="yes"/>
      <point x="213" y="582"/>
      <point x="203" y="582"/>
      <point x="197" y="576" type="curve" smooth="yes"/>
      <point x="63" y="444" type="line" smooth="yes"/>
      <point x="56" y="438"/>
      <point x="56" y="428"/>
      <point x="63" y="422" type="curve" smooth="yes"/>
    </contour>
  </outline>
</glyph>
<glyph name="guilsinglright" format="1">
  <advance width="284.0"/>
  <unicode hex="203A"/>
  <outline>
    <contour>
      <point x="87" y="576" type="line"/>
      <point x="81" y="582"/>
      <point x="71" y="582"/>
      <point x="65" y="576" type="curve" smooth="yes"/>
      <point x="59" y="570"/>
      <point x="59" y="560"/>
      <point x="65" y="554" type="curve" smooth="yes"/>
      <point x="199" y="422" type="line"/>
      <point x="199" y="444" type="line"/>
      <point x="65" y="312" type="line" smooth="yes"/>
      <point x="59" y="306"/>
      <point x="59" y="296"/>
      <point x="65" y="290" type="curve" smooth="yes"/>
      <point x="71" y="284"/>
      <point x="81" y="284"/>
      <point x="87" y="290" type="curve" smooth="yes"/>
      <point x="221" y="422" type="line" smooth="yes"/>
      <point x="228" y="428"/>
      <point x="228" y="438"/>
      <point x="221" y="444" type="curve" smooth="yes"/>
    </contour>
  </outline>
</glyph>
<glyph name="Euro" format="1">
  <advance width="777.0"/>
  <unicode hex="20AC"/>
  <outline>
    <contour>
      <point x="670" y="991" type="curve" smooth="yes"/>
      <point x="671" y="983"/>
      <point x="678" y="977"/>
      <point x="687" y="978" type="curve" smooth="yes"/>
      <point x="695" y="979"/>
      <point x="701" y="987"/>
      <point x="700" y="996" type="curve" smooth="yes"/>
      <point x="678" y="1120"/>
      <point x="566" y="1216"/>
      <point x="431" y="1216" type="curve" smooth="yes"/>
      <point x="265" y="1216"/>
      <point x="130" y="1081"/>
      <point x="130" y="915" type="curve" smooth="yes"/>
      <point x="130" y="282" type="line" smooth="yes"/>
      <point x="130" y="116"/>
      <point x="265" y="-19"/>
      <point x="431" y="-19" type="curve" smooth="yes"/>
      <point x="566" y="-19"/>
      <point x="679" y="77"/>
      <point x="700" y="201" type="curve" smooth="yes"/>
      <point x="701" y="210"/>
      <point x="696" y="218"/>
      <point x="687" y="219" type="curve" smooth="yes"/>
      <point x="679" y="220"/>
      <point x="671" y="214"/>
      <point x="670" y="206" type="curve" smooth="yes"/>
      <point x="649" y="97"/>
      <point x="550" y="13"/>
      <point x="431" y="13" type="curve" smooth="yes"/>
      <point x="283" y="13"/>
      <point x="162" y="134"/>
      <point x="162" y="282" type="curve" smooth="yes"/>
      <point x="162" y="915" type="line" smooth="yes"/>
      <point x="162" y="1063"/>
      <point x="283" y="1184"/>
      <point x="431" y="1184" type="curve" smooth="yes"/>
      <point x="549" y="1184"/>
      <point x="649" y="1100"/>
    </contour>
    <contour>
      <point x="359" y="654" type="line"/>
      <point x="368" y="654"/>
      <point x="375" y="661"/>
      <point x="375" y="670" type="curve" smooth="yes"/>
      <point x="375" y="679"/>
      <point x="368" y="686"/>
      <point x="359" y="686" type="curve" smooth="yes"/>
      <point x="76" y="686" type="line" smooth="yes"/>
      <point x="67" y="686"/>
      <point x="60" y="679"/>
      <point x="60" y="670" type="curve" smooth="yes"/>
      <point x="60" y="661"/>
      <point x="67" y="654"/>
      <point x="76" y="654" type="curve" smooth="yes"/>
    </contour>
    <contour>
      <point x="359" y="574" type="line"/>
      <point x="368" y="574"/>
      <point x="375" y="581"/>
      <point x="375" y="590" type="curve" smooth="yes"/>
      <point x="375" y="599"/>
      <point x="368" y="606"/>
      <point x="359" y="606" type="curve" smooth="yes"/>
      <point x="76" y="606" type="line" smooth="yes"/>
      <point x="67" y="606"/>
      <point x="60" y="599"/>
      <point x="60" y="590" type="curve" smooth="yes"/>
      <point x="60" y="581"/>
      <point x="67" y="574"/>
      <point x="76" y="574" type="curve" smooth="yes"/>
    </contour>
  </outline>
</glyph>
<glyph name="partialdiff" format="1">
  <advance width="712"/>
  <unicode hex="2202"/>
  <outline>
    <contour>
      <point x="600" y="621" type="curve" smooth="yes"/>
      <point x="600" y="612"/>
      <point x="607" y="605"/>
      <point x="616" y="605" type="curve" smooth="yes"/>
      <point x="625" y="605"/>
      <point x="632" y="612"/>
      <point x="632" y="621" type="curve" smooth="yes"/>
      <point x="632" y="773"/>
      <point x="508" y="897"/>
      <point x="356" y="897" type="curve" smooth="yes"/>
      <point x="204" y="897"/>
      <point x="80" y="773"/>
      <point x="80" y="621" type="curve" smooth="yes"/>
      <point x="80" y="247" type="line" smooth="yes"/>
      <point x="80" y="95"/>
      <point x="204" y="-29"/>
      <point x="356" y="-29" type="curve" smooth="yes"/>
      <point x="508" y="-29"/>
      <point x="632" y="95"/>
      <point x="632" y="247" type="curve" smooth="yes"/>
      <point x="632" y="963" type="line" smooth="yes"/>
      <point x="632" y="1090"/>
      <point x="539" y="1195"/>
      <point x="422" y="1212" type="curve" smooth="yes"/>
      <point x="413" y="1213"/>
      <point x="406" y="1207"/>
      <point x="405" y="1199" type="curve" smooth="yes"/>
      <point x="403" y="1191"/>
      <point x="409" y="1183"/>
      <point x="417" y="1182" type="curve" smooth="yes"/>
      <point x="519" y="1166"/>
      <point x="600" y="1074"/>
      <point x="600" y="963" type="curve" smooth="yes"/>
      <point x="600" y="247" type="line" smooth="yes"/>
      <point x="600" y="113"/>
      <point x="490" y="3"/>
      <point x="356" y="3" type="curve" smooth="yes"/>
      <point x="222" y="3"/>
      <point x="112" y="113"/>
      <point x="112" y="247" type="curve" smooth="yes"/>
      <point x="112" y="621" type="line" smooth="yes"/>
      <point x="112" y="755"/>
      <point x="222" y="865"/>
      <point x="356" y="865" type="curve" smooth="yes"/>
      <point x="490" y="865"/>
      <point x="600" y="755"/>
    </contour>
  </outline>
</glyph>
